<svg width="95" height="95" viewBox="0 0 95 95" fill="none" xmlns="http://www.w3.org/2000/svg">
<circle cx="47.2611" cy="47.2611" r="47.2611" fill="white"/>
<path d="M35.7116 64V58.9034L47.62 47.8771C48.6328 46.897 49.4822 46.0149 50.1683 45.2308C50.8653 44.4467 51.3935 43.679 51.7528 42.9276C52.1122 42.1652 52.2919 41.343 52.2919 40.4609C52.2919 39.4808 52.0687 38.6368 51.6222 37.929C51.1757 37.2102 50.5658 36.6603 49.7926 36.2791C49.0194 35.8871 48.1428 35.6911 47.1626 35.6911C46.139 35.6911 45.246 35.898 44.4837 36.3118C43.7214 36.7256 43.1333 37.3191 42.7195 38.0923C42.3056 38.8655 42.0987 39.7857 42.0987 40.853H35.3849C35.3849 38.6641 35.8804 36.7637 36.8714 35.152C37.8625 33.5402 39.2509 32.2933 41.0369 31.4112C42.8229 30.5291 44.8812 30.0881 47.2116 30.0881C49.6075 30.0881 51.6929 30.5128 53.468 31.3622C55.254 32.2008 56.6425 33.366 57.6335 34.858C58.6245 36.3499 59.12 38.0597 59.12 39.9872C59.12 41.2505 58.8696 42.4974 58.3686 43.728C57.8786 44.9586 57.0019 46.3253 55.7386 47.8281C54.4754 49.3201 52.6948 51.1115 50.397 53.2024L45.5128 57.9886V58.2173H59.5611V64H35.7116Z" fill="#0F0BC7"/>
</svg>
