<svg width="95" height="95" viewBox="0 0 95 95" fill="none" xmlns="http://www.w3.org/2000/svg">
<circle cx="47.2611" cy="47.7006" r="47.2611" fill="white"/>
<path d="M47.0774 63.8968C44.638 63.8968 42.4654 63.4776 40.5597 62.639C38.6648 61.7896 37.1674 60.6243 36.0675 59.1433C34.9785 57.6513 34.4176 55.9307 34.3849 53.9814H41.5071C41.5507 54.7981 41.8175 55.5169 42.3075 56.1376C42.8085 56.7475 43.4728 57.2212 44.3004 57.5588C45.1281 57.8964 46.0592 58.0652 47.0938 58.0652C48.1719 58.0652 49.1248 57.8746 49.9524 57.4934C50.7801 57.1123 51.428 56.5841 51.8963 55.9089C52.3646 55.2337 52.5987 54.4551 52.5987 53.573C52.5987 52.68 52.3482 51.8904 51.8473 51.2044C51.3572 50.5074 50.6494 49.9629 49.7237 49.5708C48.8089 49.1788 47.7199 48.9828 46.4567 48.9828H43.3366V43.7882H46.4567C47.5239 43.7882 48.4659 43.603 49.2827 43.2328C50.1103 42.8625 50.7528 42.3507 51.2102 41.6973C51.6676 41.033 51.8963 40.2598 51.8963 39.3777C51.8963 38.5391 51.6948 37.804 51.2919 37.1724C50.8999 36.5299 50.3445 36.0289 49.6257 35.6696C48.9179 35.3102 48.0902 35.1305 47.1428 35.1305C46.1844 35.1305 45.3078 35.3047 44.5128 35.6532C43.7178 35.9908 43.0807 36.4754 42.6016 37.1071C42.1224 37.7387 41.8665 38.4792 41.8338 39.3287H35.0547C35.0874 37.4011 35.6373 35.7022 36.7045 34.2321C37.7718 32.7619 39.2093 31.613 41.017 30.7853C42.8357 29.9468 44.8885 29.5275 47.1754 29.5275C49.4841 29.5275 51.5043 29.9468 53.2358 30.7853C54.9673 31.6239 56.3123 32.7564 57.2706 34.1831C58.2398 35.5988 58.719 37.1887 58.7081 38.9529C58.719 40.8261 58.1364 42.3888 56.9602 43.6412C55.795 44.8935 54.2758 45.6885 52.4027 46.0261V46.2875C54.8639 46.6033 56.737 47.4582 58.022 48.8521C59.3179 50.2351 59.9605 51.9667 59.9496 54.0467C59.9605 55.9525 59.4105 57.6459 58.2997 59.127C57.1998 60.608 55.6806 61.7733 53.7422 62.6227C51.8037 63.4721 49.5822 63.8968 47.0774 63.8968Z" fill="#0F0BC7"/>
</svg>
