<svg width="206" height="58" viewBox="0 0 206 58" fill="none" xmlns="http://www.w3.org/2000/svg">
<rect width="206" height="58" rx="29" fill="url(#paint0_linear_1_1056)"/>
<path d="M60.9307 27.1406C60.8412 26.8295 60.7155 26.5547 60.5536 26.3161C60.3917 26.0732 60.1935 25.8686 59.9591 25.7024C59.729 25.532 59.4648 25.402 59.1665 25.3125C58.8725 25.223 58.5465 25.1783 58.1885 25.1783C57.5195 25.1783 56.9314 25.3445 56.4243 25.6768C55.9215 26.0092 55.5294 26.4929 55.2482 27.1278C54.9669 27.7585 54.8263 28.5298 54.8263 29.4418C54.8263 30.3537 54.9648 31.1293 55.2418 31.7685C55.5188 32.4077 55.9108 32.8956 56.4179 33.2322C56.925 33.5646 57.5238 33.7308 58.2141 33.7308C58.8405 33.7308 59.3753 33.62 59.8185 33.3984C60.2659 33.1726 60.6069 32.8551 60.8412 32.446C61.0799 32.0369 61.1992 31.5533 61.1992 30.995L61.7617 31.0781H58.3867V28.9943H63.8647V30.6435C63.8647 31.794 63.6218 32.7827 63.136 33.6094C62.6502 34.4318 61.9811 35.0668 61.1289 35.5142C60.2766 35.9574 59.3007 36.179 58.2013 36.179C56.974 36.179 55.8959 35.9084 54.9669 35.3672C54.038 34.8217 53.3135 34.0483 52.7936 33.0469C52.278 32.0412 52.0202 30.848 52.0202 29.4673C52.0202 28.4062 52.1736 27.4602 52.4804 26.6293C52.7915 25.794 53.2262 25.0866 53.7844 24.5071C54.3427 23.9276 54.9925 23.4865 55.734 23.1839C56.4755 22.8814 57.2787 22.7301 58.1438 22.7301C58.8853 22.7301 59.5756 22.8388 60.2148 23.0561C60.854 23.2692 61.4208 23.5717 61.9151 23.9638C62.4137 24.3558 62.8206 24.8224 63.136 25.3636C63.4513 25.9006 63.6537 26.4929 63.7432 27.1406H60.9307ZM70.565 36.1918C69.555 36.1918 68.6857 35.9872 67.957 35.5781C67.2326 35.1648 66.6744 34.581 66.2823 33.8267C65.8903 33.0682 65.6942 32.1712 65.6942 31.1357C65.6942 30.1257 65.8903 29.2393 66.2823 28.4766C66.6744 27.7138 67.2262 27.1193 67.9378 26.6932C68.6538 26.267 69.4932 26.054 70.4563 26.054C71.104 26.054 71.707 26.1584 72.2653 26.3672C72.8278 26.5717 73.3178 26.8807 73.7354 27.294C74.1573 27.7074 74.4854 28.2273 74.7198 28.8537C74.9542 29.4759 75.0714 30.2045 75.0714 31.0398V31.7876H66.7809V30.1001H72.5082C72.5082 29.7081 72.4229 29.3608 72.2525 29.0582C72.082 28.7557 71.8455 28.5192 71.543 28.3487C71.2447 28.174 70.8974 28.0866 70.5011 28.0866C70.0877 28.0866 69.7212 28.1825 69.4016 28.3743C69.0863 28.5618 68.8391 28.8153 68.6601 29.1349C68.4812 29.4503 68.3896 29.8018 68.3853 30.1896V31.794C68.3853 32.2798 68.4748 32.6996 68.6538 33.0533C68.837 33.407 69.0948 33.6797 69.4272 33.8714C69.7596 34.0632 70.1538 34.1591 70.6097 34.1591C70.9123 34.1591 71.1893 34.1165 71.4407 34.0312C71.6921 33.946 71.9073 33.8182 72.0863 33.6477C72.2653 33.4773 72.4016 33.2685 72.4954 33.0213L75.0138 33.1875C74.886 33.7926 74.6239 34.321 74.2276 34.7727C73.8356 35.2202 73.3285 35.5696 72.7063 35.821C72.0884 36.0682 71.3746 36.1918 70.565 36.1918ZM82.2687 26.1818V28.2273H76.356V26.1818H82.2687ZM77.6983 23.8295H80.4214V32.983C80.4214 33.2344 80.4597 33.4304 80.5364 33.571C80.6131 33.7074 80.7197 33.8033 80.856 33.8587C80.9966 33.9141 81.1586 33.9418 81.3418 33.9418C81.4697 33.9418 81.5975 33.9311 81.7253 33.9098C81.8532 33.8842 81.9512 33.8651 82.0194 33.8523L82.4476 35.8786C82.3113 35.9212 82.1195 35.9702 81.8724 36.0256C81.6252 36.0852 81.3248 36.1214 80.9711 36.1342C80.3148 36.1598 79.7395 36.0724 79.2452 35.8722C78.7552 35.6719 78.3738 35.3608 78.101 34.9389C77.8283 34.517 77.6941 33.9844 77.6983 33.3409V23.8295ZM95.7572 26.674C95.706 26.1584 95.4866 25.7578 95.0988 25.4723C94.711 25.1868 94.1847 25.044 93.5199 25.044C93.0682 25.044 92.6869 25.108 92.3758 25.2358C92.0647 25.3594 91.8261 25.532 91.6599 25.7536C91.4979 25.9751 91.417 26.2266 91.417 26.5078C91.4084 26.7422 91.4574 26.9467 91.564 27.1214C91.6748 27.2962 91.8261 27.4474 92.0178 27.5753C92.2096 27.6989 92.4312 27.8075 92.6826 27.9013C92.934 27.9908 93.2025 28.0675 93.488 28.1314L94.6641 28.4126C95.2351 28.5405 95.7593 28.7109 96.2366 28.924C96.7138 29.1371 97.1272 29.3991 97.4766 29.7102C97.8261 30.0213 98.0967 30.3878 98.2884 30.8097C98.4844 31.2315 98.5846 31.7152 98.5888 32.2607C98.5846 33.0618 98.38 33.7564 97.9752 34.3445C97.5746 34.9283 96.9951 35.3821 96.2366 35.706C95.4823 36.0256 94.5725 36.1854 93.5072 36.1854C92.4503 36.1854 91.5299 36.0234 90.7458 35.6996C89.966 35.3757 89.3566 34.8963 88.9177 34.2614C88.483 33.6222 88.255 32.8317 88.2337 31.8899H90.912C90.9418 32.3288 91.0675 32.6953 91.2891 32.9893C91.515 33.2791 91.8154 33.4986 92.1904 33.6477C92.5697 33.7926 92.9979 33.8651 93.4752 33.8651C93.944 33.8651 94.3509 33.7969 94.6961 33.6605C95.0455 33.5241 95.3161 33.3345 95.5079 33.0916C95.6996 32.8487 95.7955 32.5696 95.7955 32.2543C95.7955 31.9602 95.7082 31.7131 95.5334 31.5128C95.363 31.3125 95.1116 31.142 94.7792 31.0014C94.4511 30.8608 94.0484 30.733 93.5711 30.6179L92.1457 30.2599C91.042 29.9915 90.1705 29.5717 89.5313 29.0007C88.8921 28.4297 88.5746 27.6605 88.5789 26.6932C88.5746 25.9006 88.7856 25.2081 89.2117 24.6158C89.6421 24.0234 90.2323 23.5611 90.9823 23.2287C91.7323 22.8963 92.5846 22.7301 93.5391 22.7301C94.5107 22.7301 95.3587 22.8963 96.0832 23.2287C96.8119 23.5611 97.3786 24.0234 97.7834 24.6158C98.1883 25.2081 98.3971 25.8942 98.4099 26.674H95.7572ZM105.82 26.1818V28.2273H99.907V26.1818H105.82ZM101.249 23.8295H103.972V32.983C103.972 33.2344 104.011 33.4304 104.087 33.571C104.164 33.7074 104.271 33.8033 104.407 33.8587C104.548 33.9141 104.71 33.9418 104.893 33.9418C105.021 33.9418 105.149 33.9311 105.276 33.9098C105.404 33.8842 105.502 33.8651 105.57 33.8523L105.999 35.8786C105.862 35.9212 105.671 35.9702 105.423 36.0256C105.176 36.0852 104.876 36.1214 104.522 36.1342C103.866 36.1598 103.291 36.0724 102.796 35.8722C102.306 35.6719 101.925 35.3608 101.652 34.9389C101.379 34.517 101.245 33.9844 101.249 33.3409V23.8295ZM110.591 36.1854C109.965 36.1854 109.407 36.0767 108.916 35.8594C108.426 35.6378 108.039 35.3118 107.753 34.8814C107.472 34.4467 107.331 33.9055 107.331 33.2578C107.331 32.7124 107.431 32.2543 107.632 31.8835C107.832 31.5128 108.105 31.2145 108.45 30.9886C108.795 30.7628 109.187 30.5923 109.626 30.4773C110.069 30.3622 110.534 30.2812 111.019 30.2344C111.59 30.1747 112.051 30.1193 112.4 30.0682C112.75 30.0128 113.003 29.9318 113.161 29.8253C113.318 29.7187 113.397 29.5611 113.397 29.3523V29.3139C113.397 28.9091 113.269 28.5959 113.014 28.3743C112.762 28.1527 112.404 28.0419 111.94 28.0419C111.45 28.0419 111.06 28.1506 110.77 28.3679C110.48 28.581 110.289 28.8494 110.195 29.1733L107.676 28.9688C107.804 28.3722 108.056 27.8565 108.431 27.4219C108.806 26.983 109.289 26.6463 109.882 26.4119C110.478 26.1733 111.169 26.054 111.953 26.054C112.498 26.054 113.02 26.1179 113.519 26.2457C114.022 26.3736 114.467 26.5717 114.855 26.8402C115.247 27.1087 115.556 27.4538 115.782 27.8757C116.007 28.2933 116.12 28.794 116.12 29.3778V36H113.538V34.6385H113.461C113.304 34.9453 113.093 35.2159 112.828 35.4503C112.564 35.6804 112.247 35.8615 111.876 35.9936C111.505 36.1214 111.077 36.1854 110.591 36.1854ZM111.371 34.3061C111.772 34.3061 112.125 34.2273 112.432 34.0696C112.739 33.9077 112.98 33.6903 113.154 33.4176C113.329 33.1449 113.416 32.8359 113.416 32.4908V31.4489C113.331 31.5043 113.214 31.5554 113.065 31.6023C112.92 31.6449 112.756 31.6854 112.573 31.7237C112.389 31.7578 112.206 31.7898 112.023 31.8196C111.84 31.8452 111.674 31.8686 111.524 31.8899C111.205 31.9368 110.926 32.0114 110.687 32.1136C110.448 32.2159 110.263 32.3544 110.131 32.5291C109.999 32.6996 109.933 32.9126 109.933 33.1683C109.933 33.5391 110.067 33.8224 110.336 34.0185C110.608 34.2102 110.953 34.3061 111.371 34.3061ZM118.431 36V26.1818H121.071V27.8949H121.173C121.352 27.2855 121.652 26.8253 122.074 26.5142C122.496 26.1989 122.982 26.0412 123.532 26.0412C123.668 26.0412 123.815 26.0497 123.973 26.0668C124.13 26.0838 124.269 26.1072 124.388 26.1371V28.5533C124.26 28.5149 124.084 28.4808 123.858 28.451C123.632 28.4212 123.425 28.4062 123.238 28.4062C122.837 28.4062 122.479 28.4936 122.164 28.6683C121.853 28.8388 121.606 29.0774 121.422 29.3842C121.243 29.6911 121.154 30.0447 121.154 30.4453V36H118.431ZM131.709 26.1818V28.2273H125.796V26.1818H131.709ZM127.138 23.8295H129.861V32.983C129.861 33.2344 129.9 33.4304 129.976 33.571C130.053 33.7074 130.16 33.8033 130.296 33.8587C130.437 33.9141 130.599 33.9418 130.782 33.9418C130.91 33.9418 131.037 33.9311 131.165 33.9098C131.293 33.8842 131.391 33.8651 131.459 33.8523L131.888 35.8786C131.751 35.9212 131.559 35.9702 131.312 36.0256C131.065 36.0852 130.765 36.1214 130.411 36.1342C129.755 36.1598 129.179 36.0724 128.685 35.8722C128.195 35.6719 127.814 35.3608 127.541 34.9389C127.268 34.517 127.134 33.9844 127.138 33.3409V23.8295ZM138.049 36.1918C137.039 36.1918 136.17 35.9872 135.441 35.5781C134.717 35.1648 134.159 34.581 133.767 33.8267C133.375 33.0682 133.179 32.1712 133.179 31.1357C133.179 30.1257 133.375 29.2393 133.767 28.4766C134.159 27.7138 134.711 27.1193 135.422 26.6932C136.138 26.267 136.978 26.054 137.941 26.054C138.588 26.054 139.191 26.1584 139.75 26.3672C140.312 26.5717 140.802 26.8807 141.22 27.294C141.642 27.7074 141.97 28.2273 142.204 28.8537C142.439 29.4759 142.556 30.2045 142.556 31.0398V31.7876H134.265V30.1001H139.993C139.993 29.7081 139.907 29.3608 139.737 29.0582C139.566 28.7557 139.33 28.5192 139.027 28.3487C138.729 28.174 138.382 28.0866 137.985 28.0866C137.572 28.0866 137.206 28.1825 136.886 28.3743C136.571 28.5618 136.324 28.8153 136.145 29.1349C135.966 29.4503 135.874 29.8018 135.87 30.1896V31.794C135.87 32.2798 135.959 32.6996 136.138 33.0533C136.321 33.407 136.579 33.6797 136.912 33.8714C137.244 34.0632 137.638 34.1591 138.094 34.1591C138.397 34.1591 138.674 34.1165 138.925 34.0312C139.176 33.946 139.392 33.8182 139.571 33.6477C139.75 33.4773 139.886 33.2685 139.98 33.0213L142.498 33.1875C142.37 33.7926 142.108 34.321 141.712 34.7727C141.32 35.2202 140.813 35.5696 140.191 35.821C139.573 36.0682 138.859 36.1918 138.049 36.1918ZM148.149 36.1598C147.403 36.1598 146.727 35.968 146.122 35.5845C145.522 35.1967 145.044 34.6278 144.691 33.8778C144.341 33.1236 144.166 32.1989 144.166 31.1037C144.166 29.9787 144.348 29.0433 144.71 28.2976C145.072 27.5476 145.553 26.9872 146.154 26.6165C146.759 26.2415 147.422 26.054 148.142 26.054C148.692 26.054 149.15 26.1477 149.517 26.3352C149.887 26.5185 150.186 26.7486 150.411 27.0256C150.642 27.2983 150.816 27.5668 150.936 27.831H151.019V22.9091H153.735V36H151.051V34.4276H150.936C150.808 34.7003 150.627 34.9709 150.392 35.2393C150.162 35.5036 149.862 35.723 149.491 35.8977C149.125 36.0724 148.677 36.1598 148.149 36.1598ZM149.012 33.9929C149.45 33.9929 149.821 33.8736 150.124 33.6349C150.431 33.392 150.665 33.0533 150.827 32.6186C150.993 32.1839 151.076 31.6747 151.076 31.0909C151.076 30.5071 150.995 30 150.833 29.5696C150.671 29.1392 150.437 28.8068 150.13 28.5724C149.823 28.3381 149.45 28.2209 149.012 28.2209C148.564 28.2209 148.187 28.3423 147.88 28.5852C147.573 28.8281 147.341 29.1648 147.183 29.5952C147.026 30.0256 146.947 30.5241 146.947 31.0909C146.947 31.6619 147.026 32.1669 147.183 32.6058C147.345 33.0405 147.578 33.3814 147.88 33.6286C148.187 33.8714 148.564 33.9929 149.012 33.9929Z" fill="white"/>
<defs>
<linearGradient id="paint0_linear_1_1056" x1="0" y1="0" x2="125.075" y2="133.703" gradientUnits="userSpaceOnUse">
<stop stop-color="#2272FF"/>
<stop offset="1" stop-color="#0D03C3"/>
</linearGradient>
</defs>
</svg>
