<svg width="215" height="68" viewBox="0 0 215 68" fill="none" xmlns="http://www.w3.org/2000/svg">
<rect width="215" height="68" rx="34" fill="url(#paint0_linear_1_986)"/>
<path d="M50.9091 31.1562C50.8097 30.8106 50.67 30.5052 50.4901 30.2401C50.3101 29.9702 50.09 29.7429 49.8295 29.5582C49.5739 29.3688 49.2803 29.2244 48.9489 29.125C48.6222 29.0256 48.2599 28.9759 47.8622 28.9759C47.1188 28.9759 46.4654 29.1605 45.902 29.5298C45.3433 29.8991 44.9077 30.4366 44.5952 31.142C44.2827 31.8428 44.1264 32.6998 44.1264 33.7131C44.1264 34.7263 44.2803 35.5881 44.5881 36.2983C44.8958 37.0085 45.3314 37.5507 45.8949 37.9247C46.4583 38.294 47.1236 38.4787 47.8906 38.4787C48.5866 38.4787 49.1809 38.3556 49.6733 38.1094C50.1705 37.8584 50.5492 37.5057 50.8097 37.0511C51.0748 36.5966 51.2074 36.0592 51.2074 35.4389L51.8324 35.5312H48.0824V33.2159H54.169V35.0483C54.169 36.3267 53.8991 37.4252 53.3594 38.3438C52.8196 39.2576 52.0762 39.9631 51.1293 40.4602C50.1823 40.9527 49.098 41.1989 47.8764 41.1989C46.5128 41.1989 45.3149 40.8982 44.2827 40.2969C43.2505 39.6908 42.4455 38.8314 41.8679 37.7188C41.295 36.6013 41.0085 35.2756 41.0085 33.7415C41.0085 32.5625 41.179 31.5114 41.5199 30.5881C41.8655 29.66 42.3485 28.8741 42.9688 28.2301C43.589 27.5862 44.3111 27.0961 45.1349 26.7599C45.9588 26.4238 46.8513 26.2557 47.8125 26.2557C48.6364 26.2557 49.4034 26.3764 50.1136 26.6179C50.8239 26.8546 51.4536 27.1908 52.0028 27.6264C52.5568 28.062 53.009 28.5805 53.3594 29.1818C53.7098 29.7784 53.9347 30.4366 54.0341 31.1562H50.9091ZM56.079 41V26.4545H65.8802V28.9901H59.1543V32.456H65.3759V34.9915H59.1543V38.4645H65.9086V41H56.079ZM67.3712 28.9901V26.4545H79.3172V28.9901H74.8641V41H71.8243V28.9901H67.3712ZM93.0041 30.6378C92.9472 30.0649 92.7034 29.6198 92.2725 29.3026C91.8416 28.9853 91.2569 28.8267 90.5183 28.8267C90.0164 28.8267 89.5926 28.8977 89.2469 29.0398C88.9013 29.1771 88.6362 29.3688 88.4515 29.6151C88.2716 29.8613 88.1816 30.1406 88.1816 30.4531C88.1721 30.7135 88.2266 30.9408 88.345 31.1349C88.4681 31.3291 88.6362 31.4972 88.8492 31.6392C89.0623 31.7765 89.3085 31.8973 89.5879 32.0014C89.8672 32.1009 90.1655 32.1861 90.4827 32.2571L91.7896 32.5696C92.424 32.7116 93.0064 32.901 93.5367 33.1378C94.067 33.3745 94.5263 33.6657 94.9146 34.0114C95.3028 34.357 95.6035 34.7642 95.8166 35.233C96.0344 35.7017 96.1456 36.2391 96.1504 36.8452C96.1456 37.7353 95.9183 38.5071 95.4685 39.1605C95.0235 39.8092 94.3795 40.3134 93.5367 40.6733C92.6987 41.0284 91.6878 41.206 90.5041 41.206C89.3298 41.206 88.3071 41.026 87.4359 40.6662C86.5694 40.3063 85.8923 39.7737 85.4046 39.0682C84.9217 38.358 84.6683 37.4796 84.6447 36.4332H87.6205C87.6537 36.9209 87.7933 37.3281 88.0396 37.6548C88.2905 37.9768 88.6243 38.2206 89.041 38.3864C89.4624 38.5473 89.9382 38.6278 90.4685 38.6278C90.9894 38.6278 91.4415 38.5521 91.8251 38.4006C92.2133 38.2491 92.514 38.0384 92.7271 37.7685C92.9401 37.4986 93.0467 37.1884 93.0467 36.8381C93.0467 36.5114 92.9496 36.2367 92.7555 36.0142C92.5661 35.7917 92.2867 35.6023 91.9174 35.446C91.5528 35.2898 91.1054 35.1477 90.5751 35.0199L88.9913 34.6222C87.7649 34.3239 86.7967 33.8575 86.0864 33.223C85.3762 32.5885 85.0235 31.7339 85.0282 30.6591C85.0235 29.7784 85.2578 29.009 85.7313 28.3509C86.2095 27.6927 86.8653 27.179 87.6987 26.8097C88.532 26.4403 89.479 26.2557 90.5396 26.2557C91.6191 26.2557 92.5613 26.4403 93.3663 26.8097C94.1759 27.179 94.8057 27.6927 95.2555 28.3509C95.7053 29.009 95.9373 29.7713 95.9515 30.6378H93.0041ZM97.2649 28.9901V26.4545H109.211V28.9901H104.758V41H101.718V28.9901H97.2649ZM111.508 41H108.213L113.234 26.4545H117.197L122.211 41H118.916L115.272 29.7784H115.159L111.508 41ZM111.302 35.2827H119.086V37.6832H111.302V35.2827ZM123.562 41V26.4545H129.3C130.399 26.4545 131.336 26.651 132.113 27.044C132.894 27.4323 133.488 27.9839 133.896 28.6989C134.308 29.4091 134.514 30.2448 134.514 31.206C134.514 32.1719 134.305 33.0028 133.889 33.6989C133.472 34.3902 132.868 34.9205 132.077 35.2898C131.291 35.6591 130.34 35.8438 129.222 35.8438H125.38V33.3722H128.725C129.312 33.3722 129.8 33.2917 130.188 33.1307C130.577 32.9697 130.865 32.7282 131.055 32.4062C131.249 32.0843 131.346 31.6842 131.346 31.206C131.346 30.723 131.249 30.3158 131.055 29.9844C130.865 29.6529 130.574 29.402 130.181 29.2315C129.793 29.0563 129.303 28.9688 128.711 28.9688H126.637V41H123.562ZM131.417 34.3807L135.032 41H131.637L128.1 34.3807H131.417ZM135.733 28.9901V26.4545H147.679V28.9901H143.226V41H140.186V28.9901H135.733ZM149.246 41V26.4545H159.047V28.9901H152.322V32.456H158.543V34.9915H152.322V38.4645H159.076V41H149.246ZM166.249 41H161.092V26.4545H166.291C167.754 26.4545 169.014 26.7457 170.07 27.3281C171.125 27.9058 171.938 28.7367 172.506 29.821C173.079 30.9053 173.365 32.2027 173.365 33.7131C173.365 35.2282 173.079 36.5303 172.506 37.6193C171.938 38.7083 171.121 39.544 170.055 40.1264C168.995 40.7088 167.726 41 166.249 41ZM164.168 38.3651H166.121C167.03 38.3651 167.795 38.2041 168.415 37.8821C169.04 37.5554 169.509 37.0511 169.821 36.3693C170.138 35.6828 170.297 34.7973 170.297 33.7131C170.297 32.6383 170.138 31.7599 169.821 31.0781C169.509 30.3963 169.042 29.8944 168.422 29.5724C167.802 29.2505 167.037 29.0895 166.128 29.0895H164.168V38.3651Z" fill="white"/>
<defs>
<linearGradient id="paint0_linear_1_986" x1="0" y1="0" x2="146.786" y2="139.683" gradientUnits="userSpaceOnUse">
<stop stop-color="#2272FF"/>
<stop offset="1" stop-color="#0D03C3"/>
</linearGradient>
</defs>
</svg>
