<svg width="125" height="69" viewBox="0 0 125 69" fill="none" xmlns="http://www.w3.org/2000/svg">
<path d="M65.0005 28.112L65.9607 26.9596L65.8523 26.8693L65.7289 26.8007L65.0005 28.112ZM33.0005 57.6118L32.0914 58.805L32.139 58.8412L32.1893 58.8736L33.0005 57.6118ZM47 31.6118L45.507 31.7563L45.5115 31.8027L45.5188 31.8488L47 31.6118ZM4.58047 28.5967C4.84817 29.3807 5.70073 29.7992 6.48471 29.5315L19.2604 25.1691C20.0444 24.9014 20.463 24.0488 20.1953 23.2648C19.9276 22.4808 19.075 22.0623 18.291 22.33L6.93481 26.2077L3.0571 14.8515C2.7894 14.0675 1.93684 13.649 1.15286 13.9167C0.368878 14.1844 -0.0496516 15.037 0.218049 15.8209L4.58047 28.5967ZM63.7722 68.8982C67.8982 66.4226 73.1222 59.9436 75.0203 52.1546C76.9563 44.2104 75.4383 34.8576 65.9607 26.9596L64.0402 29.2643C72.5626 36.3663 73.7946 44.5135 72.1056 51.4443C70.3788 58.5303 65.6027 64.3013 62.2287 66.3257L63.7722 68.8982ZM65.7289 26.8007C60.681 23.9963 48.0431 21.948 35.9398 34.0513L38.0611 36.1726C49.1579 25.0759 60.3199 27.2276 64.272 29.4232L65.7289 26.8007ZM35.9398 34.0513C29.9604 40.0307 27.8238 45.3502 27.838 49.7168C27.8521 54.0703 30.0081 57.2177 32.0914 58.805L33.9095 56.4187C32.4928 55.3393 30.8488 53.0368 30.8379 49.707C30.8272 46.3903 32.4405 41.7932 38.0611 36.1726L35.9398 34.0513ZM32.1893 58.8736C33.3361 59.6108 34.5757 59.9113 35.8344 59.7927C37.0689 59.6764 38.2294 59.1669 39.2787 58.4369C41.3542 56.993 43.2112 54.5384 44.7044 51.6818C47.693 45.9644 49.5432 38.0128 48.4812 31.3748L45.5188 31.8488C46.4568 37.7111 44.807 45.0094 42.0457 50.292C40.664 52.9354 39.0835 54.9182 37.5655 55.9743C36.8179 56.4943 36.1426 56.7504 35.553 56.8059C34.9875 56.8592 34.4147 56.7378 33.8116 56.3501L32.1893 58.8736ZM48.493 31.4673C47.676 23.0245 40.2989 14.8149 31.4092 12.2939C26.904 11.0163 21.9523 11.1782 17.2217 13.535C12.4999 15.8875 8.13603 20.3569 4.6535 27.4509L7.3465 28.773C10.614 22.117 14.5626 18.2115 18.5595 16.2202C22.5477 14.2333 26.721 14.0827 30.5908 15.1801C38.4511 17.4091 44.824 24.6994 45.507 31.7563L48.493 31.4673Z" fill="#0F0BC7"/>
<path d="M61.338 9.18C60.746 9.18 60.206 9.076 59.718 8.868C59.23 8.66 58.81 8.362 58.458 7.974C58.106 7.582 57.834 7.11 57.642 6.558C57.454 6.002 57.36 5.376 57.36 4.68C57.36 3.76 57.524 2.964 57.852 2.292C58.18 1.62 58.642 1.102 59.238 0.737999C59.834 0.369999 60.534 0.185999 61.338 0.185999C62.306 0.185999 63.086 0.411999 63.678 0.864C64.27 1.312 64.678 1.926 64.902 2.706L63.822 2.928C63.642 2.404 63.346 1.986 62.934 1.674C62.522 1.362 62.008 1.206 61.392 1.206C60.748 1.202 60.212 1.346 59.784 1.638C59.36 1.926 59.04 2.332 58.824 2.856C58.608 3.38 58.498 3.988 58.494 4.68C58.49 5.368 58.596 5.972 58.812 6.492C59.028 7.012 59.35 7.42 59.778 7.716C60.21 8.008 60.748 8.156 61.392 8.16C61.948 8.164 62.416 8.058 62.796 7.842C63.176 7.626 63.47 7.314 63.678 6.906C63.886 6.498 64.012 6.008 64.056 5.436H62.22V4.554H65.184C65.196 4.634 65.202 4.73 65.202 4.842C65.206 4.95 65.208 5.024 65.208 5.064C65.208 5.852 65.06 6.558 64.764 7.182C64.472 7.802 64.038 8.29 63.462 8.646C62.89 9.002 62.182 9.18 61.338 9.18ZM68.8044 9.18C68.1684 9.18 67.6124 9.04 67.1364 8.76C66.6644 8.476 66.2964 8.082 66.0324 7.578C65.7684 7.07 65.6364 6.478 65.6364 5.802C65.6364 5.094 65.7664 4.482 66.0264 3.966C66.2864 3.446 66.6484 3.046 67.1124 2.766C67.5804 2.482 68.1284 2.34 68.7564 2.34C69.4084 2.34 69.9624 2.49 70.4184 2.79C70.8784 3.09 71.2224 3.518 71.4504 4.074C71.6824 4.63 71.7824 5.292 71.7504 6.06H70.6704V5.676C70.6584 4.88 70.4964 4.286 70.1844 3.894C69.8724 3.498 69.4084 3.3 68.7924 3.3C68.1324 3.3 67.6304 3.512 67.2864 3.936C66.9424 4.36 66.7704 4.968 66.7704 5.76C66.7704 6.524 66.9424 7.116 67.2864 7.536C67.6304 7.956 68.1204 8.166 68.7564 8.166C69.1844 8.166 69.5564 8.068 69.8724 7.872C70.1884 7.676 70.4364 7.394 70.6164 7.026L71.6424 7.38C71.3904 7.952 71.0104 8.396 70.5024 8.712C69.9984 9.024 69.4324 9.18 68.8044 9.18ZM66.4104 6.06V5.202H71.1984V6.06H66.4104ZM76.2943 9C75.9103 9.076 75.5303 9.106 75.1543 9.09C74.7823 9.078 74.4503 9.004 74.1583 8.868C73.8663 8.728 73.6443 8.512 73.4923 8.22C73.3643 7.964 73.2943 7.706 73.2823 7.446C73.2743 7.182 73.2703 6.884 73.2703 6.552V0.719999H74.3383V6.504C74.3383 6.768 74.3403 6.994 74.3443 7.182C74.3523 7.37 74.3943 7.532 74.4703 7.668C74.6143 7.924 74.8423 8.074 75.1543 8.118C75.4703 8.162 75.8503 8.15 76.2943 8.082V9ZM71.9563 3.402V2.52H76.2943V3.402H71.9563ZM78.9522 8.994L78.9582 8.034L82.7922 4.584C83.1122 4.296 83.3262 4.024 83.4342 3.768C83.5462 3.508 83.6022 3.242 83.6022 2.97C83.6022 2.638 83.5262 2.338 83.3742 2.07C83.2222 1.802 83.0142 1.59 82.7502 1.434C82.4902 1.278 82.1942 1.2 81.8622 1.2C81.5182 1.2 81.2122 1.282 80.9442 1.446C80.6762 1.606 80.4642 1.82 80.3082 2.088C80.1562 2.356 80.0822 2.648 80.0862 2.964H78.9942C78.9942 2.42 79.1202 1.94 79.3722 1.524C79.6242 1.104 79.9662 0.776 80.3982 0.539999C80.8342 0.3 81.3282 0.18 81.8802 0.18C82.4162 0.18 82.8962 0.304 83.3202 0.551999C83.7442 0.795999 84.0782 1.13 84.3222 1.554C84.5702 1.974 84.6942 2.45 84.6942 2.982C84.6942 3.358 84.6462 3.684 84.5502 3.96C84.4582 4.236 84.3142 4.492 84.1182 4.728C83.9222 4.96 83.6762 5.208 83.3802 5.472L80.1942 8.334L80.0562 7.974H84.6942V8.994H78.9522ZM88.6357 9.18C88.0757 9.18 87.5757 9.054 87.1357 8.802C86.6997 8.546 86.3537 8.2 86.0977 7.764C85.8457 7.324 85.7197 6.824 85.7197 6.264V3.096C85.7197 2.536 85.8457 2.036 86.0977 1.596C86.3537 1.156 86.6997 0.809999 87.1357 0.558C87.5757 0.306 88.0757 0.18 88.6357 0.18C89.1957 0.18 89.6957 0.306 90.1357 0.558C90.5757 0.809999 90.9217 1.156 91.1737 1.596C91.4257 2.036 91.5517 2.536 91.5517 3.096V6.264C91.5517 6.824 91.4257 7.324 91.1737 7.764C90.9217 8.2 90.5757 8.546 90.1357 8.802C89.6957 9.054 89.1957 9.18 88.6357 9.18ZM88.6357 8.154C88.9757 8.154 89.2837 8.072 89.5597 7.908C89.8357 7.744 90.0557 7.524 90.2197 7.248C90.3837 6.968 90.4657 6.66 90.4657 6.324V3.03C90.4657 2.69 90.3837 2.382 90.2197 2.106C90.0557 1.83 89.8357 1.61 89.5597 1.446C89.2837 1.282 88.9757 1.2 88.6357 1.2C88.2997 1.2 87.9917 1.282 87.7117 1.446C87.4357 1.61 87.2157 1.83 87.0517 2.106C86.8877 2.382 86.8057 2.69 86.8057 3.03V6.324C86.8057 6.66 86.8877 6.968 87.0517 7.248C87.2157 7.524 87.4357 7.744 87.7117 7.908C87.9917 8.072 88.2997 8.154 88.6357 8.154ZM93.7814 9L93.0614 8.28L100.993 0.36L101.713 1.08L93.7814 9ZM99.9134 9.18C99.5174 9.18 99.1554 9.084 98.8274 8.892C98.5034 8.696 98.2434 8.436 98.0474 8.112C97.8514 7.784 97.7534 7.42 97.7534 7.02C97.7534 6.628 97.8534 6.268 98.0534 5.94C98.2534 5.612 98.5174 5.35 98.8454 5.154C99.1734 4.958 99.5294 4.86 99.9134 4.86C100.309 4.86 100.671 4.958 100.999 5.154C101.327 5.346 101.587 5.606 101.779 5.934C101.975 6.258 102.073 6.62 102.073 7.02C102.073 7.42 101.975 7.784 101.779 8.112C101.587 8.436 101.327 8.696 100.999 8.892C100.671 9.084 100.309 9.18 99.9134 9.18ZM99.9134 8.238C100.133 8.238 100.335 8.182 100.519 8.07C100.707 7.958 100.855 7.81 100.963 7.626C101.075 7.442 101.131 7.24 101.131 7.02C101.131 6.8 101.075 6.598 100.963 6.414C100.855 6.226 100.707 6.078 100.519 5.97C100.335 5.858 100.133 5.802 99.9134 5.802C99.6934 5.802 99.4914 5.858 99.3074 5.97C99.1234 6.078 98.9754 6.226 98.8634 6.414C98.7514 6.598 98.6954 6.8 98.6954 7.02C98.6954 7.24 98.7514 7.442 98.8634 7.626C98.9754 7.81 99.1234 7.958 99.3074 8.07C99.4914 8.182 99.6934 8.238 99.9134 8.238ZM94.8614 4.5C94.4654 4.5 94.1034 4.404 93.7754 4.212C93.4474 4.016 93.1854 3.756 92.9894 3.432C92.7974 3.104 92.7014 2.74 92.7014 2.34C92.7014 1.948 92.8014 1.588 93.0014 1.26C93.2014 0.931999 93.4654 0.669999 93.7934 0.473999C94.1214 0.278 94.4774 0.18 94.8614 0.18C95.2574 0.18 95.6174 0.278 95.9414 0.473999C96.2694 0.666 96.5314 0.926 96.7274 1.254C96.9234 1.578 97.0214 1.94 97.0214 2.34C97.0214 2.74 96.9234 3.104 96.7274 3.432C96.5314 3.756 96.2694 4.016 95.9414 4.212C95.6174 4.404 95.2574 4.5 94.8614 4.5ZM94.8614 3.558C95.0814 3.558 95.2834 3.502 95.4674 3.39C95.6554 3.278 95.8034 3.13 95.9114 2.946C96.0234 2.762 96.0794 2.56 96.0794 2.34C96.0794 2.12 96.0234 1.918 95.9114 1.734C95.8034 1.546 95.6554 1.398 95.4674 1.29C95.2834 1.178 95.0814 1.122 94.8614 1.122C94.6414 1.122 94.4394 1.178 94.2554 1.29C94.0714 1.398 93.9234 1.546 93.8114 1.734C93.6994 1.918 93.6434 2.12 93.6434 2.34C93.6434 2.56 93.6994 2.762 93.8114 2.946C93.9234 3.13 94.0714 3.278 94.2554 3.39C94.4394 3.502 94.6414 3.558 94.8614 3.558ZM108.772 9.18C107.912 9.18 107.182 8.99 106.582 8.61C105.982 8.23 105.524 7.702 105.208 7.026C104.896 6.35 104.74 5.568 104.74 4.68C104.74 3.792 104.896 3.01 105.208 2.334C105.524 1.658 105.982 1.13 106.582 0.749999C107.182 0.37 107.912 0.18 108.772 0.18C109.636 0.18 110.368 0.37 110.968 0.749999C111.568 1.13 112.024 1.658 112.336 2.334C112.648 3.01 112.804 3.792 112.804 4.68C112.804 5.568 112.648 6.35 112.336 7.026C112.024 7.702 111.568 8.23 110.968 8.61C110.368 8.99 109.636 9.18 108.772 9.18ZM108.772 8.16C109.416 8.164 109.952 8.02 110.38 7.728C110.812 7.432 111.134 7.022 111.346 6.498C111.562 5.974 111.67 5.368 111.67 4.68C111.67 3.988 111.562 3.382 111.346 2.862C111.134 2.342 110.812 1.936 110.38 1.644C109.952 1.352 109.416 1.204 108.772 1.2C108.128 1.196 107.592 1.34 107.164 1.632C106.74 1.924 106.42 2.332 106.204 2.856C105.988 3.38 105.878 3.988 105.874 4.68C105.87 5.368 105.976 5.972 106.192 6.492C106.408 7.012 106.73 7.42 107.158 7.716C107.59 8.008 108.128 8.156 108.772 8.16ZM113.599 9V0.36H118.639V1.428H114.667V4.146H117.919V5.214H114.667V9H113.599ZM119.306 9V0.36H124.346V1.428H120.374V4.146H123.626V5.214H120.374V9H119.306Z" fill="black"/>
</svg>
