<svg width="123" height="42" viewBox="0 0 123 42" fill="none" xmlns="http://www.w3.org/2000/svg">
<rect width="123" height="42" rx="21" fill="white"/>
<path d="M38.4055 18.5078C38.3459 17.9496 38.0945 17.5149 37.6513 17.2038C37.2124 16.8928 36.6413 16.7372 35.9382 16.7372C35.4439 16.7372 35.0199 16.8118 34.6662 16.9609C34.3125 17.1101 34.0419 17.3125 33.8544 17.5682C33.6669 17.8239 33.571 18.1158 33.5668 18.4439C33.5668 18.7166 33.6286 18.9531 33.7521 19.1534C33.88 19.3537 34.0526 19.5241 34.2699 19.6648C34.4872 19.8011 34.728 19.9162 34.9922 20.0099C35.2564 20.1037 35.5227 20.1825 35.7912 20.2464L37.0185 20.5533C37.5128 20.6683 37.9879 20.8239 38.4439 21.0199C38.9041 21.2159 39.3153 21.4631 39.6776 21.7614C40.044 22.0597 40.3338 22.4197 40.5469 22.8416C40.7599 23.2635 40.8665 23.7578 40.8665 24.3246C40.8665 25.0916 40.6705 25.767 40.2784 26.3509C39.8864 26.9304 39.3196 27.3842 38.5781 27.7124C37.8409 28.0362 36.9482 28.1982 35.8999 28.1982C34.8814 28.1982 33.9972 28.0405 33.2472 27.7251C32.5014 27.4098 31.9176 26.9496 31.4957 26.3445C31.0781 25.7393 30.8523 25.0021 30.8182 24.1328H33.1513C33.1854 24.5888 33.326 24.968 33.5732 25.2706C33.8203 25.5732 34.142 25.799 34.5384 25.9482C34.9389 26.0973 35.3864 26.1719 35.8807 26.1719C36.3963 26.1719 36.848 26.0952 37.2358 25.9418C37.6278 25.7841 37.9347 25.5668 38.1562 25.2898C38.3778 25.0085 38.4908 24.6804 38.495 24.3054C38.4908 23.9645 38.3906 23.6832 38.1946 23.4616C37.9986 23.2358 37.7237 23.0483 37.37 22.8991C37.0206 22.7457 36.6115 22.6094 36.1428 22.4901L34.6534 22.1065C33.5753 21.8295 32.723 21.4098 32.0966 20.8473C31.4744 20.2805 31.1634 19.5284 31.1634 18.5909C31.1634 17.8196 31.3722 17.1442 31.7898 16.5646C32.2116 15.9851 32.7848 15.5355 33.5092 15.2159C34.2337 14.892 35.054 14.7301 35.9702 14.7301C36.8991 14.7301 37.7131 14.892 38.4119 15.2159C39.1151 15.5355 39.6669 15.9808 40.0675 16.5518C40.468 17.1186 40.6747 17.7706 40.6875 18.5078H38.4055ZM42.4704 28V18.1818H44.7843V28H42.4704ZM43.6337 16.7884C43.2672 16.7884 42.9519 16.6669 42.6877 16.424C42.4235 16.1768 42.2914 15.8807 42.2914 15.5355C42.2914 15.1861 42.4235 14.8899 42.6877 14.647C42.9519 14.3999 43.2672 14.2763 43.6337 14.2763C44.0045 14.2763 44.3198 14.3999 44.5797 14.647C44.844 14.8899 44.9761 15.1861 44.9761 15.5355C44.9761 15.8807 44.844 16.1768 44.5797 16.424C44.3198 16.6669 44.0045 16.7884 43.6337 16.7884ZM51.0256 31.8864C50.1947 31.8864 49.4809 31.7734 48.8843 31.5476C48.2877 31.326 47.8083 31.0277 47.4461 30.6527C47.0839 30.2777 46.8324 29.8622 46.6918 29.4062L48.7756 28.9013C48.8694 29.093 49.0057 29.2827 49.1847 29.4702C49.3637 29.6619 49.6045 29.8196 49.907 29.9432C50.2138 30.071 50.5995 30.1349 51.064 30.1349C51.7202 30.1349 52.2635 29.9751 52.6939 29.6555C53.1243 29.3402 53.3395 28.8203 53.3395 28.0959V26.2358H53.2245C53.1052 26.4744 52.9304 26.7195 52.7003 26.9709C52.4745 27.2223 52.1741 27.4332 51.7991 27.6037C51.4283 27.7741 50.9617 27.8594 50.3992 27.8594C49.6449 27.8594 48.961 27.6825 48.3474 27.3288C47.738 26.9709 47.2522 26.4382 46.89 25.7308C46.532 25.0192 46.353 24.1286 46.353 23.0589C46.353 21.9808 46.532 21.071 46.89 20.3295C47.2522 19.5838 47.7401 19.0192 48.3537 18.6357C48.9674 18.2479 49.6513 18.054 50.4056 18.054C50.9809 18.054 51.4539 18.152 51.8246 18.348C52.1996 18.5398 52.4979 18.772 52.7195 19.0447C52.9411 19.3132 53.1094 19.5668 53.2245 19.8054H53.3523V18.1818H55.6343V28.1598C55.6343 28.9993 55.434 29.6939 55.0334 30.2436C54.6329 30.7933 54.0853 31.2045 53.3907 31.4773C52.6961 31.75 51.9077 31.8864 51.0256 31.8864ZM51.0448 26.044C51.5349 26.044 51.9525 25.9247 52.2976 25.6861C52.6428 25.4474 52.9049 25.1044 53.0839 24.657C53.2628 24.2095 53.3523 23.6726 53.3523 23.0462C53.3523 22.4283 53.2628 21.8871 53.0839 21.4226C52.9091 20.9581 52.6492 20.598 52.304 20.3423C51.9631 20.0824 51.5434 19.9524 51.0448 19.9524C50.5292 19.9524 50.0988 20.0866 49.7536 20.3551C49.4084 20.6236 49.1485 20.9922 48.9738 21.4609C48.7991 21.9254 48.7117 22.4538 48.7117 23.0462C48.7117 23.647 48.7991 24.1733 48.9738 24.625C49.1528 25.0724 49.4148 25.4219 49.76 25.6733C50.1094 25.9205 50.5377 26.044 51.0448 26.044ZM59.9117 22.2472V28H57.5977V18.1818H59.8094V19.8501H59.9244C60.1503 19.3004 60.5104 18.8636 61.0047 18.5398C61.5033 18.2159 62.119 18.054 62.852 18.054C63.5296 18.054 64.1198 18.1989 64.6226 18.4886C65.1297 18.7784 65.5217 19.1982 65.7987 19.7479C66.08 20.2976 66.2185 20.9645 66.2142 21.7486V28H63.9003V22.1065C63.9003 21.4503 63.7298 20.9368 63.3889 20.5661C63.0523 20.1953 62.5857 20.0099 61.9891 20.0099C61.5842 20.0099 61.2242 20.0994 60.9088 20.2784C60.5977 20.4531 60.3527 20.7067 60.1737 21.0391C59.999 21.3714 59.9117 21.7741 59.9117 22.2472ZM78.4731 23.8707V18.1818H80.7871V28H78.5435V26.255H78.4412C78.2196 26.8047 77.8552 27.2543 77.3481 27.6037C76.8453 27.9531 76.2253 28.1278 75.4881 28.1278C74.8446 28.1278 74.2757 27.9851 73.7814 27.6996C73.2913 27.4098 72.9078 26.9901 72.6308 26.4403C72.3538 25.8864 72.2153 25.2173 72.2153 24.4332V18.1818H74.5292V24.0753C74.5292 24.6974 74.6997 25.1918 75.0406 25.5582C75.3815 25.9247 75.829 26.108 76.3829 26.108C76.7238 26.108 77.0541 26.0249 77.3737 25.8587C77.6933 25.6925 77.9554 25.4453 78.1599 25.1172C78.3687 24.7848 78.4731 24.3693 78.4731 23.8707ZM82.7585 31.6818V18.1818H85.0341V19.8054H85.1683C85.2876 19.5668 85.4559 19.3132 85.6733 19.0447C85.8906 18.772 86.1846 18.5398 86.5554 18.348C86.9261 18.152 87.3991 18.054 87.9744 18.054C88.7329 18.054 89.4169 18.2479 90.0263 18.6357C90.6399 19.0192 91.1257 19.5881 91.4836 20.3423C91.8459 21.0923 92.027 22.0128 92.027 23.1037C92.027 24.1818 91.8501 25.098 91.4964 25.8523C91.1427 26.6065 90.6612 27.1818 90.0518 27.5781C89.4424 27.9744 88.7521 28.1726 87.9808 28.1726C87.4183 28.1726 86.9517 28.0788 86.5809 27.8913C86.2102 27.7038 85.9119 27.478 85.6861 27.2138C85.4645 26.9453 85.2919 26.6918 85.1683 26.4531H85.0724V31.6818H82.7585ZM85.0277 23.0909C85.0277 23.7259 85.1172 24.282 85.2961 24.7592C85.4794 25.2365 85.7415 25.6094 86.0824 25.8778C86.4275 26.142 86.8451 26.2741 87.3352 26.2741C87.8466 26.2741 88.2748 26.1378 88.62 25.8651C88.9652 25.5881 89.2251 25.2109 89.3998 24.7337C89.5788 24.2521 89.6683 23.7045 89.6683 23.0909C89.6683 22.4815 89.5809 21.9403 89.4062 21.4673C89.2315 20.9943 88.9716 20.6236 88.6264 20.3551C88.2812 20.0866 87.8508 19.9524 87.3352 19.9524C86.8409 19.9524 86.4211 20.0824 86.076 20.3423C85.7308 20.6023 85.4687 20.9666 85.2898 21.4354C85.115 21.9041 85.0277 22.456 85.0277 23.0909Z" fill="black"/>
</svg>
