<svg width="97" height="17" viewBox="0 0 97 17" fill="none" xmlns="http://www.w3.org/2000/svg">
<path d="M8.49875 0.515088C8.58667 0.316933 8.86788 0.316933 8.95579 0.515089L10.975 5.06646C11.0124 5.15064 11.093 5.20747 11.1848 5.21437L16.3956 5.60601C16.6218 5.62301 16.7102 5.90821 16.5334 6.05023L12.5877 9.21886C12.5114 9.2802 12.4778 9.38049 12.502 9.47543L13.7116 14.2293C13.766 14.4432 13.5366 14.6176 13.345 14.5079L8.8515 11.9348C8.77455 11.8907 8.68 11.8907 8.60304 11.9348L4.1095 14.5079C3.91791 14.6176 3.68855 14.4432 3.74299 14.2293L4.95256 9.47543C4.97671 9.38049 4.94319 9.2802 4.86681 9.21886L0.921167 6.05023C0.744315 5.90821 0.832786 5.62301 1.05897 5.60601L6.26975 5.21437C6.36158 5.20747 6.44218 5.15064 6.47953 5.06646L8.49875 0.515088Z" fill="#0F0BC7"/>
<path d="M28.1355 0.515088C28.2234 0.316933 28.5046 0.316933 28.5925 0.515089L30.6117 5.06646C30.6491 5.15064 30.7297 5.20747 30.8215 5.21437L36.0323 5.60601C36.2585 5.62301 36.347 5.90821 36.1701 6.05023L32.2245 9.21886C32.1481 9.2802 32.1146 9.38049 32.1387 9.47543L33.3483 14.2293C33.4027 14.4432 33.1734 14.6176 32.9818 14.5079L28.4882 11.9348C28.4113 11.8907 28.3167 11.8907 28.2398 11.9348L23.7462 14.5079C23.5546 14.6176 23.3253 14.4432 23.3797 14.2293L24.5893 9.47543C24.6134 9.38049 24.5799 9.2802 24.5035 9.21886L20.5579 6.05023C20.381 5.90821 20.4695 5.62301 20.6957 5.60601L25.9065 5.21437C25.9983 5.20747 26.0789 5.15064 26.1162 5.06646L28.1355 0.515088Z" fill="#0F0BC7"/>
<path d="M47.7722 0.515088C47.8601 0.316933 48.1413 0.316933 48.2292 0.515089L50.2485 5.06646C50.2858 5.15064 50.3664 5.20747 50.4582 5.21437L55.669 5.60601C55.8952 5.62301 55.9837 5.90821 55.8068 6.05023L51.8612 9.21886C51.7848 9.2802 51.7513 9.38049 51.7754 9.47543L52.985 14.2293C53.0394 14.4432 52.8101 14.6176 52.6185 14.5079L48.1249 11.9348C48.048 11.8907 47.9534 11.8907 47.8765 11.9348L43.3829 14.5079C43.1913 14.6176 42.962 14.4432 43.0164 14.2293L44.226 9.47543C44.2501 9.38049 44.2166 9.2802 44.1403 9.21886L40.1946 6.05023C40.0178 5.90821 40.1062 5.62301 40.3324 5.60601L45.5432 5.21437C45.635 5.20747 45.7156 5.15064 45.753 5.06646L47.7722 0.515088Z" fill="#0F0BC7"/>
<path d="M67.4089 0.515088C67.4968 0.316933 67.778 0.316933 67.866 0.515089L69.8852 5.06646C69.9225 5.15064 70.0031 5.20747 70.095 5.21437L75.3057 5.60601C75.5319 5.62301 75.6204 5.90821 75.4435 6.05023L71.4979 9.21886C71.4215 9.2802 71.388 9.38049 71.4121 9.47543L72.6217 14.2293C72.6762 14.4432 72.4468 14.6176 72.2552 14.5079L67.7617 11.9348C67.6847 11.8907 67.5902 11.8907 67.5132 11.9348L63.0197 14.5079C62.8281 14.6176 62.5987 14.4432 62.6531 14.2293L63.8627 9.47543C63.8869 9.38049 63.8534 9.2802 63.777 9.21886L59.8313 6.05023C59.6545 5.90821 59.7429 5.62301 59.9691 5.60601L65.1799 5.21437C65.2717 5.20747 65.3523 5.15064 65.3897 5.06646L67.4089 0.515088Z" fill="#0F0BC7"/>
<path d="M87.0456 0.515088C87.1335 0.316933 87.4148 0.316933 87.5027 0.515089L89.5219 5.06646C89.5592 5.15064 89.6398 5.20747 89.7317 5.21437L94.9425 5.60601C95.1686 5.62301 95.2571 5.90821 95.0803 6.05023L91.1346 9.21886C91.0582 9.2802 91.0247 9.38049 91.0489 9.47543L92.2584 14.2293C92.3129 14.4432 92.0835 14.6176 91.8919 14.5079L87.3984 11.9348C87.3214 11.8907 87.2269 11.8907 87.1499 11.9348L82.6564 14.5079C82.4648 14.6176 82.2354 14.4432 82.2899 14.2293L83.4994 9.47543C83.5236 9.38049 83.4901 9.2802 83.4137 9.21886L79.468 6.05023C79.2912 5.90821 79.3797 5.62301 79.6058 5.60601L84.8166 5.21437C84.9085 5.20747 84.9891 5.15064 85.0264 5.06646L87.0456 0.515088Z" fill="#0F0BC7"/>
</svg>
