<svg width="171" height="54" viewBox="0 0 171 54" fill="none" xmlns="http://www.w3.org/2000/svg">
<rect width="171" height="54" rx="27" fill="url(#paint0_linear_1_975)"/>
<path d="M38.5781 24.348C38.5099 23.7429 38.2287 23.2741 37.7344 22.9418C37.2401 22.6051 36.6179 22.4368 35.8679 22.4368C35.331 22.4368 34.8665 22.522 34.4744 22.6925C34.0824 22.8587 33.7777 23.0888 33.5604 23.3828C33.3473 23.6726 33.2408 24.0028 33.2408 24.3736C33.2408 24.6847 33.3132 24.9531 33.4581 25.179C33.6072 25.4048 33.8011 25.5945 34.0398 25.7479C34.2827 25.897 34.5426 26.0227 34.8196 26.125C35.0966 26.223 35.3629 26.304 35.6186 26.3679L36.897 26.7003C37.3146 26.8026 37.7429 26.9411 38.1818 27.1158C38.6207 27.2905 39.0277 27.5206 39.4027 27.8061C39.7777 28.0916 40.0803 28.4453 40.3104 28.8672C40.5447 29.2891 40.6619 29.794 40.6619 30.3821C40.6619 31.1236 40.4702 31.782 40.0866 32.3572C39.7074 32.9325 39.1555 33.3864 38.4311 33.7188C37.7109 34.0511 36.8395 34.2173 35.8168 34.2173C34.8366 34.2173 33.9886 34.0618 33.2727 33.7507C32.5568 33.4396 31.9964 32.9986 31.5916 32.4276C31.1868 31.8523 30.9631 31.1705 30.9205 30.3821H32.902C32.9403 30.8551 33.0938 31.2493 33.3622 31.5646C33.6349 31.8757 33.9822 32.108 34.4041 32.2614C34.8303 32.4105 35.2969 32.4851 35.804 32.4851C36.3622 32.4851 36.8587 32.3977 37.2933 32.223C37.7322 32.044 38.0774 31.7969 38.3288 31.4815C38.5803 31.1619 38.706 30.7891 38.706 30.3629C38.706 29.9751 38.5952 29.6577 38.3736 29.4105C38.1563 29.1634 37.8601 28.9588 37.4851 28.7969C37.1143 28.6349 36.6946 28.4922 36.2259 28.3686L34.679 27.9467C33.6307 27.6612 32.7997 27.2415 32.1861 26.6875C31.5767 26.1335 31.272 25.4006 31.272 24.4886C31.272 23.7344 31.4766 23.076 31.8857 22.5135C32.2947 21.951 32.8487 21.5142 33.5476 21.2031C34.2464 20.8878 35.0348 20.7301 35.9126 20.7301C36.799 20.7301 37.581 20.8857 38.2585 21.1967C38.9403 21.5078 39.4773 21.9361 39.8693 22.4815C40.2614 23.0227 40.4659 23.6449 40.483 24.348H38.5781ZM47.4519 24.1818V25.7159H42.089V24.1818H47.4519ZM43.5272 21.8295H45.4384V31.1172C45.4384 31.4879 45.4938 31.767 45.6046 31.9545C45.7154 32.1378 45.8581 32.2635 46.0328 32.3317C46.2118 32.3956 46.4057 32.4276 46.6145 32.4276C46.7679 32.4276 46.9022 32.4169 47.0172 32.3956C47.1323 32.3743 47.2218 32.3572 47.2857 32.3445L47.6309 33.9233C47.5201 33.9659 47.3624 34.0085 47.1578 34.0511C46.9533 34.098 46.6976 34.1236 46.3908 34.1278C45.888 34.1364 45.4192 34.0469 44.9846 33.8594C44.5499 33.6719 44.1983 33.3821 43.9299 32.9901C43.6614 32.598 43.5272 32.1058 43.5272 31.5135V21.8295ZM52.4233 34.2173C51.8011 34.2173 51.2386 34.1023 50.7358 33.8722C50.233 33.6378 49.8345 33.299 49.5405 32.8558C49.2507 32.4126 49.1058 31.8693 49.1058 31.2259C49.1058 30.6719 49.2124 30.2159 49.4254 29.858C49.6385 29.5 49.9261 29.2166 50.2884 29.0078C50.6506 28.799 51.0554 28.6413 51.5028 28.5348C51.9503 28.4283 52.4063 28.3473 52.8707 28.2919C53.4588 28.2237 53.9361 28.1683 54.3026 28.1257C54.669 28.0788 54.9354 28.0043 55.1016 27.902C55.2678 27.7997 55.3509 27.6335 55.3509 27.4034V27.3587C55.3509 26.8004 55.1932 26.3679 54.8778 26.0611C54.5668 25.7543 54.1023 25.6009 53.4844 25.6009C52.8409 25.6009 52.3338 25.7436 51.9631 26.0291C51.5966 26.3104 51.343 26.6236 51.2024 26.9688L49.4062 26.5597C49.6193 25.9631 49.9304 25.4815 50.3395 25.1151C50.7528 24.7443 51.228 24.4759 51.7649 24.3097C52.3018 24.1392 52.8665 24.054 53.4588 24.054C53.8509 24.054 54.2663 24.1009 54.7053 24.1946C55.1484 24.2841 55.5618 24.4503 55.9453 24.6932C56.3331 24.9361 56.6506 25.2834 56.8977 25.7351C57.1449 26.1825 57.2685 26.7642 57.2685 27.4801V34H55.402V32.6577H55.3253C55.2017 32.9048 55.0163 33.1477 54.7692 33.3864C54.522 33.625 54.2045 33.8232 53.8168 33.9808C53.429 34.1385 52.9645 34.2173 52.4233 34.2173ZM52.8388 32.6832C53.3672 32.6832 53.8189 32.5788 54.1939 32.37C54.5732 32.1612 54.8608 31.8885 55.0568 31.5518C55.2571 31.2109 55.3572 30.8466 55.3572 30.4588V29.1932C55.2891 29.2614 55.157 29.3253 54.9609 29.3849C54.7692 29.4403 54.5497 29.4893 54.3026 29.532C54.0554 29.5703 53.8146 29.6065 53.5803 29.6406C53.3459 29.6705 53.1499 29.696 52.9922 29.7173C52.6214 29.7642 52.2827 29.843 51.9759 29.9538C51.6733 30.0646 51.4304 30.2244 51.2472 30.4332C51.0682 30.6378 50.9787 30.9105 50.9787 31.2514C50.9787 31.7244 51.1534 32.0824 51.5028 32.3253C51.8523 32.5639 52.2976 32.6832 52.8388 32.6832ZM59.8141 34V24.1818H61.6614V25.7415H61.7637C61.9426 25.2131 62.258 24.7976 62.7097 24.495C63.1657 24.1882 63.6813 24.0348 64.2566 24.0348C64.3759 24.0348 64.5165 24.0391 64.6784 24.0476C64.8446 24.0561 64.9746 24.0668 65.0684 24.0795V25.9077C64.9917 25.8864 64.8553 25.8629 64.6593 25.8374C64.4632 25.8075 64.2672 25.7926 64.0712 25.7926C63.6195 25.7926 63.2168 25.8885 62.8631 26.0803C62.5137 26.2678 62.2367 26.5298 62.0321 26.8665C61.8276 27.1989 61.7253 27.5781 61.7253 28.0043V34H59.8141ZM71.8855 24.1818V25.7159H66.5225V24.1818H71.8855ZM67.9608 21.8295H69.872V31.1172C69.872 31.4879 69.9274 31.767 70.0382 31.9545C70.149 32.1378 70.2917 32.2635 70.4664 32.3317C70.6454 32.3956 70.8393 32.4276 71.0481 32.4276C71.2015 32.4276 71.3358 32.4169 71.4508 32.3956C71.5659 32.3743 71.6554 32.3572 71.7193 32.3445L72.0645 33.9233C71.9537 33.9659 71.796 34.0085 71.5914 34.0511C71.3869 34.098 71.1312 34.1236 70.8244 34.1278C70.3216 34.1364 69.8528 34.0469 69.4181 33.8594C68.9835 33.6719 68.6319 33.3821 68.3635 32.9901C68.095 32.598 67.9608 32.1058 67.9608 31.5135V21.8295ZM83.4359 24.1818V25.7159H77.8876V24.1818H83.4359ZM79.4089 34V23.044C79.4089 22.4304 79.5431 21.9212 79.8116 21.5163C80.0801 21.1072 80.4359 20.8026 80.8791 20.6023C81.3223 20.3977 81.8038 20.2955 82.3237 20.2955C82.7072 20.2955 83.0353 20.3274 83.3081 20.3913C83.5808 20.451 83.7832 20.5064 83.9153 20.5575L83.4679 22.1044C83.3784 22.0788 83.2633 22.049 83.1227 22.0149C82.9821 21.9766 82.8116 21.9574 82.6113 21.9574C82.1468 21.9574 81.8145 22.0724 81.6142 22.3026C81.4181 22.5327 81.3201 22.8651 81.3201 23.2997V34H79.4089ZM89.1568 34.1982C88.2363 34.1982 87.4331 33.9872 86.747 33.5653C86.0609 33.1435 85.5282 32.5533 85.149 31.7947C84.7697 31.0362 84.5801 30.1499 84.5801 29.1357C84.5801 28.1172 84.7697 27.2266 85.149 26.4638C85.5282 25.701 86.0609 25.1087 86.747 24.6868C87.4331 24.2649 88.2363 24.054 89.1568 24.054C90.0772 24.054 90.8805 24.2649 91.5666 24.6868C92.2527 25.1087 92.7853 25.701 93.1646 26.4638C93.5439 27.2266 93.7335 28.1172 93.7335 29.1357C93.7335 30.1499 93.5439 31.0362 93.1646 31.7947C92.7853 32.5533 92.2527 33.1435 91.5666 33.5653C90.8805 33.9872 90.0772 34.1982 89.1568 34.1982ZM89.1632 32.5938C89.7598 32.5938 90.2541 32.4361 90.6461 32.1207C91.0382 31.8054 91.3279 31.3857 91.5154 30.8615C91.7072 30.3374 91.8031 29.7599 91.8031 29.1293C91.8031 28.5028 91.7072 27.9276 91.5154 27.4034C91.3279 26.875 91.0382 26.451 90.6461 26.1314C90.2541 25.8118 89.7598 25.652 89.1632 25.652C88.5623 25.652 88.0637 25.8118 87.6674 26.1314C87.2754 26.451 86.9835 26.875 86.7917 27.4034C86.6042 27.9276 86.5105 28.5028 86.5105 29.1293C86.5105 29.7599 86.6042 30.3374 86.7917 30.8615C86.9835 31.3857 87.2754 31.8054 87.6674 32.1207C88.0637 32.4361 88.5623 32.5938 89.1632 32.5938ZM95.8668 34V24.1818H97.7141V25.7415H97.8164C97.9954 25.2131 98.3107 24.7976 98.7624 24.495C99.2184 24.1882 99.734 24.0348 100.309 24.0348C100.429 24.0348 100.569 24.0391 100.731 24.0476C100.897 24.0561 101.027 24.0668 101.121 24.0795V25.9077C101.044 25.8864 100.908 25.8629 100.712 25.8374C100.516 25.8075 100.32 25.7926 100.124 25.7926C99.6722 25.7926 99.2695 25.8885 98.9158 26.0803C98.5664 26.2678 98.2894 26.5298 98.0849 26.8665C97.8803 27.1989 97.7781 27.5781 97.7781 28.0043V34H95.8668ZM112.211 24.1818V25.7159H106.663V24.1818H112.211ZM108.184 34V23.044C108.184 22.4304 108.319 21.9212 108.587 21.5163C108.855 21.1072 109.211 20.8026 109.654 20.6023C110.098 20.3977 110.579 20.2955 111.099 20.2955C111.483 20.2955 111.811 20.3274 112.083 20.3913C112.356 20.451 112.559 20.5064 112.691 20.5575L112.243 22.1044C112.154 22.0788 112.039 22.049 111.898 22.0149C111.757 21.9766 111.587 21.9574 111.387 21.9574C110.922 21.9574 110.59 22.0724 110.39 22.3026C110.194 22.5327 110.096 22.8651 110.096 23.2997V34H108.184ZM114.183 34V24.1818H116.031V25.7415H116.133C116.312 25.2131 116.627 24.7976 117.079 24.495C117.535 24.1882 118.05 24.0348 118.626 24.0348C118.745 24.0348 118.886 24.0391 119.048 24.0476C119.214 24.0561 119.344 24.0668 119.438 24.0795V25.9077C119.361 25.8864 119.224 25.8629 119.028 25.8374C118.832 25.8075 118.636 25.7926 118.44 25.7926C117.989 25.7926 117.586 25.8885 117.232 26.0803C116.883 26.2678 116.606 26.5298 116.401 26.8665C116.197 27.1989 116.094 27.5781 116.094 28.0043V34H114.183ZM124.971 34.1982C124.004 34.1982 123.171 33.9915 122.472 33.5781C121.778 33.1605 121.241 32.5746 120.861 31.8203C120.486 31.0618 120.299 30.1733 120.299 29.1548C120.299 28.1491 120.486 27.2628 120.861 26.4957C121.241 25.7287 121.769 25.13 122.447 24.6996C123.128 24.2692 123.925 24.054 124.837 24.054C125.391 24.054 125.928 24.1456 126.448 24.3288C126.968 24.5121 127.434 24.7997 127.848 25.1918C128.261 25.5838 128.587 26.093 128.826 26.7195C129.064 27.3416 129.184 28.098 129.184 28.9886V29.6662H121.379V28.2344H127.311C127.311 27.7315 127.209 27.2862 127.004 26.8984C126.8 26.5064 126.512 26.1974 126.141 25.9716C125.775 25.7457 125.344 25.6328 124.85 25.6328C124.313 25.6328 123.844 25.7649 123.444 26.0291C123.047 26.2891 122.741 26.63 122.523 27.0518C122.31 27.4695 122.204 27.9233 122.204 28.4134V29.532C122.204 30.1882 122.319 30.7464 122.549 31.2067C122.783 31.6669 123.109 32.0185 123.527 32.2614C123.944 32.5 124.432 32.6193 124.991 32.6193C125.353 32.6193 125.683 32.5682 125.981 32.4659C126.28 32.3594 126.537 32.2017 126.755 31.9929C126.972 31.7841 127.138 31.5263 127.253 31.2195L129.062 31.5455C128.917 32.0781 128.657 32.5447 128.282 32.9453C127.912 33.3416 127.445 33.6506 126.883 33.8722C126.324 34.0895 125.687 34.1982 124.971 34.1982ZM135.536 34.1982C134.569 34.1982 133.735 33.9915 133.037 33.5781C132.342 33.1605 131.805 32.5746 131.426 31.8203C131.051 31.0618 130.863 30.1733 130.863 29.1548C130.863 28.1491 131.051 27.2628 131.426 26.4957C131.805 25.7287 132.333 25.13 133.011 24.6996C133.693 24.2692 134.49 24.054 135.402 24.054C135.956 24.054 136.493 24.1456 137.012 24.3288C137.532 24.5121 137.999 24.7997 138.412 25.1918C138.826 25.5838 139.152 26.093 139.39 26.7195C139.629 27.3416 139.748 28.098 139.748 28.9886V29.6662H131.944V28.2344H137.875C137.875 27.7315 137.773 27.2862 137.569 26.8984C137.364 26.5064 137.076 26.1974 136.706 25.9716C136.339 25.7457 135.909 25.6328 135.414 25.6328C134.877 25.6328 134.409 25.7649 134.008 26.0291C133.612 26.2891 133.305 26.63 133.088 27.0518C132.875 27.4695 132.768 27.9233 132.768 28.4134V29.532C132.768 30.1882 132.883 30.7464 133.113 31.2067C133.348 31.6669 133.674 32.0185 134.091 32.2614C134.509 32.5 134.997 32.6193 135.555 32.6193C135.917 32.6193 136.248 32.5682 136.546 32.4659C136.844 32.3594 137.102 32.2017 137.319 31.9929C137.537 31.7841 137.703 31.5263 137.818 31.2195L139.627 31.5455C139.482 32.0781 139.222 32.5447 138.847 32.9453C138.476 33.3416 138.01 33.6506 137.447 33.8722C136.889 34.0895 136.252 34.1982 135.536 34.1982Z" fill="white"/>
<defs>
<linearGradient id="paint0_linear_1_975" x1="0" y1="0" x2="116.574" y2="111.105" gradientUnits="userSpaceOnUse">
<stop stop-color="#2272FF"/>
<stop offset="1" stop-color="#0D03C3"/>
</linearGradient>
</defs>
</svg>
