<svg width="225" height="67" viewBox="0 0 225 67" fill="none" xmlns="http://www.w3.org/2000/svg">
<rect width="225" height="67" rx="33.5" fill="white"/>
<path d="M44.9864 31.1562C44.887 30.8106 44.7473 30.5052 44.5674 30.2401C44.3875 29.9702 44.1673 29.7429 43.9069 29.5582C43.6512 29.3688 43.3577 29.2244 43.0262 29.125C42.6995 29.0256 42.3373 28.9759 41.9396 28.9759C41.1962 28.9759 40.5428 29.1605 39.9793 29.5298C39.4206 29.8991 38.985 30.4366 38.6725 31.142C38.36 31.8428 38.2038 32.6998 38.2038 33.7131C38.2038 34.7263 38.3577 35.5881 38.6654 36.2983C38.9732 37.0085 39.4088 37.5507 39.9722 37.9247C40.5357 38.294 41.2009 38.4787 41.968 38.4787C42.664 38.4787 43.2582 38.3556 43.7506 38.1094C44.2478 37.8584 44.6266 37.5057 44.887 37.0511C45.1522 36.5966 45.2847 36.0592 45.2847 35.4389L45.9097 35.5312H42.1597V33.2159H48.2464V35.0483C48.2464 36.3267 47.9765 37.4252 47.4367 38.3438C46.8969 39.2576 46.1536 39.9631 45.2066 40.4602C44.2596 40.9527 43.1754 41.1989 41.9538 41.1989C40.5901 41.1989 39.3922 40.8982 38.36 40.2969C37.3278 39.6908 36.5229 38.8314 35.9452 37.7188C35.3723 36.6013 35.0859 35.2756 35.0859 33.7415C35.0859 32.5625 35.2563 31.5114 35.5972 30.5881C35.9429 29.66 36.4258 28.8741 37.0461 28.2301C37.6664 27.5862 38.3884 27.0961 39.2123 26.7599C40.0362 26.4238 40.9287 26.2557 41.8898 26.2557C42.7137 26.2557 43.4808 26.3764 44.191 26.6179C44.9012 26.8546 45.5309 27.1908 46.0802 27.6264C46.6342 28.062 47.0863 28.5805 47.4367 29.1818C47.7871 29.7784 48.012 30.4366 48.1114 31.1562H44.9864ZM55.0712 41.2131C53.949 41.2131 52.9831 40.9858 52.1734 40.5312C51.3685 40.072 50.7483 39.4233 50.3126 38.5852C49.877 37.7424 49.6592 36.7457 49.6592 35.5952C49.6592 34.473 49.877 33.4882 50.3126 32.6406C50.7483 31.7931 51.3614 31.1326 52.1521 30.6591C52.9476 30.1856 53.8804 29.9489 54.9504 29.9489C55.6701 29.9489 56.3401 30.0649 56.9604 30.2969C57.5854 30.5241 58.1299 30.8674 58.5939 31.3267C59.0626 31.786 59.4272 32.3636 59.6876 33.0597C59.9481 33.7509 60.0783 34.5606 60.0783 35.4886V36.3196H50.8666V34.4446H57.2303C57.2303 34.009 57.1356 33.6231 56.9462 33.2869C56.7568 32.9508 56.494 32.688 56.1578 32.4986C55.8264 32.3045 55.4405 32.2074 55.0001 32.2074C54.5409 32.2074 54.1337 32.3139 53.7786 32.527C53.4282 32.7353 53.1536 33.017 52.9547 33.3722C52.7558 33.7225 52.654 34.1132 52.6493 34.544V36.3267C52.6493 36.8665 52.7487 37.3329 52.9476 37.7259C53.1512 38.1188 53.4376 38.4219 53.807 38.6349C54.1763 38.848 54.6143 38.9545 55.1209 38.9545C55.4571 38.9545 55.7648 38.9072 56.0442 38.8125C56.3235 38.7178 56.5626 38.5758 56.7615 38.3864C56.9604 38.197 57.1119 37.965 57.2161 37.6903L60.0144 37.875C59.8723 38.5473 59.5811 39.1345 59.1408 39.6364C58.7052 40.1335 58.1417 40.5218 57.4504 40.8011C56.7639 41.0758 55.9708 41.2131 55.0712 41.2131ZM67.4553 30.0909V32.3636H60.8857V30.0909H67.4553ZM62.3771 27.4773H65.4027V37.6477C65.4027 37.9271 65.4453 38.1449 65.5305 38.3011C65.6158 38.4527 65.7341 38.5592 65.8857 38.6207C66.0419 38.6823 66.2218 38.7131 66.4254 38.7131C66.5675 38.7131 66.7095 38.7012 66.8516 38.6776C66.9936 38.6491 67.1025 38.6278 67.1783 38.6136L67.6541 40.8651C67.5026 40.9124 67.2895 40.9669 67.0149 41.0284C66.7403 41.0947 66.4065 41.1349 66.0135 41.1491C65.2843 41.1776 64.6451 41.0805 64.0959 40.858C63.5514 40.6354 63.1276 40.2898 62.8246 39.821C62.5215 39.3523 62.3724 38.7604 62.3771 38.0455V27.4773ZM81.2025 30.6378C81.1457 30.0649 80.9018 29.6198 80.471 29.3026C80.0401 28.9853 79.4553 28.8267 78.7167 28.8267C78.2148 28.8267 77.791 28.8977 77.4454 29.0398C77.0997 29.1771 76.8346 29.3688 76.6499 29.6151C76.47 29.8613 76.38 30.1406 76.38 30.4531C76.3706 30.7135 76.425 30.9408 76.5434 31.1349C76.6665 31.3291 76.8346 31.4972 77.0477 31.6392C77.2607 31.7765 77.5069 31.8973 77.7863 32.0014C78.0657 32.1009 78.3639 32.1861 78.6812 32.2571L79.988 32.5696C80.6225 32.7116 81.2049 32.901 81.7352 33.1378C82.2655 33.3745 82.7247 33.6657 83.113 34.0114C83.5013 34.357 83.8019 34.7642 84.015 35.233C84.2328 35.7017 84.3441 36.2391 84.3488 36.8452C84.3441 37.7353 84.1168 38.5071 83.667 39.1605C83.2219 39.8092 82.578 40.3134 81.7352 40.6733C80.8971 41.0284 79.8862 41.206 78.7025 41.206C77.5282 41.206 76.5055 41.026 75.6343 40.6662C74.7678 40.3063 74.0907 39.7737 73.6031 39.0682C73.1201 38.358 72.8668 37.4796 72.8431 36.4332H75.819C75.8521 36.9209 75.9918 37.3281 76.238 37.6548C76.4889 37.9768 76.8228 38.2206 77.2394 38.3864C77.6608 38.5473 78.1367 38.6278 78.667 38.6278C79.1878 38.6278 79.64 38.5521 80.0235 38.4006C80.4118 38.2491 80.7124 38.0384 80.9255 37.7685C81.1386 37.4986 81.2451 37.1884 81.2451 36.8381C81.2451 36.5114 81.148 36.2367 80.9539 36.0142C80.7645 35.7917 80.4852 35.6023 80.1158 35.446C79.7513 35.2898 79.3038 35.1477 78.7735 35.0199L77.1897 34.6222C75.9634 34.3239 74.9951 33.8575 74.2849 33.223C73.5746 32.5885 73.2219 31.7339 73.2266 30.6591C73.2219 29.7784 73.4563 29.009 73.9298 28.3509C74.408 27.6927 75.0638 27.179 75.8971 26.8097C76.7304 26.4403 77.6774 26.2557 78.738 26.2557C79.8175 26.2557 80.7598 26.4403 81.5647 26.8097C82.3744 27.179 83.0041 27.6927 83.4539 28.3509C83.9037 29.009 84.1357 29.7713 84.1499 30.6378H81.2025ZM91.7631 30.0909V32.3636H85.1935V30.0909H91.7631ZM86.6849 27.4773H89.7105V37.6477C89.7105 37.9271 89.7531 38.1449 89.8384 38.3011C89.9236 38.4527 90.042 38.5592 90.1935 38.6207C90.3497 38.6823 90.5296 38.7131 90.7332 38.7131C90.8753 38.7131 91.0173 38.7012 91.1594 38.6776C91.3014 38.6491 91.4103 38.6278 91.4861 38.6136L91.9619 40.8651C91.8104 40.9124 91.5974 40.9669 91.3227 41.0284C91.0481 41.0947 90.7143 41.1349 90.3213 41.1491C89.5921 41.1776 88.9529 41.0805 88.4037 40.858C87.8592 40.6354 87.4354 40.2898 87.1324 39.821C86.8294 39.3523 86.6802 38.7604 86.6849 38.0455V27.4773ZM96.4447 41.206C95.7487 41.206 95.1285 41.0852 94.584 40.8438C94.0394 40.5975 93.6086 40.2353 93.2913 39.7571C92.9788 39.2741 92.8226 38.6728 92.8226 37.9531C92.8226 37.3471 92.9339 36.8381 93.1564 36.4261C93.3789 36.0142 93.682 35.6828 94.0655 35.4318C94.449 35.1809 94.8846 34.9915 95.3723 34.8636C95.8647 34.7358 96.3808 34.6458 96.9206 34.5938C97.5551 34.5275 98.0664 34.4659 98.4547 34.4091C98.8429 34.3475 99.1247 34.2576 99.2999 34.1392C99.475 34.0208 99.5626 33.8456 99.5626 33.6136V33.571C99.5626 33.1212 99.4206 32.7732 99.1365 32.527C98.8572 32.2808 98.4594 32.1577 97.9433 32.1577C97.3988 32.1577 96.9656 32.2784 96.6436 32.5199C96.3216 32.7566 96.1086 33.0549 96.0044 33.4148L93.2061 33.1875C93.3482 32.5246 93.6275 31.9517 94.0442 31.4688C94.4608 30.9811 94.9982 30.607 95.6564 30.3466C96.3193 30.0814 97.0863 29.9489 97.9575 29.9489C98.5636 29.9489 99.1436 30.0199 99.6976 30.1619C100.256 30.304 100.751 30.5241 101.182 30.8224C101.618 31.1207 101.961 31.5043 102.212 31.973C102.463 32.437 102.588 32.9934 102.588 33.642V41H99.7189V39.4872H99.6337C99.4585 39.8281 99.2241 40.1288 98.9305 40.3892C98.637 40.6449 98.2842 40.8461 97.8723 40.9929C97.4604 41.1349 96.9845 41.206 96.4447 41.206ZM97.3112 39.1179C97.7563 39.1179 98.1493 39.0303 98.4902 38.8551C98.8311 38.6752 99.0986 38.4337 99.2928 38.1307C99.4869 37.8277 99.584 37.4844 99.584 37.1009V35.9432C99.4893 36.0047 99.359 36.0616 99.1933 36.1136C99.0323 36.161 98.85 36.206 98.6465 36.2486C98.4429 36.2865 98.2393 36.322 98.0357 36.3551C97.8321 36.3835 97.6474 36.4096 97.4817 36.4332C97.1266 36.4853 96.8164 36.5682 96.5513 36.6818C96.2861 36.7955 96.0802 36.9493 95.9334 37.1435C95.7866 37.3329 95.7132 37.5696 95.7132 37.8537C95.7132 38.2656 95.8624 38.5805 96.1607 38.7983C96.4637 39.0114 96.8472 39.1179 97.3112 39.1179ZM104.536 41V30.0909H107.469V31.9943H107.582C107.781 31.3172 108.115 30.8059 108.584 30.4602C109.053 30.1098 109.592 29.9347 110.203 29.9347C110.355 29.9347 110.518 29.9441 110.693 29.9631C110.868 29.982 111.022 30.008 111.155 30.0412V32.7259C111.013 32.6832 110.816 32.6454 110.565 32.6122C110.314 32.5791 110.085 32.5625 109.876 32.5625C109.431 32.5625 109.034 32.6596 108.683 32.8537C108.338 33.0431 108.063 33.3082 107.859 33.6491C107.661 33.9901 107.561 34.383 107.561 34.8281V41H104.536ZM118.669 30.0909V32.3636H112.099V30.0909H118.669ZM113.59 27.4773H116.616V37.6477C116.616 37.9271 116.659 38.1449 116.744 38.3011C116.829 38.4527 116.947 38.5592 117.099 38.6207C117.255 38.6823 117.435 38.7131 117.639 38.7131C117.781 38.7131 117.923 38.7012 118.065 38.6776C118.207 38.6491 118.316 38.6278 118.392 38.6136L118.867 40.8651C118.716 40.9124 118.503 40.9669 118.228 41.0284C117.954 41.0947 117.62 41.1349 117.227 41.1491C116.498 41.1776 115.858 41.0805 115.309 40.858C114.765 40.6354 114.341 40.2898 114.038 39.821C113.735 39.3523 113.586 38.7604 113.59 38.0455V27.4773ZM125.094 41.2131C123.972 41.2131 123.006 40.9858 122.196 40.5312C121.391 40.072 120.771 39.4233 120.335 38.5852C119.9 37.7424 119.682 36.7457 119.682 35.5952C119.682 34.473 119.9 33.4882 120.335 32.6406C120.771 31.7931 121.384 31.1326 122.175 30.6591C122.97 30.1856 123.903 29.9489 124.973 29.9489C125.693 29.9489 126.363 30.0649 126.983 30.2969C127.608 30.5241 128.153 30.8674 128.617 31.3267C129.085 31.786 129.45 32.3636 129.71 33.0597C129.971 33.7509 130.101 34.5606 130.101 35.4886V36.3196H120.889V34.4446H127.253C127.253 34.009 127.158 33.6231 126.969 33.2869C126.779 32.9508 126.517 32.688 126.18 32.4986C125.849 32.3045 125.463 32.2074 125.023 32.2074C124.564 32.2074 124.156 32.3139 123.801 32.527C123.451 32.7353 123.176 33.017 122.977 33.3722C122.778 33.7225 122.677 34.1132 122.672 34.544V36.3267C122.672 36.8665 122.771 37.3329 122.97 37.7259C123.174 38.1188 123.46 38.4219 123.83 38.6349C124.199 38.848 124.637 38.9545 125.144 38.9545C125.48 38.9545 125.787 38.9072 126.067 38.8125C126.346 38.7178 126.585 38.5758 126.784 38.3864C126.983 38.197 127.135 37.965 127.239 37.6903L130.037 37.875C129.895 38.5473 129.604 39.1345 129.163 39.6364C128.728 40.1335 128.164 40.5218 127.473 40.8011C126.787 41.0758 125.993 41.2131 125.094 41.2131ZM135.695 41.1776C134.867 41.1776 134.116 40.9645 133.444 40.5384C132.776 40.1075 132.246 39.4754 131.853 38.642C131.465 37.804 131.271 36.7765 131.271 35.5597C131.271 34.3097 131.472 33.2704 131.874 32.4418C132.277 31.6084 132.812 30.9858 133.479 30.5739C134.152 30.1572 134.888 29.9489 135.688 29.9489C136.299 29.9489 136.808 30.053 137.215 30.2614C137.627 30.465 137.959 30.7206 138.209 31.0284C138.465 31.3314 138.659 31.6297 138.792 31.9233H138.884V26.4545H141.903V41H138.92V39.2528H138.792C138.65 39.5559 138.449 39.8565 138.188 40.1548C137.932 40.4484 137.599 40.6922 137.187 40.8864C136.78 41.0805 136.282 41.1776 135.695 41.1776ZM136.654 38.7699C137.142 38.7699 137.554 38.6373 137.89 38.3722C138.231 38.1023 138.491 37.7259 138.671 37.2429C138.856 36.7599 138.948 36.1941 138.948 35.5455C138.948 34.8968 138.858 34.3333 138.678 33.8551C138.498 33.3769 138.238 33.0076 137.897 32.7472C137.556 32.4867 137.142 32.3565 136.654 32.3565C136.157 32.3565 135.738 32.4915 135.397 32.7614C135.056 33.0312 134.798 33.4053 134.623 33.8835C134.448 34.3617 134.36 34.9157 134.36 35.5455C134.36 36.1799 134.448 36.741 134.623 37.2287C134.803 37.7116 135.061 38.0904 135.397 38.3651C135.738 38.6349 136.157 38.7699 136.654 38.7699ZM160.442 26.4545V41H157.786L151.458 31.8452H151.351V41H148.276V26.4545H150.975L157.253 35.6023H157.381V26.4545H160.442ZM167.455 41.2131C166.352 41.2131 165.398 40.9787 164.593 40.5099C163.793 40.0365 163.175 39.3783 162.739 38.5355C162.304 37.688 162.086 36.7055 162.086 35.5881C162.086 34.4612 162.304 33.4763 162.739 32.6335C163.175 31.786 163.793 31.1278 164.593 30.6591C165.398 30.1856 166.352 29.9489 167.455 29.9489C168.558 29.9489 169.51 30.1856 170.31 30.6591C171.115 31.1278 171.735 31.786 172.171 32.6335C172.607 33.4763 172.824 34.4612 172.824 35.5881C172.824 36.7055 172.607 37.688 172.171 38.5355C171.735 39.3783 171.115 40.0365 170.31 40.5099C169.51 40.9787 168.558 41.2131 167.455 41.2131ZM167.469 38.8693C167.971 38.8693 168.39 38.7273 168.726 38.4432C169.063 38.1544 169.316 37.7614 169.486 37.2642C169.662 36.767 169.749 36.2012 169.749 35.5668C169.749 34.9323 169.662 34.3665 169.486 33.8693C169.316 33.3722 169.063 32.9792 168.726 32.6903C168.39 32.4015 167.971 32.2571 167.469 32.2571C166.963 32.2571 166.537 32.4015 166.191 32.6903C165.85 32.9792 165.592 33.3722 165.417 33.8693C165.246 34.3665 165.161 34.9323 165.161 35.5668C165.161 36.2012 165.246 36.767 165.417 37.2642C165.592 37.7614 165.85 38.1544 166.191 38.4432C166.537 38.7273 166.963 38.8693 167.469 38.8693ZM176.27 41L173.302 30.0909H176.363L178.053 37.4205H178.152L179.914 30.0909H182.918L184.708 37.3778H184.8L186.462 30.0909H189.516L186.554 41H183.351L181.476 34.1392H181.341L179.466 41H176.27Z" fill="#0F0BC7"/>
</svg>
