<svg width="192" height="48" viewBox="0 0 192 48" fill="none" xmlns="http://www.w3.org/2000/svg">
<rect width="192" height="48" rx="24" fill="#F6F5FF"/>
<path d="M111.32 30L115.176 18.48H117.16L121.016 30H119.536L115.928 19.312H116.376L112.8 30H111.32ZM113.176 27.304V25.968H119.16V27.304H113.176ZM128.19 30V25.672C128.19 25.2613 128.153 24.8667 128.078 24.488C128.009 24.1093 127.883 23.7707 127.702 23.472C127.526 23.168 127.286 22.928 126.982 22.752C126.683 22.576 126.305 22.488 125.846 22.488C125.489 22.488 125.163 22.5493 124.87 22.672C124.582 22.7893 124.334 22.9707 124.126 23.216C123.918 23.4613 123.755 23.7707 123.638 24.144C123.526 24.512 123.47 24.9467 123.47 25.448L122.534 25.16C122.534 24.3227 122.683 23.6053 122.982 23.008C123.286 22.4053 123.71 21.944 124.254 21.624C124.803 21.2987 125.449 21.136 126.19 21.136C126.75 21.136 127.227 21.224 127.622 21.4C128.017 21.576 128.345 21.8107 128.606 22.104C128.867 22.392 129.073 22.7173 129.222 23.08C129.371 23.4373 129.475 23.8027 129.534 24.176C129.598 24.544 129.63 24.8933 129.63 25.224V30H128.19ZM122.03 30V21.36H123.31V23.672H123.47V30H122.03ZM137.452 30V25.672C137.452 25.2613 137.415 24.8667 137.34 24.488C137.271 24.1093 137.145 23.7707 136.964 23.472C136.788 23.168 136.548 22.928 136.244 22.752C135.945 22.576 135.567 22.488 135.108 22.488C134.751 22.488 134.425 22.5493 134.132 22.672C133.844 22.7893 133.596 22.9707 133.388 23.216C133.18 23.4613 133.017 23.7707 132.9 24.144C132.788 24.512 132.732 24.9467 132.732 25.448L131.796 25.16C131.796 24.3227 131.945 23.6053 132.244 23.008C132.548 22.4053 132.972 21.944 133.516 21.624C134.065 21.2987 134.711 21.136 135.452 21.136C136.012 21.136 136.489 21.224 136.884 21.4C137.279 21.576 137.607 21.8107 137.868 22.104C138.129 22.392 138.335 22.7173 138.484 23.08C138.633 23.4373 138.737 23.8027 138.796 24.176C138.86 24.544 138.892 24.8933 138.892 25.224V30H137.452ZM131.292 30V21.36H132.572V23.672H132.732V30H131.292ZM143.842 30.224C143.287 30.224 142.81 30.136 142.41 29.96C142.015 29.784 141.687 29.5493 141.426 29.256C141.165 28.9627 140.959 28.6373 140.81 28.28C140.661 27.9227 140.554 27.5573 140.49 27.184C140.431 26.8107 140.402 26.4613 140.402 26.136V21.36H141.842V25.688C141.842 26.0933 141.879 26.4853 141.954 26.864C142.029 27.2427 142.154 27.584 142.33 27.888C142.511 28.192 142.751 28.432 143.05 28.608C143.354 28.784 143.733 28.872 144.186 28.872C144.543 28.872 144.869 28.8107 145.162 28.688C145.455 28.5653 145.706 28.384 145.914 28.144C146.122 27.8987 146.282 27.5893 146.394 27.216C146.506 26.8427 146.562 26.408 146.562 25.912L147.498 26.2C147.498 27.032 147.346 27.7493 147.042 28.352C146.743 28.9547 146.319 29.4187 145.77 29.744C145.226 30.064 144.583 30.224 143.842 30.224ZM146.722 30V27.688H146.562V21.36H147.994V30H146.722ZM152.28 30.24C151.634 30.24 151.093 30.1227 150.656 29.888C150.224 29.648 149.896 29.3333 149.672 28.944C149.453 28.5547 149.344 28.128 149.344 27.664C149.344 27.2107 149.429 26.8187 149.6 26.488C149.776 26.152 150.021 25.8747 150.336 25.656C150.65 25.432 151.026 25.256 151.464 25.128C151.874 25.016 152.333 24.92 152.84 24.84C153.352 24.7547 153.869 24.6773 154.392 24.608C154.914 24.5387 155.402 24.472 155.856 24.408L155.344 24.704C155.36 23.936 155.205 23.368 154.88 23C154.56 22.632 154.005 22.448 153.216 22.448C152.693 22.448 152.234 22.568 151.84 22.808C151.45 23.0427 151.176 23.4267 151.016 23.96L149.664 23.552C149.872 22.7947 150.274 22.2 150.872 21.768C151.469 21.336 152.256 21.12 153.232 21.12C154.016 21.12 154.688 21.2613 155.248 21.544C155.813 21.8213 156.218 22.2427 156.464 22.808C156.586 23.0747 156.664 23.3653 156.696 23.68C156.728 23.9893 156.744 24.3147 156.744 24.656V30H155.48V27.928L155.776 28.12C155.45 28.8187 154.994 29.3467 154.408 29.704C153.826 30.0613 153.117 30.24 152.28 30.24ZM152.496 29.048C153.008 29.048 153.45 28.9573 153.824 28.776C154.202 28.5893 154.506 28.3467 154.736 28.048C154.965 27.744 155.114 27.4133 155.184 27.056C155.264 26.7893 155.306 26.4933 155.312 26.168C155.322 25.8373 155.328 25.584 155.328 25.408L155.824 25.624C155.36 25.688 154.904 25.7493 154.456 25.808C154.008 25.8667 153.584 25.9307 153.184 26C152.784 26.064 152.424 26.1413 152.104 26.232C151.869 26.3067 151.648 26.4027 151.44 26.52C151.237 26.6373 151.072 26.7893 150.944 26.976C150.821 27.1573 150.76 27.384 150.76 27.656C150.76 27.8907 150.818 28.1147 150.936 28.328C151.058 28.5413 151.245 28.7147 151.496 28.848C151.752 28.9813 152.085 29.048 152.496 29.048ZM158.574 30V18.24H159.998V30H158.574ZM163.188 33.84L164.86 29.296L164.884 30.64L161.108 21.36H162.604L165.564 28.824H165.052L167.828 21.36H169.276L164.572 33.84H163.188Z" fill="black"/>
<rect x="6" y="6" width="91" height="36" rx="18" fill="url(#paint0_linear_1_1043)"/>
<path d="M22.12 30V18.48H23.416L27.768 27.656L32.096 18.48H33.408V29.992H32.056V21.608L28.144 30H27.384L23.472 21.608V30H22.12ZM38.9213 30.24C38.0626 30.24 37.3213 30.0453 36.6973 29.656C36.0786 29.2667 35.6013 28.728 35.2653 28.04C34.9293 27.352 34.7613 26.5627 34.7613 25.672C34.7613 24.7653 34.9319 23.9707 35.2733 23.288C35.6146 22.6053 36.0973 22.0747 36.7213 21.696C37.3453 21.312 38.0786 21.12 38.9213 21.12C39.7853 21.12 40.5293 21.3147 41.1533 21.704C41.7773 22.088 42.2546 22.624 42.5853 23.312C42.9213 23.9947 43.0893 24.7813 43.0893 25.672C43.0893 26.5733 42.9213 27.368 42.5853 28.056C42.2493 28.7387 41.7693 29.2747 41.1453 29.664C40.5213 30.048 39.7799 30.24 38.9213 30.24ZM38.9213 28.888C39.8173 28.888 40.4839 28.5893 40.9213 27.992C41.3586 27.3947 41.5773 26.6213 41.5773 25.672C41.5773 24.696 41.3559 23.92 40.9133 23.344C40.4706 22.7627 39.8066 22.472 38.9213 22.472C38.3186 22.472 37.8226 22.608 37.4333 22.88C37.0439 23.152 36.7533 23.528 36.5613 24.008C36.3693 24.488 36.2733 25.0427 36.2733 25.672C36.2733 26.6427 36.4973 27.4213 36.9453 28.008C37.3933 28.5947 38.0519 28.888 38.9213 28.888ZM50.5926 30V25.672C50.5926 25.2613 50.5553 24.8667 50.4806 24.488C50.4113 24.1093 50.286 23.7707 50.1046 23.472C49.9286 23.168 49.6886 22.928 49.3846 22.752C49.086 22.576 48.7073 22.488 48.2486 22.488C47.8913 22.488 47.566 22.5493 47.2726 22.672C46.9846 22.7893 46.7366 22.9707 46.5286 23.216C46.3206 23.4613 46.158 23.7707 46.0406 24.144C45.9286 24.512 45.8726 24.9467 45.8726 25.448L44.9366 25.16C44.9366 24.3227 45.086 23.6053 45.3846 23.008C45.6886 22.4053 46.1126 21.944 46.6566 21.624C47.206 21.2987 47.8513 21.136 48.5926 21.136C49.1526 21.136 49.63 21.224 50.0246 21.4C50.4193 21.576 50.7473 21.8107 51.0086 22.104C51.27 22.392 51.4753 22.7173 51.6246 23.08C51.774 23.4373 51.878 23.8027 51.9366 24.176C52.0006 24.544 52.0326 24.8933 52.0326 25.224V30H50.5926ZM44.4326 30V21.36H45.7126V23.672H45.8726V30H44.4326ZM58.5265 30C58.0145 30.1013 57.5078 30.1413 57.0065 30.12C56.5105 30.104 56.0678 30.0053 55.6785 29.824C55.2892 29.6373 54.9932 29.3493 54.7905 28.96C54.6198 28.6187 54.5265 28.2747 54.5105 27.928C54.4998 27.576 54.4945 27.1787 54.4945 26.736V18.96H55.9185V26.672C55.9185 27.024 55.9212 27.3253 55.9265 27.576C55.9372 27.8267 55.9932 28.0427 56.0945 28.224C56.2865 28.5653 56.5905 28.7653 57.0065 28.824C57.4278 28.8827 57.9345 28.8667 58.5265 28.776V30ZM52.7425 22.536V21.36H58.5265V22.536H52.7425ZM66.0226 30V25.672C66.0226 25.2613 65.9853 24.8667 65.9106 24.488C65.8413 24.1093 65.716 23.7707 65.5346 23.472C65.3586 23.168 65.1186 22.928 64.8146 22.752C64.516 22.576 64.1373 22.488 63.6786 22.488C63.3213 22.488 62.996 22.5493 62.7026 22.672C62.4146 22.7893 62.1666 22.9707 61.9586 23.216C61.7506 23.4613 61.588 23.7707 61.4706 24.144C61.3586 24.512 61.3026 24.9467 61.3026 25.448L60.3666 25.16C60.3666 24.3227 60.516 23.6053 60.8146 23.008C61.1186 22.4053 61.5426 21.944 62.0866 21.624C62.636 21.2987 63.2813 21.136 64.0226 21.136C64.5826 21.136 65.06 21.224 65.4546 21.4C65.8493 21.576 66.1773 21.8107 66.4386 22.104C66.7 22.392 66.9053 22.7173 67.0546 23.08C67.204 23.4373 67.308 23.8027 67.3666 24.176C67.4306 24.544 67.4626 24.8933 67.4626 25.224V30H66.0226ZM59.8626 30V18.48H61.1426V24.84H61.3026V30H59.8626ZM69.2925 30V18.24H70.7165V30H69.2925ZM73.9069 33.84L75.5789 29.296L75.6029 30.64L71.8269 21.36H73.3229L76.2829 28.824H75.7709L78.5469 21.36H79.9949L75.2909 33.84H73.9069Z" fill="white"/>
<defs>
<linearGradient id="paint0_linear_1_1043" x1="6" y1="6" x2="80.986" y2="63.049" gradientUnits="userSpaceOnUse">
<stop stop-color="#2272FF"/>
<stop offset="1" stop-color="#0D03C3"/>
</linearGradient>
</defs>
</svg>
