<svg width="725" height="699" viewBox="0 0 725 699" fill="none" xmlns="http://www.w3.org/2000/svg">
<g clip-path="url(#clip0_1_46)">
<g opacity="0.4">
<path d="M167.901 76.4091V604.535" stroke="#213F5A" stroke-width="2" stroke-miterlimit="10"/>
<path d="M147.511 604.535V76.4091" stroke="#213F5A" stroke-width="2" stroke-miterlimit="10"/>
<path d="M212.243 0V604.535" stroke="#213F5A" stroke-width="2" stroke-miterlimit="10"/>
<path d="M191.854 604.535V76.4091" stroke="#213F5A" stroke-width="2" stroke-miterlimit="10"/>
<path d="M256.586 76.4091V668.797" stroke="#213F5A" stroke-width="2" stroke-miterlimit="10"/>
<path d="M236.196 629.784V76.4091" stroke="#213F5A" stroke-width="2" stroke-miterlimit="10"/>
<path d="M300.928 76.4091V604.535" stroke="#213F5A" stroke-width="2" stroke-miterlimit="10"/>
<path d="M280.539 604.535V76.4091" stroke="#213F5A" stroke-width="2" stroke-miterlimit="10"/>
<path d="M345.271 76.4091V604.535" stroke="#213F5A" stroke-width="2" stroke-miterlimit="10"/>
<path d="M324.881 604.535V76.4091" stroke="#213F5A" stroke-width="2" stroke-miterlimit="10"/>
<path d="M389.613 76.4091V604.535" stroke="#213F5A" stroke-width="2" stroke-miterlimit="10"/>
<path d="M369.224 604.535V76.4091" stroke="#213F5A" stroke-width="2" stroke-miterlimit="10"/>
<path d="M433.956 76.4091V604.535" stroke="#213F5A" stroke-width="2" stroke-miterlimit="10"/>
<path d="M413.566 604.535V76.4091" stroke="#213F5A" stroke-width="2" stroke-miterlimit="10"/>
<path d="M478.298 76.4091V604.535" stroke="#213F5A" stroke-width="2" stroke-miterlimit="10"/>
<path d="M457.909 604.535V76.4091" stroke="#213F5A" stroke-width="2" stroke-miterlimit="10"/>
<path d="M522.641 76.4091V604.535" stroke="#213F5A" stroke-width="2" stroke-miterlimit="10"/>
<path d="M502.272 604.535V76.4091" stroke="#213F5A" stroke-width="2" stroke-miterlimit="10"/>
<path d="M567.004 76.4091V699" stroke="#213F5A" stroke-width="2" stroke-miterlimit="10"/>
<path d="M546.615 604.535V76.4091" stroke="#213F5A" stroke-width="2" stroke-miterlimit="10"/>
<path d="M611.346 60.012V661.148" stroke="#213F5A" stroke-width="2" stroke-miterlimit="10"/>
<path d="M590.957 629.784V76.4091" stroke="#213F5A" stroke-width="2" stroke-miterlimit="10"/>
<path d="M655.689 76.4091V604.535" stroke="#213F5A" stroke-width="2" stroke-miterlimit="10"/>
<path d="M635.3 604.535V36.7535" stroke="#213F5A" stroke-width="2" stroke-miterlimit="10"/>
<path d="M137.648 574.27H725" stroke="#213F5A" stroke-width="2" stroke-miterlimit="10"/>
<path d="M665.552 594.668H137.648" stroke="#213F5A" stroke-width="2" stroke-miterlimit="10"/>
<path d="M14.2766 529.909H665.552" stroke="#213F5A" stroke-width="2" stroke-miterlimit="10"/>
<path d="M665.552 550.307H112.41" stroke="#213F5A" stroke-width="2" stroke-miterlimit="10"/>
<path d="M137.648 485.548H705.191" stroke="#213F5A" stroke-width="2" stroke-miterlimit="10"/>
<path d="M722.141 505.946H137.648" stroke="#213F5A" stroke-width="2" stroke-miterlimit="10"/>
<path d="M137.648 441.187H665.552" stroke="#213F5A" stroke-width="2" stroke-miterlimit="10"/>
<path d="M665.552 461.585H137.648" stroke="#213F5A" stroke-width="2" stroke-miterlimit="10"/>
<path d="M137.648 396.826H665.552" stroke="#213F5A" stroke-width="2" stroke-miterlimit="10"/>
<path d="M665.552 417.223H137.648" stroke="#213F5A" stroke-width="2" stroke-miterlimit="10"/>
<path d="M137.648 352.464H665.552" stroke="#213F5A" stroke-width="2" stroke-miterlimit="10"/>
<path d="M665.552 372.862H137.648" stroke="#213F5A" stroke-width="2" stroke-miterlimit="10"/>
<path d="M137.648 308.103H665.552" stroke="#213F5A" stroke-width="2" stroke-miterlimit="10"/>
<path d="M665.552 328.48H137.648" stroke="#213F5A" stroke-width="2" stroke-miterlimit="10"/>
<path d="M137.648 263.721H665.552" stroke="#213F5A" stroke-width="2" stroke-miterlimit="10"/>
<path d="M665.552 284.119H137.648" stroke="#213F5A" stroke-width="2" stroke-miterlimit="10"/>
<path d="M137.648 219.36H665.552" stroke="#213F5A" stroke-width="2" stroke-miterlimit="10"/>
<path d="M665.552 239.758H137.648" stroke="#213F5A" stroke-width="2" stroke-miterlimit="10"/>
<path d="M49.7092 174.999H677.404" stroke="#213F5A" stroke-width="2" stroke-miterlimit="10"/>
<path d="M665.552 195.397H137.648" stroke="#213F5A" stroke-width="2" stroke-miterlimit="10"/>
<path d="M0 130.638H665.552" stroke="#213F5A" stroke-width="2" stroke-miterlimit="10"/>
<path d="M705.191 151.035H115.187" stroke="#213F5A" stroke-width="2" stroke-miterlimit="10"/>
<path d="M137.648 86.2763H665.552" stroke="#213F5A" stroke-width="2" stroke-miterlimit="10"/>
<path d="M665.552 106.674H137.648" stroke="#213F5A" stroke-width="2" stroke-miterlimit="10"/>
</g>
<g opacity="0.5">
<path d="M360.086 307.004L217.382 307.709L205.157 285.342H144.175" stroke="#2D83A6" stroke-miterlimit="10"/>
<path d="M358.864 295.81L255.819 296.536" stroke="#2D83A6" stroke-miterlimit="10"/>
<path d="M294.961 331.714H207.021L194.921 312.518H124.304" stroke="#2D83A6" stroke-miterlimit="10"/>
<path d="M358.863 320.852H212.512L197.718 296.536H93.4715" stroke="#2D83A6" stroke-miterlimit="10"/>
<path d="M87.4003 296.536C87.3962 295.854 87.595 295.186 87.9714 294.616C88.3477 294.047 88.8847 293.603 89.5141 293.34C90.1434 293.077 90.8367 293.007 91.5059 293.139C92.175 293.271 92.7898 293.6 93.2721 294.082C93.7544 294.565 94.0824 295.18 94.2145 295.849C94.3465 296.519 94.2767 297.212 94.0138 297.842C93.7509 298.471 93.3068 299.009 92.738 299.385C92.1692 299.762 91.5013 299.96 90.8193 299.956C90.3703 299.956 89.9257 299.868 89.5109 299.696C89.0961 299.524 88.7192 299.272 88.4017 298.955C88.0842 298.637 87.8324 298.26 87.6606 297.845C87.4888 297.43 87.4003 296.985 87.4003 296.536V296.536Z" stroke="#2D83A6" stroke-miterlimit="10"/>
<path d="M117.694 312.518C117.694 311.837 117.896 311.171 118.275 310.605C118.654 310.038 119.193 309.597 119.822 309.337C120.452 309.078 121.145 309.011 121.812 309.145C122.48 309.28 123.093 309.609 123.573 310.093C124.054 310.576 124.379 311.191 124.51 311.86C124.64 312.529 124.569 313.221 124.306 313.85C124.042 314.478 123.598 315.014 123.03 315.39C122.461 315.765 121.794 315.964 121.113 315.96C120.662 315.96 120.216 315.87 119.8 315.697C119.384 315.524 119.006 315.27 118.688 314.95C118.37 314.631 118.119 314.251 117.948 313.834C117.778 313.416 117.691 312.969 117.694 312.518V312.518Z" stroke="#2D83A6" stroke-miterlimit="10"/>
<path d="M137.317 285.342C137.317 284.661 137.518 283.996 137.896 283.43C138.274 282.864 138.812 282.423 139.44 282.163C140.069 281.902 140.76 281.834 141.427 281.967C142.095 282.1 142.708 282.428 143.189 282.909C143.67 283.39 143.997 284.003 144.13 284.671C144.263 285.338 144.195 286.03 143.934 286.659C143.674 287.288 143.233 287.825 142.667 288.203C142.102 288.581 141.437 288.783 140.756 288.783C140.304 288.786 139.855 288.699 139.437 288.527C139.018 288.355 138.638 288.102 138.318 287.781C137.998 287.461 137.745 287.081 137.573 286.662C137.401 286.243 137.314 285.795 137.317 285.342Z" stroke="#2D83A6" stroke-miterlimit="10"/>
<path d="M248.96 295.81C248.96 295.129 249.163 294.463 249.542 293.897C249.92 293.33 250.459 292.889 251.089 292.629C251.718 292.37 252.411 292.303 253.079 292.437C253.747 292.572 254.359 292.901 254.84 293.385C255.32 293.868 255.646 294.483 255.776 295.152C255.906 295.821 255.835 296.513 255.572 297.142C255.308 297.77 254.864 298.306 254.296 298.682C253.728 299.057 253.06 299.256 252.379 299.252C251.929 299.252 251.482 299.162 251.066 298.989C250.65 298.816 250.272 298.562 249.954 298.242C249.637 297.923 249.385 297.543 249.215 297.126C249.044 296.708 248.958 296.261 248.96 295.81V295.81Z" stroke="#2D83A6" stroke-miterlimit="10"/>
</g>
<g opacity="0.5">
<path d="M360.086 373.173L217.382 372.468L205.157 394.835H144.175" stroke="#2D83A6" stroke-miterlimit="10"/>
<path d="M358.864 384.367L255.819 383.662" stroke="#2D83A6" stroke-miterlimit="10"/>
<path d="M294.961 348.464H207.021L194.921 367.659H124.304" stroke="#2D83A6" stroke-miterlimit="10"/>
<path d="M358.863 359.326H212.512L197.718 383.642H93.4715" stroke="#2D83A6" stroke-miterlimit="10"/>
<path d="M87.4003 383.662C87.4003 384.344 87.6026 385.01 87.9815 385.576C88.3604 386.142 88.8988 386.584 89.5285 386.843C90.1582 387.103 90.8509 387.17 91.5187 387.036C92.1865 386.901 92.7993 386.571 93.2795 386.088C93.7597 385.605 94.0857 384.99 94.216 384.321C94.3464 383.652 94.2753 382.959 94.0118 382.331C93.7483 381.703 93.3042 381.167 92.7358 380.791C92.1675 380.415 91.5004 380.217 90.8193 380.221C90.3685 380.221 89.9222 380.31 89.5061 380.483C89.0899 380.657 88.7121 380.91 88.3944 381.23C88.0766 381.55 87.8252 381.93 87.6546 382.347C87.484 382.764 87.3976 383.211 87.4003 383.662Z" stroke="#2D83A6" stroke-miterlimit="10"/>
<path d="M117.694 367.659C117.694 368.341 117.896 369.007 118.275 369.573C118.654 370.139 119.193 370.58 119.822 370.84C120.452 371.1 121.145 371.167 121.812 371.032C122.48 370.898 123.093 370.568 123.573 370.085C124.054 369.602 124.379 368.986 124.51 368.318C124.64 367.649 124.569 366.956 124.306 366.328C124.042 365.699 123.598 365.163 123.03 364.788C122.461 364.412 121.794 364.214 121.113 364.218C120.662 364.218 120.216 364.307 119.8 364.48C119.384 364.653 119.006 364.907 118.688 365.227C118.37 365.547 118.119 365.926 117.948 366.344C117.778 366.761 117.691 367.208 117.694 367.659Z" stroke="#2D83A6" stroke-miterlimit="10"/>
<path d="M137.317 394.835C137.313 395.517 137.511 396.184 137.886 396.753C138.262 397.321 138.798 397.766 139.426 398.029C140.054 398.293 140.746 398.364 141.415 398.234C142.083 398.103 142.698 397.777 143.181 397.297C143.664 396.816 143.994 396.203 144.128 395.535C144.263 394.867 144.196 394.174 143.936 393.544C143.676 392.914 143.236 392.376 142.669 391.996C142.103 391.617 141.438 391.415 140.756 391.415C139.848 391.415 138.976 391.775 138.331 392.416C137.687 393.056 137.322 393.926 137.317 394.835V394.835Z" stroke="#2D83A6" stroke-miterlimit="10"/>
<path d="M248.96 384.367C248.96 385.049 249.163 385.715 249.542 386.281C249.92 386.847 250.459 387.288 251.089 387.548C251.718 387.808 252.411 387.875 253.079 387.74C253.747 387.606 254.359 387.276 254.84 386.793C255.32 386.31 255.646 385.694 255.776 385.026C255.906 384.357 255.835 383.664 255.572 383.036C255.308 382.407 254.864 381.871 254.296 381.496C253.728 381.12 253.06 380.922 252.379 380.926C251.929 380.926 251.482 381.015 251.066 381.188C250.65 381.361 250.272 381.615 249.954 381.935C249.637 382.255 249.385 382.634 249.215 383.052C249.044 383.469 248.958 383.916 248.96 384.367V384.367Z" stroke="#2D83A6" stroke-miterlimit="10"/>
</g>
<path d="M613.874 301.366C614.123 302.713 614.351 304.082 614.579 305.512" stroke="#D0E9F2" stroke-width="0.5" stroke-miterlimit="10"/>
<path d="M615.76 313.514C618.297 333.764 617.92 354.273 614.641 374.417" stroke="#D0E9F2" stroke-width="0.5" stroke-miterlimit="10" stroke-dasharray="3.93 3.93"/>
<path d="M613.937 378.438C613.688 379.786 613.418 381.154 613.149 382.584" stroke="#D0E9F2" stroke-width="0.5" stroke-miterlimit="10"/>
<path d="M212.575 259.886C213.093 258.601 213.631 257.336 214.191 256.072" stroke="#D0E9F2" stroke-width="0.5" stroke-miterlimit="10"/>
<path d="M217.693 248.443C234.08 214.58 259.24 185.729 290.554 164.893C321.868 144.058 358.192 131.998 395.745 129.971C433.298 127.943 470.707 136.021 504.081 153.365C537.455 170.708 565.572 196.682 585.508 228.585" stroke="#D0E9F2" stroke-width="0.5" stroke-miterlimit="10" stroke-dasharray="4.05 4.05"/>
<path d="M587.704 232.171L589.776 235.736" stroke="#D0E9F2" stroke-width="0.5" stroke-miterlimit="10"/>
<path d="M595.557 433.6C594.936 434.844 594.314 436.087 593.672 437.31" stroke="#D0E9F2" stroke-width="0.5" stroke-miterlimit="10"/>
<path d="M589.755 444.462C570.22 478.646 541.493 506.663 506.838 525.33C472.183 543.998 432.989 552.567 393.709 550.065C354.43 547.562 316.639 534.088 284.63 511.174C252.622 488.259 227.68 456.823 212.637 420.436" stroke="#D0E9F2" stroke-width="0.5" stroke-miterlimit="10" stroke-dasharray="3.94 3.94"/>
<path d="M211.103 416.664C210.606 415.378 210.109 414.072 209.632 412.766" stroke="#D0E9F2" stroke-width="0.5" stroke-miterlimit="10"/>
<path d="M294.07 149.916C332.899 126.845 377.856 116.215 422.901 119.453C467.947 122.692 510.922 139.645 546.055 168.034" stroke="#2D83A6" stroke-width="0.75" stroke-miterlimit="10"/>
<path d="M294.07 133.56C332.899 110.492 377.854 99.8617 422.898 103.097C467.942 106.332 510.918 123.277 546.055 151.657" stroke="#D0E9F2" stroke-width="0.75" stroke-miterlimit="10"/>
<path d="M196.412 272.739C209.998 230.331 236.044 193.005 271.152 165.629" stroke="#2D83A6" stroke-width="0.75" stroke-miterlimit="10"/>
<path d="M200.992 420.25C198.989 415.123 197.179 409.906 195.563 404.599" stroke="#2D83A6" stroke-width="0.75" stroke-miterlimit="10"/>
<path d="M448.502 557.417C405.995 565.471 362.062 560.893 322.127 544.249C282.191 527.605 248.003 499.624 223.785 463.761" stroke="#2D83A6" stroke-width="0.75" stroke-miterlimit="10"/>
<path d="M442.886 564.797C400.374 572.859 356.431 568.285 316.488 551.641C276.544 534.997 242.35 507.011 218.128 471.141" stroke="#D0E9F2" stroke-width="0.75" stroke-miterlimit="10"/>
<path d="M575.209 483.765C548.737 514.778 514.218 537.877 475.459 550.514" stroke="#2D83A6" stroke-width="0.75" stroke-miterlimit="10"/>
<path d="M612.009 465.793C590.865 500.687 560.488 529.054 524.236 547.757" stroke="#D0E9F2" stroke-width="0.75" stroke-miterlimit="10"/>
<path d="M607.679 433.247C602.782 443.856 597.052 454.059 590.543 463.761" stroke="#2D83A6" stroke-width="0.75" stroke-miterlimit="10"/>
<path d="M624.815 301.366C629.427 327.584 629.315 354.416 624.483 380.594" stroke="#2D83A6" stroke-width="0.75" stroke-miterlimit="10"/>
<path d="M604.446 240.255C605.462 242.328 606.518 244.401 607.43 246.474" stroke="#2D83A6" stroke-width="0.75" stroke-miterlimit="10"/>
<path d="M648.416 428.003H586.813L574.608 405.636L404.242 406.361V404.288L575.831 403.563L588.036 425.93H648.416V428.003Z" fill="#D0E9F2"/>
<path d="M536.78 414.672L393.809 415.521L393.821 417.594L536.792 416.745L536.78 414.672Z" fill="#D0E9F2"/>
<path d="M668.287 400.826H597.09L584.99 381.631H433.23V379.558H586.15L598.23 398.753H668.287V400.826Z" fill="#D0E9F2"/>
<path d="M699.12 416.83H594.293L579.499 392.493H523.055V390.42H580.659L595.454 414.757H699.12V416.83Z" fill="#D0E9F2"/>
<path d="M701.772 420.25C700.885 420.254 700.017 419.994 699.278 419.504C698.538 419.014 697.962 418.314 697.62 417.495C697.279 416.676 697.189 415.774 697.361 414.904C697.533 414.033 697.959 413.234 698.587 412.606C699.214 411.979 700.013 411.552 700.883 411.38C701.753 411.208 702.655 411.298 703.474 411.64C704.292 411.981 704.991 412.558 705.481 413.298C705.972 414.037 706.231 414.906 706.227 415.793C706.221 416.973 705.75 418.104 704.916 418.939C704.082 419.773 702.952 420.244 701.772 420.25ZM701.772 413.388C701.296 413.384 700.829 413.522 700.431 413.784C700.033 414.045 699.722 414.419 699.537 414.858C699.352 415.297 699.301 415.782 699.391 416.249C699.482 416.717 699.709 417.148 700.044 417.486C700.38 417.824 700.808 418.055 701.275 418.15C701.741 418.244 702.226 418.198 702.666 418.017C703.107 417.835 703.483 417.527 703.748 417.131C704.013 416.735 704.155 416.27 704.155 415.793C704.155 415.159 703.904 414.55 703.458 414.1C703.012 413.65 702.406 413.394 701.772 413.388Z" fill="#D0E9F2"/>
<path d="M671.478 404.226C670.591 404.23 669.723 403.97 668.984 403.48C668.245 402.99 667.668 402.291 667.327 401.471C666.985 400.652 666.895 399.751 667.067 398.88C667.239 398.01 667.666 397.21 668.293 396.582C668.92 395.955 669.719 395.528 670.589 395.356C671.46 395.184 672.361 395.274 673.18 395.616C673.999 395.957 674.697 396.534 675.188 397.274C675.678 398.013 675.937 398.882 675.933 399.769C675.928 400.95 675.457 402.08 674.622 402.915C673.788 403.749 672.658 404.221 671.478 404.226ZM671.478 397.365C671.002 397.36 670.535 397.498 670.137 397.76C669.739 398.021 669.428 398.395 669.243 398.834C669.058 399.273 669.007 399.758 669.098 400.225C669.188 400.693 669.415 401.124 669.751 401.462C670.086 401.8 670.514 402.031 670.981 402.126C671.448 402.22 671.932 402.174 672.372 401.993C672.813 401.811 673.189 401.503 673.455 401.107C673.72 400.711 673.861 400.246 673.861 399.769C673.856 399.139 673.603 398.535 673.157 398.089C672.711 397.644 672.108 397.391 671.478 397.385V397.365Z" fill="#D0E9F2"/>
<path d="M651.835 431.444C650.95 431.444 650.084 431.181 649.348 430.689C648.612 430.197 648.039 429.498 647.7 428.68C647.361 427.862 647.272 426.961 647.445 426.093C647.618 425.224 648.044 424.426 648.67 423.8C649.296 423.174 650.093 422.747 650.962 422.575C651.83 422.402 652.73 422.491 653.548 422.829C654.365 423.168 655.064 423.742 655.556 424.479C656.048 425.215 656.31 426.081 656.31 426.966C656.31 428.154 655.839 429.293 655 430.132C654.16 430.972 653.022 431.444 651.835 431.444ZM651.835 424.582C651.238 424.638 650.684 424.914 650.281 425.357C649.878 425.8 649.654 426.377 649.654 426.977C649.654 427.576 649.878 428.153 650.281 428.596C650.684 429.039 651.238 429.315 651.835 429.371C652.168 429.402 652.504 429.363 652.821 429.257C653.138 429.151 653.429 428.979 653.677 428.754C653.924 428.529 654.121 428.254 654.256 427.948C654.392 427.642 654.461 427.311 654.461 426.977C654.461 426.642 654.392 426.311 654.256 426.005C654.121 425.699 653.924 425.425 653.677 425.199C653.429 424.974 653.138 424.803 652.821 424.696C652.504 424.59 652.168 424.551 651.835 424.582Z" fill="#D0E9F2"/>
<path d="M540.191 420.975C539.306 420.975 538.441 420.713 537.705 420.221C536.969 419.729 536.395 419.03 536.056 418.211C535.717 417.393 535.629 416.493 535.802 415.624C535.974 414.756 536.4 413.958 537.026 413.332C537.652 412.706 538.45 412.279 539.318 412.106C540.186 411.934 541.086 412.022 541.904 412.361C542.722 412.7 543.421 413.274 543.913 414.01C544.404 414.747 544.667 415.612 544.667 416.498C544.667 417.685 544.195 418.824 543.356 419.664C542.517 420.504 541.378 420.975 540.191 420.975ZM540.191 414.114C539.715 414.114 539.249 414.256 538.854 414.521C538.458 414.786 538.15 415.163 537.969 415.603C537.787 416.044 537.741 416.528 537.835 416.995C537.93 417.462 538.161 417.891 538.499 418.226C538.837 418.562 539.268 418.789 539.735 418.88C540.203 418.97 540.687 418.919 541.125 418.734C541.564 418.549 541.938 418.238 542.2 417.839C542.461 417.441 542.599 416.974 542.595 416.498C542.595 416.183 542.533 415.871 542.411 415.581C542.29 415.29 542.113 415.026 541.89 414.805C541.666 414.583 541.401 414.408 541.109 414.289C540.818 414.171 540.506 414.111 540.191 414.114Z" fill="#D0E9F2"/>
<path d="M452.045 450.142L451.444 450.121L330.393 449.624L330.414 447.551L450.822 448.048L459.463 432.232H503.246V434.305H460.706L452.045 450.142Z" fill="#D0E9F2"/>
<path d="M323.043 439.664L323.032 441.737L424.252 442.249L424.263 440.176L323.043 439.664Z" fill="#D0E9F2"/>
<path d="M459.339 467.119H350.927V465.046H458.199L466.757 451.469H517.336V453.542H467.896L459.339 467.119Z" fill="#D0E9F2"/>
<path d="M455.464 459.429H342.39V457.356H454.303L464.788 440.13H539.155V442.202H465.949L455.464 459.429Z" fill="#D0E9F2"/>
<path d="M541.02 444.649C540.332 444.649 539.658 444.444 539.086 444.062C538.514 443.679 538.067 443.135 537.804 442.499C537.54 441.862 537.471 441.162 537.606 440.487C537.74 439.811 538.072 439.191 538.558 438.703C539.045 438.216 539.666 437.885 540.341 437.75C541.016 437.616 541.716 437.685 542.352 437.949C542.988 438.212 543.532 438.659 543.914 439.231C544.297 439.804 544.501 440.477 544.501 441.166C544.501 442.09 544.134 442.975 543.481 443.629C542.829 444.282 541.943 444.649 541.02 444.649ZM541.02 439.777C540.678 439.819 540.364 439.984 540.136 440.242C539.908 440.5 539.782 440.832 539.782 441.176C539.782 441.521 539.908 441.853 540.136 442.111C540.364 442.369 540.678 442.534 541.02 442.576C541.218 442.6 541.419 442.582 541.609 442.522C541.8 442.463 541.975 442.364 542.125 442.232C542.274 442.099 542.393 441.937 542.475 441.755C542.557 441.573 542.6 441.376 542.6 441.176C542.6 440.977 542.557 440.78 542.475 440.598C542.393 440.416 542.274 440.253 542.125 440.121C541.975 439.989 541.8 439.89 541.609 439.83C541.419 439.771 541.218 439.753 541.02 439.777Z" fill="#D0E9F2"/>
<path d="M519.574 456.05C518.89 456.05 518.221 455.847 517.652 455.466C517.082 455.086 516.639 454.545 516.377 453.913C516.115 453.28 516.047 452.584 516.18 451.913C516.314 451.241 516.643 450.624 517.127 450.14C517.611 449.656 518.228 449.326 518.899 449.193C519.57 449.059 520.266 449.128 520.898 449.39C521.531 449.652 522.071 450.095 522.451 450.665C522.831 451.234 523.034 451.903 523.034 452.588C523.034 453.506 522.67 454.387 522.021 455.036C521.372 455.685 520.492 456.05 519.574 456.05ZM519.574 451.199C519.299 451.199 519.031 451.281 518.803 451.433C518.574 451.586 518.396 451.803 518.291 452.056C518.186 452.31 518.159 452.59 518.212 452.859C518.266 453.128 518.398 453.376 518.592 453.57C518.787 453.764 519.034 453.897 519.303 453.95C519.572 454.004 519.852 453.976 520.105 453.871C520.359 453.766 520.576 453.588 520.728 453.36C520.881 453.131 520.962 452.863 520.962 452.588C520.974 452.399 520.946 452.209 520.881 452.031C520.817 451.853 520.716 451.69 520.586 451.552C520.456 451.414 520.299 451.304 520.125 451.229C519.951 451.154 519.764 451.116 519.574 451.116V451.199Z" fill="#D0E9F2"/>
<path d="M505.691 436.73C505.001 436.734 504.325 436.533 503.749 436.152C503.174 435.77 502.724 435.227 502.458 434.59C502.192 433.952 502.122 433.25 502.255 432.573C502.389 431.896 502.721 431.273 503.209 430.785C503.697 430.297 504.319 429.964 504.996 429.831C505.674 429.697 506.375 429.768 507.012 430.034C507.649 430.3 508.193 430.75 508.573 431.325C508.954 431.901 509.156 432.577 509.151 433.268C509.146 434.184 508.78 435.062 508.132 435.71C507.484 436.358 506.607 436.724 505.691 436.73ZM505.691 431.858C505.319 431.864 504.964 432.014 504.701 432.277C504.438 432.54 504.287 432.896 504.282 433.268C504.288 433.638 504.438 433.991 504.702 434.251C504.966 434.511 505.321 434.657 505.691 434.657C506.059 434.657 506.412 434.511 506.673 434.25C506.933 433.99 507.079 433.636 507.079 433.268C507.079 432.898 506.934 432.542 506.674 432.279C506.414 432.015 506.061 431.864 505.691 431.858Z" fill="#D0E9F2"/>
<path d="M426.641 444.13C425.958 444.126 425.291 443.92 424.724 443.537C424.158 443.154 423.718 442.612 423.459 441.979C423.2 441.346 423.135 440.651 423.271 439.98C423.406 439.31 423.738 438.695 424.222 438.213C424.707 437.731 425.324 437.404 425.994 437.272C426.665 437.14 427.36 437.21 427.991 437.472C428.622 437.735 429.161 438.178 429.541 438.747C429.92 439.316 430.122 439.985 430.122 440.668C430.122 441.125 430.032 441.577 429.857 441.998C429.682 442.419 429.425 442.802 429.101 443.124C428.778 443.445 428.394 443.7 427.972 443.873C427.55 444.045 427.097 444.133 426.641 444.13ZM426.641 439.28C426.273 439.28 425.92 439.426 425.66 439.686C425.399 439.947 425.253 440.3 425.253 440.668C425.253 441.037 425.399 441.39 425.66 441.651C425.92 441.911 426.273 442.057 426.641 442.057C427.009 442.057 427.363 441.911 427.623 441.651C427.883 441.39 428.03 441.037 428.03 440.668C428.03 440.3 427.883 439.947 427.623 439.686C427.363 439.426 427.009 439.28 426.641 439.28Z" fill="#D0E9F2"/>
<path d="M503.246 249.749H459.463L450.822 233.912L330.414 234.41L330.393 232.337L452.045 231.839L460.706 247.677H503.246V249.749Z" fill="#D0E9F2"/>
<path d="M424.203 239.735L322.984 240.318L322.996 242.391L424.215 241.808L424.203 239.735Z" fill="#D0E9F2"/>
<path d="M517.336 230.492H466.757L458.199 216.914H350.927V214.841H459.339L467.896 228.419H517.336V230.492Z" fill="#D0E9F2"/>
<path d="M539.155 241.831H464.788L454.303 224.605H342.39V222.532H455.464L465.949 239.758H539.155V241.831Z" fill="#D0E9F2"/>
<path d="M541.02 244.256C540.337 244.252 539.67 244.046 539.103 243.663C538.537 243.28 538.097 242.738 537.838 242.105C537.579 241.472 537.514 240.776 537.649 240.106C537.785 239.436 538.116 238.821 538.601 238.339C539.086 237.857 539.703 237.529 540.373 237.398C541.044 237.266 541.739 237.335 542.37 237.598C543.001 237.861 543.54 238.304 543.919 238.873C544.299 239.442 544.501 240.111 544.501 240.794C544.501 241.251 544.411 241.703 544.236 242.124C544.061 242.545 543.804 242.928 543.48 243.25C543.157 243.571 542.773 243.826 542.351 243.999C541.928 244.171 541.476 244.259 541.02 244.256ZM541.02 239.405C540.652 239.405 540.299 239.552 540.038 239.812C539.778 240.073 539.632 240.426 539.632 240.794C539.632 241.163 539.778 241.516 540.038 241.776C540.299 242.037 540.652 242.183 541.02 242.183C541.388 242.183 541.741 242.037 542.002 241.776C542.262 241.516 542.408 241.163 542.408 240.794C542.408 240.426 542.262 240.073 542.002 239.812C541.741 239.552 541.388 239.405 541.02 239.405Z" fill="#D0E9F2"/>
<path d="M519.574 232.938C518.884 232.942 518.208 232.741 517.632 232.36C517.057 231.978 516.607 231.435 516.341 230.798C516.075 230.16 516.004 229.458 516.138 228.781C516.272 228.103 516.604 227.481 517.092 226.993C517.58 226.504 518.202 226.172 518.879 226.039C519.556 225.905 520.258 225.976 520.895 226.242C521.532 226.508 522.075 226.958 522.456 227.533C522.837 228.109 523.038 228.785 523.034 229.476C523.034 230.394 522.67 231.275 522.021 231.924C521.372 232.573 520.492 232.938 519.574 232.938ZM519.574 228.066C519.294 228.062 519.02 228.141 518.786 228.294C518.551 228.446 518.367 228.665 518.258 228.922C518.148 229.179 518.117 229.463 518.169 229.738C518.221 230.013 518.353 230.266 518.55 230.465C518.746 230.664 518.997 230.801 519.271 230.857C519.545 230.913 519.829 230.886 520.088 230.78C520.346 230.674 520.568 230.493 520.723 230.261C520.879 230.029 520.962 229.756 520.962 229.476C520.971 229.288 520.941 229.101 520.875 228.925C520.809 228.75 520.708 228.589 520.578 228.453C520.449 228.318 520.293 228.21 520.12 228.136C519.947 228.063 519.762 228.025 519.574 228.025V228.066Z" fill="#D0E9F2"/>
<path d="M505.691 252.175C505.007 252.175 504.338 251.972 503.769 251.591C503.2 251.211 502.756 250.67 502.494 250.038C502.232 249.405 502.164 248.709 502.297 248.038C502.431 247.366 502.76 246.749 503.244 246.265C503.728 245.781 504.345 245.451 505.016 245.318C505.687 245.184 506.383 245.253 507.015 245.515C507.648 245.777 508.188 246.22 508.568 246.79C508.948 247.359 509.151 248.028 509.151 248.713C509.146 249.629 508.78 250.507 508.132 251.155C507.484 251.803 506.607 252.169 505.691 252.175ZM505.691 247.324C505.323 247.324 504.97 247.47 504.709 247.731C504.449 247.991 504.303 248.345 504.303 248.713C504.303 249.081 504.449 249.435 504.709 249.695C504.97 249.956 505.323 250.102 505.691 250.102C506.059 250.102 506.412 249.956 506.673 249.695C506.933 249.435 507.079 249.081 507.079 248.713C507.079 248.345 506.933 247.991 506.673 247.731C506.412 247.47 506.059 247.324 505.691 247.324Z" fill="#D0E9F2"/>
<path d="M426.641 244.754C425.958 244.75 425.291 244.543 424.724 244.16C424.158 243.777 423.718 243.235 423.459 242.602C423.2 241.969 423.135 241.274 423.271 240.604C423.406 239.934 423.738 239.319 424.222 238.837C424.707 238.355 425.324 238.027 425.994 237.895C426.665 237.763 427.36 237.833 427.991 238.096C428.622 238.358 429.161 238.802 429.541 239.371C429.92 239.94 430.122 240.608 430.122 241.292C430.122 241.748 430.032 242.2 429.857 242.621C429.682 243.043 429.425 243.425 429.101 243.747C428.778 244.069 428.394 244.323 427.972 244.496C427.55 244.669 427.097 244.756 426.641 244.754ZM426.641 239.903C426.273 239.903 425.92 240.049 425.66 240.31C425.399 240.57 425.253 240.923 425.253 241.292C425.253 241.66 425.399 242.013 425.66 242.274C425.92 242.534 426.273 242.681 426.641 242.681C427.009 242.681 427.363 242.534 427.623 242.274C427.883 242.013 428.03 241.66 428.03 241.292C428.03 240.923 427.883 240.57 427.623 240.31C427.363 240.049 427.009 239.903 426.641 239.903Z" fill="#D0E9F2"/>
<path d="M575.831 276.242L378.424 275.537V273.464L574.608 274.169L586.813 251.802H648.416V253.875H588.036L575.831 276.242Z" fill="#D0E9F2"/>
<path d="M379.656 262.285L379.647 264.358L536.771 265.072L536.781 262.999L379.656 262.285Z" fill="#D0E9F2"/>
<path d="M586.15 300.247H521.46V298.174H584.99L597.091 278.999H668.287V281.072H598.23L586.15 300.247Z" fill="#D0E9F2"/>
<path d="M580.659 289.384H417.172V287.311H579.499L594.293 262.996H699.12V265.069H595.454L580.659 289.384Z" fill="#D0E9F2"/>
<path d="M701.772 268.489C700.885 268.493 700.017 268.233 699.278 267.743C698.538 267.253 697.962 266.553 697.62 265.734C697.279 264.915 697.189 264.013 697.361 263.143C697.533 262.272 697.959 261.473 698.587 260.845C699.214 260.218 700.013 259.791 700.883 259.619C701.753 259.447 702.655 259.537 703.474 259.879C704.292 260.22 704.991 260.797 705.481 261.537C705.972 262.276 706.231 263.145 706.227 264.032C706.221 265.212 705.75 266.343 704.916 267.178C704.082 268.012 702.952 268.484 701.772 268.489ZM701.772 261.627C701.296 261.623 700.829 261.761 700.431 262.023C700.033 262.284 699.722 262.658 699.537 263.097C699.352 263.536 699.301 264.021 699.391 264.488C699.482 264.956 699.709 265.387 700.044 265.725C700.38 266.063 700.808 266.294 701.275 266.389C701.741 266.483 702.226 266.437 702.666 266.256C703.107 266.074 703.483 265.766 703.748 265.37C704.013 264.974 704.155 264.509 704.155 264.032C704.155 263.398 703.904 262.789 703.458 262.339C703.012 261.889 702.406 261.633 701.772 261.627Z" fill="#D0E9F2"/>
<path d="M671.478 284.492C670.592 284.496 669.725 284.237 668.986 283.748C668.247 283.258 667.67 282.56 667.328 281.742C666.987 280.925 666.895 280.024 667.065 279.154C667.236 278.284 667.66 277.484 668.285 276.856C668.91 276.228 669.708 275.799 670.577 275.625C671.445 275.45 672.346 275.538 673.165 275.876C673.984 276.214 674.685 276.788 675.177 277.525C675.67 278.262 675.933 279.128 675.933 280.015C675.933 281.199 675.465 282.334 674.63 283.173C673.795 284.013 672.662 284.487 671.478 284.492ZM671.478 277.631C671.001 277.627 670.534 277.765 670.135 278.027C669.737 278.29 669.425 278.665 669.241 279.105C669.056 279.546 669.007 280.031 669.099 280.499C669.191 280.968 669.421 281.398 669.758 281.736C670.095 282.073 670.526 282.303 670.994 282.395C671.462 282.487 671.947 282.437 672.387 282.253C672.827 282.068 673.202 281.757 673.465 281.358C673.727 280.96 673.865 280.492 673.861 280.015C673.856 279.384 673.603 278.781 673.157 278.335C672.712 277.889 672.109 277.636 671.478 277.631Z" fill="#D0E9F2"/>
<path d="M651.835 257.316C650.95 257.316 650.084 257.053 649.348 256.561C648.612 256.069 648.039 255.37 647.7 254.552C647.361 253.734 647.272 252.833 647.445 251.965C647.618 251.096 648.044 250.298 648.67 249.672C649.296 249.046 650.093 248.619 650.962 248.447C651.83 248.274 652.73 248.363 653.548 248.701C654.365 249.04 655.064 249.614 655.556 250.351C656.048 251.087 656.31 251.953 656.31 252.838C656.31 254.026 655.839 255.165 655 256.004C654.16 256.844 653.022 257.316 651.835 257.316ZM651.835 250.454C651.359 250.454 650.893 250.596 650.497 250.861C650.102 251.126 649.794 251.503 649.612 251.944C649.431 252.384 649.385 252.869 649.479 253.336C649.573 253.803 649.804 254.231 650.143 254.567C650.481 254.902 650.911 255.129 651.379 255.22C651.846 255.31 652.33 255.26 652.769 255.074C653.208 254.889 653.582 254.578 653.843 254.18C654.105 253.782 654.243 253.315 654.238 252.838C654.238 252.523 654.176 252.212 654.055 251.921C653.934 251.631 653.757 251.367 653.533 251.145C653.31 250.924 653.045 250.748 652.753 250.63C652.462 250.511 652.149 250.452 651.835 250.454Z" fill="#D0E9F2"/>
<path d="M540.191 267.784C539.306 267.784 538.441 267.522 537.705 267.03C536.969 266.538 536.395 265.838 536.056 265.02C535.717 264.202 535.629 263.302 535.802 262.433C535.974 261.564 536.4 260.767 537.026 260.14C537.652 259.514 538.45 259.088 539.318 258.915C540.186 258.742 541.086 258.831 541.904 259.17C542.722 259.509 543.421 260.083 543.913 260.819C544.404 261.555 544.667 262.421 544.667 263.307C544.667 264.494 544.195 265.633 543.356 266.473C542.517 267.312 541.378 267.784 540.191 267.784ZM540.191 260.923C539.715 260.923 539.249 261.064 538.854 261.329C538.458 261.595 538.15 261.971 537.969 262.412C537.787 262.853 537.741 263.337 537.835 263.804C537.93 264.271 538.161 264.7 538.499 265.035C538.837 265.37 539.268 265.598 539.735 265.688C540.203 265.779 540.687 265.728 541.125 265.543C541.564 265.358 541.938 265.046 542.2 264.648C542.461 264.25 542.599 263.783 542.595 263.307C542.589 262.672 542.334 262.066 541.884 261.62C541.433 261.173 540.825 260.923 540.191 260.923Z" fill="#D0E9F2"/>
<path d="M534.597 590.937C534.265 590.933 533.941 590.832 533.666 590.646C533.391 590.461 533.176 590.198 533.048 589.892C532.92 589.585 532.885 589.248 532.947 588.922C533.008 588.595 533.164 588.294 533.395 588.056C533.552 587.899 533.677 587.714 533.762 587.509C533.847 587.305 533.891 587.085 533.891 586.864C533.891 586.642 533.847 586.423 533.762 586.218C533.677 586.013 533.552 585.828 533.395 585.672L530.515 582.769C530.359 582.612 530.173 582.487 529.968 582.402C529.764 582.317 529.545 582.273 529.323 582.273C529.102 582.273 528.882 582.317 528.678 582.402C528.473 582.487 528.288 582.612 528.132 582.769C527.898 583.009 527.598 583.174 527.271 583.242C526.943 583.31 526.603 583.278 526.293 583.151C525.983 583.024 525.719 582.807 525.533 582.529C525.348 582.25 525.25 581.923 525.252 581.588C525.252 581.137 525.073 580.705 524.754 580.386C524.435 580.067 524.003 579.888 523.552 579.888H519.408C518.958 579.888 518.525 580.067 518.207 580.386C517.888 580.705 517.709 581.137 517.709 581.588C517.711 581.923 517.613 582.25 517.427 582.529C517.242 582.807 516.977 583.024 516.668 583.151C516.358 583.278 516.018 583.31 515.69 583.242C515.362 583.174 515.063 583.009 514.829 582.769C514.673 582.612 514.487 582.487 514.283 582.402C514.078 582.317 513.859 582.273 513.637 582.273C513.416 582.273 513.197 582.317 512.992 582.402C512.788 582.487 512.602 582.612 512.446 582.769L509.566 585.672C509.409 585.828 509.284 586.013 509.199 586.218C509.113 586.423 509.07 586.642 509.07 586.864C509.07 587.085 509.113 587.305 509.199 587.509C509.284 587.714 509.409 587.899 509.566 588.056C509.797 588.294 509.952 588.595 510.014 588.922C510.076 589.248 510.04 589.585 509.913 589.892C509.785 590.198 509.57 590.461 509.295 590.646C509.02 590.832 508.696 590.933 508.364 590.937C507.919 590.937 507.492 591.114 507.177 591.429C506.862 591.744 506.686 592.171 506.686 592.616V596.762C506.686 597.207 506.862 597.634 507.177 597.949C507.492 598.264 507.919 598.441 508.364 598.441C508.696 598.445 509.02 598.546 509.295 598.732C509.57 598.917 509.785 599.18 509.913 599.486C510.04 599.793 510.076 600.13 510.014 600.456C509.952 600.783 509.797 601.084 509.566 601.322C509.409 601.478 509.284 601.664 509.199 601.869C509.113 602.073 509.07 602.293 509.07 602.514C509.07 602.736 509.113 602.955 509.199 603.16C509.284 603.365 509.409 603.55 509.566 603.706L512.446 606.608C512.602 606.766 512.788 606.891 512.992 606.976C513.197 607.061 513.416 607.105 513.637 607.105C513.859 607.105 514.078 607.061 514.283 606.976C514.487 606.891 514.673 606.766 514.829 606.608C515.063 606.369 515.362 606.204 515.69 606.136C516.018 606.068 516.358 606.1 516.668 606.227C516.977 606.354 517.242 606.571 517.427 606.849C517.613 607.128 517.711 607.455 517.709 607.79C517.709 608.241 517.888 608.673 518.207 608.992C518.525 609.311 518.958 609.49 519.408 609.49H523.552C524.003 609.49 524.435 609.311 524.754 608.992C525.073 608.673 525.252 608.241 525.252 607.79C525.25 607.455 525.348 607.128 525.533 606.849C525.719 606.571 525.983 606.354 526.293 606.227C526.603 606.1 526.943 606.068 527.271 606.136C527.598 606.204 527.898 606.369 528.132 606.608C528.288 606.766 528.473 606.891 528.678 606.976C528.882 607.061 529.102 607.105 529.323 607.105C529.545 607.105 529.764 607.061 529.968 606.976C530.173 606.891 530.359 606.766 530.515 606.608L533.395 603.706C533.552 603.55 533.677 603.365 533.762 603.16C533.847 602.955 533.891 602.736 533.891 602.514C533.891 602.293 533.847 602.073 533.762 601.869C533.677 601.664 533.552 601.478 533.395 601.322C533.164 601.084 533.008 600.783 532.947 600.456C532.885 600.13 532.92 599.793 533.048 599.486C533.176 599.18 533.391 598.917 533.666 598.732C533.941 598.546 534.265 598.445 534.597 598.441C535.042 598.441 535.469 598.264 535.783 597.949C536.098 597.634 536.275 597.207 536.275 596.762V592.616C536.275 592.171 536.098 591.744 535.783 591.429C535.469 591.114 535.042 590.937 534.597 590.937ZM521.522 604.079C519.661 604.079 517.842 603.527 516.295 602.493C514.748 601.459 513.543 599.989 512.831 598.27C512.119 596.55 511.932 594.658 512.295 592.832C512.658 591.007 513.554 589.33 514.87 588.013C516.185 586.697 517.862 585.801 519.687 585.438C521.511 585.075 523.403 585.261 525.122 585.973C526.841 586.686 528.31 587.892 529.344 589.44C530.377 590.987 530.929 592.807 530.929 594.668C530.926 595.907 530.68 597.133 530.203 598.276C529.727 599.419 529.03 600.458 528.153 601.332C527.276 602.205 526.235 602.898 525.09 603.369C523.945 603.841 522.718 604.082 521.48 604.079H521.522Z" fill="#2D83A6"/>
<path d="M527.51 594.668C527.51 595.865 527.155 597.036 526.49 598.031C525.826 599.027 524.881 599.802 523.775 600.26C522.669 600.719 521.453 600.838 520.279 600.605C519.106 600.371 518.027 599.795 517.181 598.948C516.335 598.102 515.759 597.023 515.525 595.849C515.292 594.675 515.412 593.458 515.87 592.352C516.328 591.246 517.103 590.3 518.098 589.635C519.093 588.97 520.263 588.615 521.46 588.615C522.254 588.615 523.041 588.772 523.775 589.076C524.509 589.38 525.176 589.826 525.738 590.388C526.3 590.95 526.745 591.617 527.049 592.352C527.354 593.086 527.51 593.873 527.51 594.668Z" fill="#2D83A6"/>
<path d="M496.305 193.531C496.138 193.533 495.975 193.485 495.836 193.392C495.697 193.3 495.59 193.168 495.527 193.014C495.465 192.859 495.45 192.69 495.485 192.527C495.52 192.364 495.604 192.215 495.724 192.101C495.803 192.022 495.866 191.928 495.909 191.825C495.951 191.722 495.973 191.611 495.973 191.499C495.973 191.388 495.951 191.277 495.909 191.174C495.866 191.071 495.803 190.977 495.724 190.898L494.274 189.447C494.195 189.368 494.101 189.306 493.998 189.263C493.895 189.22 493.785 189.198 493.673 189.198C493.561 189.198 493.451 189.22 493.348 189.263C493.245 189.306 493.151 189.368 493.072 189.447C492.957 189.568 492.809 189.651 492.646 189.687C492.483 189.722 492.314 189.707 492.159 189.645C492.005 189.582 491.873 189.474 491.781 189.335C491.689 189.197 491.64 189.033 491.642 188.867C491.642 188.641 491.553 188.425 491.394 188.266C491.234 188.106 491.018 188.017 490.793 188.017H488.721C488.61 188.017 488.501 188.039 488.399 188.082C488.297 188.125 488.204 188.188 488.127 188.267C488.05 188.346 487.989 188.44 487.949 188.543C487.909 188.646 487.889 188.756 487.892 188.867C487.888 189.033 487.835 189.195 487.74 189.331C487.645 189.468 487.513 189.574 487.358 189.636C487.204 189.698 487.034 189.713 486.871 189.679C486.709 189.646 486.559 189.565 486.441 189.447C486.364 189.369 486.272 189.307 486.171 189.264C486.07 189.222 485.961 189.2 485.851 189.2C485.741 189.2 485.632 189.222 485.531 189.264C485.429 189.307 485.337 189.369 485.26 189.447L483.81 190.898C483.731 190.977 483.668 191.071 483.626 191.174C483.583 191.277 483.561 191.388 483.561 191.499C483.561 191.611 483.583 191.722 483.626 191.825C483.668 191.928 483.731 192.022 483.81 192.101C483.932 192.217 484.016 192.367 484.051 192.532C484.085 192.697 484.069 192.868 484.004 193.024C483.938 193.179 483.827 193.311 483.686 193.401C483.544 193.492 483.377 193.537 483.209 193.531C482.984 193.531 482.768 193.621 482.608 193.78C482.449 193.939 482.359 194.155 482.359 194.381V196.454C482.365 196.676 482.457 196.887 482.615 197.041C482.774 197.196 482.987 197.283 483.209 197.283C483.377 197.283 483.541 197.333 483.681 197.426C483.821 197.52 483.93 197.652 483.994 197.808C484.059 197.963 484.075 198.134 484.043 198.299C484.01 198.464 483.929 198.615 483.81 198.734C483.732 198.811 483.669 198.903 483.627 199.005C483.584 199.106 483.563 199.215 483.563 199.325C483.563 199.435 483.584 199.544 483.627 199.645C483.669 199.747 483.732 199.839 483.81 199.916L485.26 201.367C485.337 201.445 485.429 201.507 485.531 201.55C485.632 201.592 485.741 201.614 485.851 201.614C485.961 201.614 486.07 201.592 486.171 201.55C486.272 201.507 486.364 201.445 486.441 201.367C486.56 201.248 486.712 201.167 486.877 201.134C487.041 201.101 487.212 201.118 487.368 201.182C487.523 201.247 487.656 201.356 487.749 201.496C487.842 201.635 487.892 201.8 487.892 201.968C487.892 202.19 487.978 202.403 488.133 202.562C488.288 202.72 488.499 202.812 488.721 202.818H490.793C491.018 202.818 491.234 202.728 491.394 202.569C491.553 202.409 491.642 202.193 491.642 201.968C491.636 201.8 491.681 201.633 491.772 201.491C491.863 201.349 491.994 201.238 492.149 201.173C492.305 201.108 492.476 201.091 492.641 201.126C492.806 201.16 492.956 201.244 493.072 201.367C493.151 201.446 493.245 201.508 493.348 201.551C493.451 201.594 493.561 201.616 493.673 201.616C493.785 201.616 493.895 201.594 493.998 201.551C494.101 201.508 494.195 201.446 494.274 201.367L495.724 199.916C495.803 199.839 495.865 199.747 495.907 199.645C495.95 199.544 495.972 199.435 495.972 199.325C495.972 199.215 495.95 199.106 495.907 199.005C495.865 198.903 495.803 198.811 495.724 198.734C495.607 198.616 495.526 198.467 495.493 198.304C495.459 198.141 495.474 197.972 495.536 197.817C495.598 197.663 495.703 197.53 495.84 197.435C495.977 197.34 496.138 197.287 496.305 197.283C496.415 197.286 496.525 197.266 496.628 197.226C496.731 197.186 496.825 197.125 496.904 197.048C496.983 196.97 497.046 196.878 497.089 196.776C497.132 196.674 497.154 196.564 497.154 196.454V194.381C497.154 194.155 497.065 193.939 496.905 193.78C496.746 193.621 496.53 193.531 496.305 193.531ZM489.777 200.102C488.847 200.102 487.938 199.826 487.164 199.309C486.391 198.792 485.788 198.057 485.432 197.197C485.076 196.338 484.983 195.391 485.164 194.479C485.346 193.566 485.794 192.727 486.452 192.069C487.109 191.411 487.947 190.963 488.86 190.781C489.772 190.6 490.718 190.693 491.577 191.049C492.437 191.405 493.172 192.009 493.688 192.782C494.205 193.556 494.481 194.466 494.481 195.397C494.484 196.015 494.364 196.628 494.129 197.201C493.893 197.773 493.547 198.293 493.11 198.73C492.672 199.168 492.153 199.514 491.581 199.75C491.009 199.985 490.396 200.105 489.777 200.102Z" fill="#2D83A6"/>
<path d="M492.803 195.397C492.803 195.995 492.625 196.58 492.293 197.078C491.96 197.576 491.488 197.964 490.935 198.193C490.382 198.422 489.774 198.482 489.187 198.365C488.6 198.248 488.061 197.96 487.638 197.537C487.215 197.113 486.927 196.574 486.81 195.987C486.694 195.4 486.754 194.791 486.983 194.238C487.211 193.685 487.599 193.213 488.097 192.88C488.594 192.548 489.179 192.37 489.777 192.37C490.58 192.37 491.349 192.689 491.917 193.257C492.484 193.824 492.803 194.594 492.803 195.397Z" fill="#2D83A6"/>
<path d="M510.457 325.765C510.248 325.764 510.044 325.702 509.871 325.586C509.698 325.469 509.563 325.305 509.483 325.112C509.403 324.919 509.382 324.707 509.423 324.502C509.463 324.297 509.564 324.109 509.711 323.961C509.908 323.763 510.019 323.495 510.019 323.215C510.019 322.935 509.908 322.667 509.711 322.469L507.908 320.665C507.707 320.466 507.435 320.355 507.152 320.355C506.869 320.355 506.597 320.466 506.396 320.665C506.248 320.813 506.06 320.913 505.855 320.953C505.65 320.994 505.438 320.973 505.246 320.893C505.053 320.813 504.888 320.678 504.772 320.505C504.656 320.332 504.593 320.128 504.593 319.919C504.593 319.639 504.482 319.37 504.283 319.171C504.085 318.973 503.816 318.862 503.536 318.862H500.987C500.707 318.862 500.438 318.973 500.24 319.171C500.042 319.37 499.931 319.639 499.931 319.919C499.93 320.128 499.868 320.332 499.752 320.505C499.636 320.678 499.471 320.813 499.278 320.893C499.085 320.973 498.873 320.994 498.668 320.953C498.464 320.913 498.276 320.813 498.128 320.665C497.93 320.468 497.662 320.357 497.382 320.357C497.102 320.357 496.834 320.468 496.636 320.665L494.813 322.469C494.615 322.667 494.504 322.935 494.504 323.215C494.504 323.495 494.615 323.763 494.813 323.961C494.96 324.109 495.06 324.297 495.101 324.502C495.141 324.707 495.12 324.919 495.041 325.112C494.961 325.305 494.826 325.469 494.652 325.586C494.479 325.702 494.275 325.764 494.067 325.765C493.786 325.765 493.518 325.876 493.319 326.074C493.121 326.273 493.01 326.542 493.01 326.822V329.392C493.01 329.673 493.121 329.942 493.319 330.14C493.518 330.338 493.786 330.45 494.067 330.45C494.275 330.45 494.479 330.512 494.652 330.629C494.826 330.745 494.961 330.91 495.041 331.103C495.12 331.295 495.141 331.508 495.101 331.712C495.06 331.917 494.96 332.105 494.813 332.253C494.615 332.451 494.504 332.72 494.504 332.999C494.504 333.279 494.615 333.547 494.813 333.746L496.636 335.57C496.834 335.767 497.102 335.878 497.382 335.878C497.662 335.878 497.93 335.767 498.128 335.57C498.276 335.422 498.464 335.322 498.668 335.282C498.873 335.241 499.085 335.262 499.278 335.342C499.471 335.422 499.636 335.557 499.752 335.73C499.868 335.903 499.93 336.107 499.931 336.316C499.931 336.596 500.042 336.865 500.24 337.064C500.438 337.262 500.707 337.373 500.987 337.373H503.515C503.796 337.373 504.064 337.262 504.263 337.064C504.461 336.865 504.572 336.596 504.572 336.316C504.573 336.107 504.635 335.903 504.751 335.73C504.867 335.557 505.032 335.422 505.225 335.342C505.418 335.262 505.63 335.241 505.834 335.282C506.039 335.322 506.227 335.422 506.375 335.57C506.576 335.769 506.848 335.88 507.131 335.88C507.414 335.88 507.686 335.769 507.887 335.57L509.732 333.746C509.929 333.547 510.04 333.279 510.04 332.999C510.04 332.72 509.929 332.451 509.732 332.253C509.584 332.105 509.484 331.917 509.444 331.712C509.403 331.508 509.424 331.295 509.504 331.103C509.583 330.91 509.719 330.745 509.892 330.629C510.065 330.512 510.269 330.45 510.478 330.45C510.758 330.45 511.027 330.338 511.225 330.14C511.423 329.942 511.534 329.673 511.534 329.392V326.822C511.534 326.681 511.506 326.542 511.452 326.412C511.398 326.283 511.318 326.165 511.218 326.067C511.117 325.968 510.998 325.891 510.868 325.839C510.737 325.787 510.597 325.762 510.457 325.765ZM502.272 334.056C501.103 334.061 499.959 333.718 498.986 333.071C498.012 332.424 497.252 331.503 496.801 330.424C496.351 329.345 496.231 328.156 496.457 327.009C496.682 325.861 497.243 324.807 498.068 323.978C498.893 323.15 499.946 322.585 501.092 322.356C502.238 322.126 503.426 322.242 504.507 322.688C505.587 323.135 506.51 323.892 507.16 324.864C507.81 325.836 508.157 326.979 508.157 328.149C508.146 329.705 507.522 331.194 506.42 332.292C505.318 333.39 503.828 334.01 502.272 334.015V334.056Z" fill="#2D83A6"/>
<path d="M506.043 328.107C506.043 328.858 505.82 329.593 505.403 330.217C504.985 330.841 504.392 331.327 503.698 331.614C503.004 331.9 502.24 331.974 501.504 331.826C500.768 331.678 500.092 331.315 499.563 330.782C499.033 330.249 498.674 329.572 498.53 328.834C498.386 328.097 498.464 327.334 498.754 326.641C499.044 325.948 499.534 325.357 500.16 324.943C500.786 324.528 501.521 324.309 502.272 324.314C502.769 324.314 503.261 324.412 503.72 324.603C504.179 324.794 504.596 325.073 504.946 325.426C505.297 325.778 505.574 326.197 505.762 326.657C505.95 327.117 506.046 327.61 506.043 328.107Z" fill="#2D83A6"/>
<path d="M236.196 135.26C238.748 135.26 240.817 133.191 240.817 130.638C240.817 128.085 238.748 126.015 236.196 126.015C233.644 126.015 231.576 128.085 231.576 130.638C231.576 133.191 233.644 135.26 236.196 135.26Z" fill="#2D83A6"/>
<path d="M127.454 174.999C127.458 175.629 127.274 176.246 126.926 176.771C126.579 177.296 126.083 177.706 125.501 177.947C124.92 178.189 124.28 178.253 123.662 178.129C123.045 178.006 122.478 177.701 122.034 177.254C121.591 176.808 121.29 176.239 121.171 175.62C121.051 175.002 121.119 174.362 121.364 173.782C121.61 173.202 122.023 172.708 122.55 172.364C123.077 172.019 123.695 171.84 124.325 171.848C125.157 171.853 125.952 172.188 126.538 172.778C127.125 173.368 127.454 174.167 127.454 174.999Z" fill="#2D83A6"/>
<path d="M195.024 471.141C195.028 471.769 194.846 472.384 194.5 472.909C194.154 473.433 193.66 473.843 193.081 474.086C192.503 474.329 191.864 474.395 191.248 474.275C190.632 474.155 190.065 473.854 189.62 473.412C189.174 472.969 188.87 472.404 188.746 471.788C188.622 471.172 188.684 470.533 188.923 469.953C189.162 469.372 189.569 468.875 190.09 468.526C190.612 468.177 191.226 467.99 191.854 467.99C192.691 467.99 193.494 468.321 194.088 468.912C194.682 469.502 195.019 470.303 195.024 471.141Z" fill="#2D83A6"/>
<path d="M638.449 204.891C638.385 205.685 638.024 206.426 637.439 206.966C636.853 207.506 636.086 207.806 635.289 207.806C634.493 207.806 633.726 207.506 633.14 206.966C632.555 206.426 632.194 205.685 632.129 204.891C632.094 204.454 632.149 204.015 632.292 203.601C632.435 203.186 632.662 202.806 632.959 202.484C633.256 202.162 633.616 201.905 634.017 201.729C634.418 201.554 634.851 201.463 635.289 201.463C635.727 201.463 636.16 201.554 636.561 201.729C636.963 201.905 637.323 202.162 637.62 202.484C637.917 202.806 638.144 203.186 638.286 203.601C638.429 204.015 638.485 204.454 638.449 204.891Z" fill="#2D83A6"/>
<path d="M256.586 616.994C258.337 616.994 259.756 615.574 259.756 613.822C259.756 612.071 258.337 610.651 256.586 610.651C254.835 610.651 253.415 612.071 253.415 613.822C253.415 615.574 254.835 616.994 256.586 616.994Z" fill="#2D83A6"/>
<path d="M684.035 509.117C685.786 509.117 687.205 507.697 687.205 505.946C687.205 504.194 685.786 502.774 684.035 502.774C682.284 502.774 680.865 504.194 680.865 505.946C680.865 507.697 682.284 509.117 684.035 509.117Z" fill="#2D83A6"/>
<path d="M594.107 607.707C594.107 608.335 593.92 608.949 593.571 609.471C593.222 609.993 592.725 610.4 592.145 610.639C591.564 610.879 590.926 610.94 590.31 610.816C589.695 610.692 589.13 610.388 588.687 609.942C588.245 609.497 587.945 608.93 587.825 608.313C587.705 607.696 587.77 607.058 588.013 606.479C588.257 605.9 588.666 605.406 589.19 605.06C589.714 604.714 590.329 604.531 590.957 604.536C591.372 604.536 591.784 604.618 592.167 604.777C592.551 604.937 592.899 605.171 593.192 605.466C593.484 605.761 593.716 606.11 593.873 606.495C594.03 606.88 594.109 607.292 594.107 607.707Z" fill="#2D83A6"/>
<path d="M684.035 151.035C684.07 151.472 684.015 151.911 683.872 152.326C683.729 152.74 683.502 153.12 683.206 153.442C682.909 153.764 682.548 154.021 682.147 154.197C681.746 154.372 681.313 154.463 680.875 154.463C680.437 154.463 680.004 154.372 679.603 154.197C679.202 154.021 678.841 153.764 678.544 153.442C678.248 153.12 678.021 152.74 677.878 152.326C677.735 151.911 677.68 151.472 677.715 151.035C677.779 150.241 678.14 149.5 678.726 148.96C679.311 148.42 680.079 148.12 680.875 148.12C681.671 148.12 682.439 148.42 683.024 148.96C683.61 149.5 683.971 150.241 684.035 151.035Z" fill="#2D83A6"/>
<path d="M212.575 57.483C214.394 57.483 215.869 56.0073 215.869 54.187C215.869 52.3667 214.394 50.891 212.575 50.891C210.755 50.891 209.28 52.3667 209.28 54.187C209.28 56.0073 210.755 57.483 212.575 57.483Z" fill="#2D83A6"/>
<path d="M283.688 264.944C261.994 312.208 287.563 354.662 287.563 354.662C287.563 354.662 271.65 386.502 271.152 400.018C270.655 413.534 285.657 406.237 288.516 411.108C291.376 415.98 285.698 426.324 289.967 428.48C299.167 433.123 293.406 440.192 295.085 444.4C296.763 448.608 306.357 441.974 307.807 454.039C309.258 466.104 328.052 495.042 356.025 469.959C383.998 444.877 404.242 405.325 404.242 405.325C404.242 405.325 383.998 373.484 376.269 342.597C368.54 311.71 380.123 278.335 394.11 258.663C408.096 238.991 409.547 208.498 404.242 200.31C404.242 200.31 310.252 207.067 283.688 264.944Z" fill="#97C1D0"/>
<path d="M411.448 320.036H408.028L417.919 293.098H421.286L431.178 320.036H427.758L419.708 297.36H419.498L411.448 320.036ZM412.71 309.513H426.495V312.407H412.71V309.513ZM438.636 293.098V320.036H435.374V293.098H438.636Z" fill="#D0E9F2"/>
</g>
<defs>
<clipPath id="clip0_1_46">
<rect width="725" height="699" fill="white"/>
</clipPath>
</defs>
</svg>
