<svg width="668" height="414" viewBox="0 0 668 414" fill="none" xmlns="http://www.w3.org/2000/svg">
<path d="M568.52 281.76C564.431 279.188 559.805 277.59 555 277.09C552.79 276.87 550.37 276.93 548.59 278.27C548.387 278.39 548.22 278.562 548.104 278.767C547.988 278.972 547.928 279.204 547.93 279.44C548.04 279.772 548.263 280.055 548.56 280.24C551.437 282.295 554.822 283.522 558.348 283.79C561.873 284.058 565.405 283.356 568.56 281.76" fill="#0070E7"/>
<path d="M568.17 281.37C565.032 279.066 562.104 276.489 559.42 273.67C556.725 270.837 554.833 267.337 553.94 263.53C553.761 262.966 553.707 262.37 553.782 261.783C553.856 261.196 554.057 260.632 554.37 260.13C561.37 265.58 566.82 272.63 568.17 281.37Z" fill="#0070E7"/>
<path d="M568.45 281.7C567.798 277.896 567.852 274.004 568.61 270.22C569.387 266.404 571.572 263.02 574.73 260.74C575.93 263.55 575.42 266.8 574.57 269.74C573.255 274.302 571.205 278.618 568.5 282.52" fill="#0070E7"/>
<path d="M575.29 294C571.13 294.51 567.52 296.7 564.42 299.5C561.305 302.336 559.137 306.061 558.21 310.17C562.28 309.92 565.73 307.05 568.21 303.83C570.69 300.61 572.45 297.08 575.21 294.07" fill="#0070E7"/>
<path d="M576.77 295.91C575.138 291.762 574.566 287.273 575.105 282.849C575.645 278.424 577.279 274.204 579.86 270.57C582.23 278.98 581.36 288.48 576.77 295.91Z" fill="#0070E7"/>
<path d="M585.8 306.67C582.007 306.438 578.23 307.326 574.937 309.223C571.644 311.12 568.982 313.942 567.28 317.34C567.132 317.548 567.041 317.792 567.018 318.047C566.995 318.302 567.041 318.559 567.15 318.79C567.311 318.945 567.506 319.059 567.721 319.121C567.935 319.184 568.161 319.194 568.38 319.15C572.03 318.91 575.27 316.72 577.94 314.22C580.61 311.72 582.94 308.82 585.89 306.66" fill="#0070E7"/>
<path d="M585.52 306.09C583.571 299.828 583.45 293.139 585.17 286.81C585.85 284.33 586.99 281.72 589.28 280.55C589.467 280.432 589.694 280.392 589.91 280.44C590.095 280.539 590.237 280.703 590.31 280.9C591.095 282.633 591.438 284.532 591.31 286.43C591.178 288.317 590.891 290.19 590.45 292.03C589.72 295.45 589.34 299.13 587.45 302.08C587.008 302.792 586.611 303.53 586.26 304.29C585.9 305.04 585.9 305.29 585.58 305.9" fill="#0070E7"/>
<path d="M609.43 309.65C607.66 302.91 609.54 294.74 613.79 289.21C614.1 288.81 614.51 288.37 615.02 288.42C615.81 288.49 616.02 289.53 616.02 290.32C615.701 297.25 613.435 303.95 609.48 309.65" fill="#0070E7"/>
<path d="M611.59 311.12C615.775 312.099 620.123 312.159 624.334 311.296C628.544 310.433 632.518 308.667 635.98 306.12C631.896 304.071 627.228 303.499 622.77 304.5C618.36 305.5 614.33 307.5 611.59 311.08" fill="#0070E7"/>
<path d="M613.4 306.63C617.99 299.16 626.78 294.28 635.54 293.83C634.54 297.4 631.6 300.17 628.3 301.83C624.919 303.37 621.342 304.437 617.67 305C616.26 305.27 614.32 305.57 613.4 306.68" fill="#0070E7"/>
<path d="M609.89 284.86C611.281 280.636 612.229 276.28 612.72 271.86C613.206 267.418 612.301 262.935 610.13 259.03C605.85 267.32 605.42 277.03 609.76 285.27" fill="#0070E7"/>
<path d="M624.31 277.57C629.31 268.47 639.54 261.2 649.88 260.18C645.88 270.11 635.01 277.79 624.31 277.57Z" fill="#0070E7"/>
<path d="M621.15 279.36C628.63 280.49 634.99 285.27 641.97 288.16C643.434 288.866 645.058 289.176 646.68 289.06C647.435 289.052 648.168 288.812 648.782 288.373C649.396 287.933 649.859 287.316 650.11 286.604C650.361 285.893 650.388 285.121 650.185 284.394C649.983 283.667 649.562 283.02 648.98 282.54C647.994 281.628 646.834 280.924 645.57 280.47C637.96 277.3 629.81 277.22 621.8 279.14" fill="#0070E7"/>
<path d="M616.83 284.6C618.52 285.08 619.1 285.96 620.44 287.1C625.008 290.985 630.412 293.76 636.23 295.21C636.83 295.36 637.62 295.41 637.92 294.87C638.22 294.33 637.85 293.82 637.51 293.39C634.97 290.419 631.678 288.185 627.98 286.92C624.34 285.57 621.18 283.92 616.83 284.28" fill="#0070E7"/>
<path d="M612 253C615.064 255.824 618.686 257.976 622.631 259.318C626.577 260.66 630.759 261.161 634.91 260.79C635.277 260.79 635.631 260.658 635.91 260.42C636.49 259.79 635.79 258.82 635.12 258.3C628.39 253.05 620.23 250.87 611.96 253" fill="#0070E7"/>
<path d="M617.74 250.83C621.795 247.848 626.498 245.866 631.465 245.048C636.432 244.229 641.522 244.597 646.32 246.12C642.582 249.592 637.785 251.705 632.7 252.12C627.664 252.579 622.587 252.149 617.7 250.85" fill="#0070E7"/>
<path d="M615.44 236.29C614.78 229.57 615.21 224.29 614.74 217.51C614.74 216.97 614.59 216.32 614.08 216.13C613.38 215.86 612.79 216.72 612.56 217.44C611.584 220.57 611.335 223.881 611.832 227.122C612.329 230.363 613.56 233.447 615.43 236.14" fill="#0070E7"/>
<path d="M615 237C619.391 234.167 623.174 230.489 626.13 226.18C628.33 223.18 630.13 219.57 629.68 215.88C628.136 215.927 626.621 216.309 625.24 216.999C623.858 217.69 622.644 218.673 621.68 219.88C619.761 222.31 618.368 225.113 617.59 228.11C616.7 231.11 616.07 234.11 615.03 237.01" fill="#0070E7"/>
<path d="M625.89 234C635.913 230.288 645.192 224.815 653.29 217.84C650.02 216.52 646.29 217.31 643 218.63C635.573 221.445 629.436 226.885 625.75 233.92" fill="#0070E7"/>
<path d="M618 240.71C623.043 241.426 628.16 241.453 633.21 240.79C638.15 239.96 642.81 238.01 647.42 236.07C647.838 235.964 648.197 235.698 648.42 235.33C648.492 235.118 648.498 234.888 648.438 234.672C648.377 234.456 648.252 234.264 648.08 234.12C647.725 233.841 647.311 233.647 646.87 233.55C641.87 232.15 636.45 232.81 631.52 234.47C626.808 236.073 622.277 238.164 618 240.71Z" fill="#0070E7"/>
<path d="M589.15 253.18C585.7 246.18 585.92 238.09 588.9 230.91C591 234.1 591.26 238.18 590.9 241.98C590.54 245.78 589.36 249.7 589.29 253.53" fill="#0070E7"/>
<path d="M575.36 246.23C571.04 246.17 566.756 247.013 562.781 248.706C558.807 250.399 555.23 252.904 552.28 256.06C556.633 256.585 561.043 255.769 564.92 253.72C568.767 251.677 572.395 249.248 575.75 246.47" fill="#0070E7"/>
<path d="M566.1 243.13C561.88 242.79 557.83 242.26 553.77 243.51C551.721 244.088 549.821 245.103 548.201 246.483C546.58 247.864 545.277 249.579 544.38 251.51C548.356 251.831 552.345 251.078 555.93 249.33C559.495 247.581 562.899 245.52 566.1 243.17" fill="#0070E7"/>
<path d="M579.82 243.27C576.03 240.78 572.13 238.27 567.72 237.27C563.31 236.27 558.19 237 555.11 240.27C558.68 242.37 563.02 242.62 567.11 242.62C571.2 242.62 576.34 242.57 580.24 243.95" fill="#0070E7"/>
<path d="M579.84 243.47C573.36 237.1 570.9 225.67 573.51 216.97C578.626 224.803 580.864 234.17 579.84 243.47Z" fill="#0070E7"/>
<path d="M597.67 225.43C598.89 222.59 599.75 219.61 600.84 216.72C601.849 213.797 603.388 211.085 605.38 208.72C607.398 206.338 610.271 204.845 613.38 204.56C612.386 208.953 610.486 213.089 607.801 216.705C605.117 220.321 601.707 223.337 597.79 225.56" fill="#0070E7"/>
<path d="M594.44 229.19C592.44 226.41 590.08 222.63 587.34 220.55C584.6 218.47 581.02 217.21 577.67 218.01C579.404 221.049 581.822 223.642 584.733 225.583C587.644 227.524 590.968 228.759 594.44 229.19Z" fill="#0070E7"/>
<path d="M595.09 225.67C593.632 222.35 592.558 218.874 591.89 215.31C591.223 211.718 591.794 208.005 593.51 204.78C597.07 211.51 598.21 218.78 595.27 225.78" fill="#0070E7"/>
<path d="M597.7 204.78C599.7 198.11 605.82 193.2 612.41 190.95C613.227 190.618 614.111 190.485 614.99 190.56C615.428 190.609 615.842 190.786 616.18 191.068C616.518 191.351 616.765 191.727 616.89 192.15C617.13 193.28 616.2 194.3 615.31 195.05C610.158 199.451 604.168 202.761 597.7 204.78Z" fill="#0070E7"/>
<path d="M597.77 199.33C598.03 195.03 598.3 190.67 599.69 186.59C601.08 182.51 603.79 178.7 607.69 176.92C608.36 181.26 606.44 185.58 604.13 189.31C601.82 193.04 599.03 196.58 597.65 200.74" fill="#0070E7"/>
<path d="M597.67 202.29C596 197.43 595.83 191.29 592.92 187.02C590.92 184.02 587.63 182.02 585.92 178.91C584.868 181.919 585.015 185.217 586.33 188.12C587.656 190.986 589.481 193.593 591.72 195.82C593.87 198.12 595.72 199.82 597.72 202.29" fill="#0070E7"/>
<path d="M597.7 345.39C597.57 345.39 597.46 312.98 597.45 273C597.44 233.02 597.54 200.59 597.67 200.59C597.8 200.59 597.91 233 597.92 273C597.93 313 597.83 345.39 597.7 345.39Z" fill="white"/>
<path d="M626 248.29C625.607 248.478 625.199 248.632 624.78 248.75L621.42 249.88C618.6 250.88 614.71 252.24 610.49 253.96C606.27 255.68 602.38 257.21 600.14 259.15C599.245 259.899 598.533 260.843 598.06 261.91C597.74 262.67 597.68 263.13 597.64 263.12C597.6 263.11 597.64 263.01 597.64 262.78C597.69 262.46 597.771 262.145 597.88 261.84C598.294 260.713 598.981 259.706 599.88 258.91C601.232 257.762 602.744 256.818 604.37 256.11C606.17 255.28 608.16 254.4 610.28 253.53C614.51 251.8 618.42 250.45 621.28 249.53C622.71 249.09 623.88 248.76 624.69 248.53C625.118 248.409 625.557 248.328 626 248.29Z" fill="white"/>
<path d="M635.31 225.48C635.215 225.616 635.101 225.738 634.97 225.84L633.97 226.84L630.09 230.37L617.16 241.88C612.16 246.37 607.76 250.66 604.74 253.88C603.22 255.5 602.03 256.83 601.22 257.76L600.28 258.84C600.177 258.969 600.06 259.087 599.93 259.19C599.93 259.19 600.01 259.04 600.21 258.78C600.41 258.52 600.69 258.13 601.08 257.65C601.85 256.65 603.01 255.3 604.49 253.65C608.394 249.389 612.52 245.337 616.85 241.51C621.91 237.03 626.52 233 629.85 230.1L633.85 226.68C634.29 226.32 634.66 226.02 634.95 225.77C635.059 225.661 635.18 225.563 635.31 225.48Z" fill="white"/>
<path d="M611.68 246.42C611.54 246.37 612.6 243.93 613.68 240.85C614.76 237.77 615.24 235.18 615.37 235.2C615.257 237.186 614.835 239.143 614.12 241C613.67 242.328 613.146 243.63 612.55 244.9C612.331 245.444 612.039 245.956 611.68 246.42Z" fill="white"/>
<path d="M597.73 266.05C597.44 265.773 597.179 265.469 596.95 265.14L594.95 262.59C593.28 260.43 590.95 257.44 588.37 254.17C585.79 250.9 583.37 247.98 581.67 245.86L579.67 243.34C579.407 243.029 579.172 242.694 578.97 242.34C579.279 242.59 579.56 242.871 579.81 243.18C580.33 243.74 581.06 244.57 581.96 245.6C583.75 247.67 586.18 250.6 588.78 253.84C591.38 257.08 593.65 260.14 595.25 262.35C596.06 263.46 596.7 264.35 597.13 265C597.364 265.33 597.565 265.681 597.73 266.05Z" fill="white"/>
<path d="M591.52 258.07C590.262 256.687 589.365 255.014 588.91 253.2C588.426 251.611 588.227 249.949 588.32 248.29H588.53C588.44 248.66 588.37 248.86 588.33 248.85C588.29 248.84 588.33 248.64 588.33 248.25H588.53C588.637 249.868 588.915 251.47 589.36 253.03C589.949 254.763 590.671 256.448 591.52 258.07Z" fill="white"/>
<path d="M583.5 248C582.936 247.581 582.325 247.229 581.68 246.95C580.059 246.47 578.356 246.334 576.68 246.55C574.967 246.681 573.267 246.955 571.6 247.37C570.915 247.582 570.217 247.749 569.51 247.87C570.13 247.493 570.804 247.217 571.51 247.05C573.177 246.525 574.898 246.189 576.64 246.05C578.393 245.816 580.177 246.008 581.84 246.61C582.537 246.868 583.124 247.359 583.5 248Z" fill="white"/>
<path d="M581.6 245.54C581.6 245.61 580.54 245.12 578.81 244.54C574.31 243 569.492 242.632 564.81 243.47C563.01 243.79 561.93 244.12 561.9 244.05C562.13 243.908 562.379 243.8 562.64 243.73C563.328 243.492 564.029 243.295 564.74 243.14C569.481 242.106 574.42 242.482 578.95 244.22C579.635 244.481 580.303 244.785 580.95 245.13C581.186 245.234 581.405 245.372 581.6 245.54Z" fill="white"/>
<path d="M597.67 235.2C596.848 232.897 596.18 230.542 595.67 228.15C594.987 225.797 594.459 223.402 594.09 220.98C594.905 223.289 595.573 225.647 596.09 228.04C596.767 230.391 597.294 232.782 597.67 235.2Z" fill="white"/>
<path d="M597.8 235.2C597.145 233.745 596.393 232.335 595.55 230.98C594.592 229.704 593.477 228.555 592.23 227.56C592.702 227.678 593.14 227.904 593.51 228.22C594.452 228.907 595.27 229.749 595.93 230.71C596.933 232.019 597.577 233.566 597.8 235.2Z" fill="white"/>
<path d="M597.7 328.11C597.65 328.11 597.55 327.33 597.19 325.96C596.654 324.02 595.927 322.137 595.02 320.34C591.898 314.474 588.036 309.033 583.53 304.15C580.96 301.22 578.47 298.45 576.36 295.81C574.463 293.478 572.748 291.004 571.23 288.41C570.216 286.658 569.35 284.825 568.64 282.93C568.41 282.25 568.23 281.72 568.14 281.36C568.076 281.178 568.029 280.991 568 280.8C568 280.8 568.28 281.54 568.81 282.86C569.581 284.72 570.487 286.522 571.52 288.25C573.069 290.799 574.797 293.235 576.69 295.54C578.82 298.16 581.31 300.91 583.88 303.84C589.07 309.67 593.14 315.55 595.32 320.2C596.193 322.025 596.864 323.939 597.32 325.91C597.447 326.447 597.544 326.992 597.61 327.54C597.658 327.727 597.688 327.918 597.7 328.11Z" fill="white"/>
<path d="M623.3 299.2C622.881 299.489 622.447 299.756 622 300C620.788 300.684 619.625 301.453 618.52 302.3C616.89 303.568 615.362 304.962 613.95 306.47C612.34 308.17 610.69 310.13 609 312.24C605.63 316.47 602.48 320.24 600.59 323.24C599.59 324.73 598.93 325.98 598.48 326.85C598.265 327.317 598.018 327.768 597.74 328.2C597.74 328.2 597.74 328.07 597.86 327.82C597.98 327.57 598.1 327.22 598.31 326.77C598.901 325.497 599.569 324.262 600.31 323.07C602.869 319.218 605.65 315.518 608.64 311.99C610.33 309.88 612 307.9 613.64 306.21C615.085 304.704 616.654 303.323 618.33 302.08C619.463 301.247 620.663 300.511 621.92 299.88C622.37 299.66 622.73 299.52 622.92 299.42C623.11 299.32 623.29 299.18 623.3 299.2Z" fill="white"/>
<path d="M623.8 308.58C622.878 308.789 621.942 308.929 621 309C618.724 309.238 616.475 309.683 614.28 310.33C612.114 311.031 610.084 312.1 608.28 313.49C606.89 314.56 606.23 315.49 606.17 315.39C606.273 315.151 606.415 314.932 606.59 314.74C607.029 314.186 607.525 313.68 608.07 313.23C609.862 311.733 611.927 310.595 614.15 309.88C616.375 309.213 618.671 308.807 620.99 308.67C621.922 308.554 622.863 308.524 623.8 308.58Z" fill="white"/>
<path d="M606.94 314.35C606.79 314.27 608.07 312.35 609.06 309.69C610.05 307.03 610.21 304.69 610.37 304.75C610.456 305.253 610.456 305.767 610.37 306.27C610.223 307.49 609.945 308.69 609.54 309.85C609.107 311.002 608.554 312.104 607.89 313.14C607.35 313.93 607 314.39 606.94 314.35Z" fill="white"/>
<path d="M631.59 274C631.443 274.091 631.289 274.171 631.13 274.24L629.8 274.84C629.22 275.09 628.51 275.41 627.71 275.84C626.91 276.27 625.98 276.68 625 277.27L623.45 278.15C622.92 278.45 622.39 278.82 621.82 279.15C620.68 279.85 619.54 280.7 618.32 281.57C615.723 283.528 613.277 285.678 611 288C608.76 290.353 606.695 292.867 604.82 295.52C603.99 296.77 603.18 297.94 602.53 299.11C602.2 299.68 601.85 300.23 601.53 300.77C601.21 301.31 600.97 301.85 600.7 302.35C600.15 303.35 599.76 304.29 599.37 305.11C598.98 305.93 598.68 306.64 598.45 307.23C598.22 307.82 598.04 308.23 597.89 308.58C597.835 308.741 597.761 308.896 597.67 309.04C597.692 308.871 597.74 308.706 597.81 308.55C597.93 308.18 598.09 307.73 598.28 307.16C598.47 306.59 598.76 305.83 599.13 305C599.5 304.17 599.87 303.21 600.4 302.2L601.21 300.6C601.49 300.05 601.84 299.5 602.21 298.91C602.86 297.73 603.66 296.54 604.49 295.28C606.352 292.586 608.422 290.042 610.68 287.67C612.978 285.337 615.448 283.181 618.07 281.22C619.31 280.35 620.47 279.51 621.62 278.83C622.2 278.48 622.74 278.12 623.28 277.83C623.82 277.54 624.35 277.25 624.85 276.97C625.85 276.41 626.79 275.97 627.61 275.61C628.303 275.266 629.014 274.959 629.74 274.69L631.11 274.16C631.26 274.08 631.422 274.025 631.59 274Z" fill="white"/>
<path d="M611.33 287.59C611.517 286.934 611.905 286.353 612.44 285.93C613.69 284.85 615.278 284.241 616.93 284.21C618.548 284.205 620.152 284.517 621.65 285.13C622.286 285.332 622.889 285.625 623.44 286C622.794 285.878 622.161 285.693 621.55 285.45C620.07 284.94 618.515 284.679 616.95 284.68C615.396 284.709 613.893 285.234 612.66 286.18C612.182 286.616 611.738 287.088 611.33 287.59Z" fill="white"/>
<path d="M608.3 290.71C609.659 288.104 610.015 285.091 609.3 282.24C609.572 282.594 609.754 283.01 609.83 283.45C610.1 284.484 610.175 285.559 610.05 286.62C609.924 287.671 609.602 288.688 609.1 289.62C608.69 290.38 608.35 290.75 608.3 290.71Z" fill="white"/>
<path d="M575.31 332.76C576.01 345.15 579.74 357.76 585.48 370.48H610.48C615.96 357.87 619.43 345.29 620.05 332.76H575.31Z" fill="#455A64"/>
<path d="M616 352.8C616 352.93 607.77 353.04 597.63 353.04C587.49 353.04 579.27 352.93 579.27 352.8C579.27 352.67 587.49 352.57 597.63 352.57C607.77 352.57 616 352.68 616 352.8Z" fill="#FAFAFA"/>
<path d="M615.42 357.29C615.42 357.42 607.71 357.53 598.2 357.53C588.69 357.53 580.99 357.42 580.99 357.29C580.99 357.16 588.7 357.06 598.2 357.06C607.7 357.06 615.42 357.16 615.42 357.29Z" fill="#FAFAFA"/>
<path d="M504.84 110.3H149.46C141.413 110.3 134.89 116.823 134.89 124.87V350.01C134.89 358.057 141.413 364.58 149.46 364.58H504.84C512.887 364.58 519.41 358.057 519.41 350.01V124.87C519.41 116.823 512.887 110.3 504.84 110.3Z" fill="#455A64"/>
<path d="M119.86 348.16H536.46V352.61C536.46 357.331 534.585 361.858 531.247 365.196C527.908 368.535 523.381 370.41 518.66 370.41H137.66C132.939 370.41 128.412 368.535 125.074 365.196C121.735 361.858 119.86 357.331 119.86 352.61V348.16Z" fill="#455A64"/>
<path d="M508.01 120.4H145.21V335.13H508.01V120.4Z" fill="#263238"/>
<path d="M289.25 345.77L294.41 354H367.16L371.96 345.77H289.25Z" fill="#263238"/>
<path d="M498.02 127.67H155.96C154.154 127.67 152.69 129.134 152.69 130.94V331.18C152.69 332.986 154.154 334.45 155.96 334.45H498.02C499.826 334.45 501.29 332.986 501.29 331.18V130.94C501.29 129.134 499.826 127.67 498.02 127.67Z" fill="#EBEBEB"/>
<path d="M500.91 334.75H152.31L152.69 143.13H500.91V334.75Z" fill="#FAFAFA"/>
<path d="M181.28 135.66C181.282 136.212 181.12 136.753 180.815 137.213C180.509 137.673 180.074 138.032 179.565 138.245C179.055 138.457 178.494 138.514 177.952 138.408C177.41 138.301 176.912 138.036 176.521 137.646C176.13 137.257 175.863 136.759 175.754 136.218C175.646 135.676 175.701 135.115 175.911 134.605C176.122 134.094 176.48 133.658 176.939 133.351C177.398 133.044 177.938 132.88 178.49 132.88C178.856 132.879 179.218 132.95 179.557 133.089C179.895 133.228 180.203 133.432 180.462 133.691C180.721 133.949 180.927 134.256 181.067 134.594C181.208 134.932 181.28 135.294 181.28 135.66Z" fill="#263238"/>
<path d="M164.4 135.66C164.402 136.213 164.24 136.753 163.934 137.214C163.628 137.674 163.193 138.033 162.682 138.246C162.172 138.458 161.61 138.514 161.068 138.407C160.526 138.3 160.028 138.034 159.637 137.643C159.246 137.252 158.98 136.754 158.873 136.212C158.766 135.67 158.822 135.108 159.034 134.598C159.247 134.087 159.606 133.652 160.066 133.346C160.527 133.04 161.067 132.878 161.62 132.88C161.985 132.879 162.348 132.95 162.685 133.089C163.023 133.228 163.33 133.433 163.589 133.691C163.847 133.95 164.052 134.257 164.191 134.595C164.33 134.932 164.401 135.295 164.4 135.66Z" fill="#263238"/>
<path d="M172.5 135.66C172.502 136.213 172.34 136.753 172.034 137.214C171.728 137.674 171.293 138.033 170.782 138.246C170.272 138.458 169.71 138.514 169.168 138.407C168.626 138.3 168.128 138.034 167.737 137.643C167.346 137.252 167.08 136.754 166.973 136.212C166.866 135.67 166.922 135.108 167.134 134.598C167.347 134.087 167.706 133.652 168.166 133.346C168.627 133.04 169.167 132.878 169.72 132.88C170.085 132.879 170.448 132.95 170.785 133.089C171.123 133.228 171.43 133.433 171.689 133.691C171.947 133.95 172.152 134.257 172.291 134.595C172.43 134.932 172.501 135.295 172.5 135.66Z" fill="#263238"/>
<path d="M516.1 345.77C516.1 345.91 430.76 346.02 325.51 346.02C220.26 346.02 134.89 345.91 134.89 345.77C134.89 345.63 220.22 345.52 325.51 345.52C430.8 345.52 516.1 345.64 516.1 345.77Z" fill="#263238"/>
<path d="M264.31 217.98L406.14 216.66L410.29 313.07L263.43 312.02L264.31 217.98Z" fill="#0070E7"/>
<path d="M264.31 218L331.31 163.55C332.686 162.431 334.406 161.82 336.18 161.82C337.954 161.82 339.674 162.431 341.05 163.55L406.13 216.67" fill="#0070E7"/>
<g opacity="0.3">
<path d="M264.31 218L331.31 163.55C332.686 162.431 334.406 161.82 336.18 161.82C337.954 161.82 339.674 162.431 341.05 163.55L406.13 216.67" fill="black"/>
</g>
<path d="M263.43 312C263.26 311.83 274.58 299.41 288.73 284.26C302.88 269.11 314.5 257 314.68 257.14C314.86 257.28 303.53 269.72 289.37 284.88C275.21 300.04 263.61 312.18 263.43 312Z" fill="#263238"/>
<path d="M410.29 313.07C410.11 313.24 399.03 301.07 385.54 286C372.05 270.93 361.26 258.5 361.44 258.34C361.62 258.18 372.7 270.34 386.2 285.42C399.7 300.5 410.47 312.91 410.29 313.07Z" fill="#263238"/>
<g opacity="0.5">
<path d="M406.14 216.66L335.04 273.7L264.31 217.98" fill="black"/>
</g>
<path d="M271.47 223.24L271.15 178.94L395.34 177.22L396.83 223.82L335.03 272.95L271.47 223.24Z" fill="#FAFAFA"/>
<path d="M271.47 223.24C271.47 223.24 271.88 223.53 272.65 224.12L276.03 226.73L288.89 236.73C299.97 245.38 315.89 257.73 335.16 272.81H334.9L396.67 223.64L396.58 223.85C396.29 214.96 395.99 205.63 395.69 196.14C395.48 189.75 395.28 183.43 395.08 177.24L395.34 177.49L271.16 179.13L271.32 178.96C271.38 192.89 271.44 203.96 271.47 211.54C271.47 215.33 271.47 218.25 271.47 220.24C271.47 221.24 271.47 221.97 271.47 222.49C271.47 223.01 271.47 223.26 271.47 223.26C271.47 223.26 271.47 223.01 271.47 222.51C271.47 222.01 271.47 221.25 271.47 220.28C271.47 218.28 271.41 215.38 271.37 211.6C271.3 203.99 271.19 192.92 271.06 178.96V178.8H271.22L395.33 177H395.59V177.26C395.79 183.45 395.99 189.76 396.2 196.15C396.5 205.64 396.8 214.97 397.08 223.86V223.99L396.98 224.07L335.14 273.17L335.01 273.28L334.88 273.17L288.66 236.9L275.9 226.84L272.57 224.2L271.47 223.24Z" fill="#263238"/>
<path d="M375.76 199.56C375.76 199.7 356.76 199.97 333.34 200.16C309.92 200.35 290.92 200.39 290.92 200.25C290.92 200.11 309.92 199.84 333.34 199.64C356.76 199.44 375.76 199.41 375.76 199.56Z" fill="#263238"/>
<path d="M375.78 212.07C375.78 212.21 356.78 212.49 333.37 212.68C309.96 212.87 290.95 212.91 290.95 212.76C290.95 212.61 309.95 212.35 333.37 212.16C356.79 211.97 375.78 211.93 375.78 212.07Z" fill="#263238"/>
<path d="M375.81 226.49C375.81 226.64 356.81 226.91 333.4 227.1C309.99 227.29 290.98 227.33 290.98 227.18C290.98 227.03 309.98 226.77 333.4 226.58C356.82 226.39 375.81 226.35 375.81 226.49Z" fill="#263238"/>
<path d="M375.84 240.91C375.84 241.06 357.73 241.32 335.38 241.5C313.03 241.68 294.91 241.72 294.91 241.57C294.91 241.42 313.02 241.16 335.38 240.98C357.74 240.8 375.84 240.77 375.84 240.91Z" fill="#263238"/>
<path d="M360 253.6C359.837 253.645 359.669 253.666 359.5 253.66L358.07 253.72L352.83 253.85L335.52 254.17C328.76 254.29 322.63 254.33 318.2 254.33H312.96H311.53C311.362 254.334 311.194 254.318 311.03 254.28C311.193 254.235 311.361 254.214 311.53 254.22L312.95 254.16L318.2 254.03L335.51 253.72C342.27 253.59 348.39 253.55 352.82 253.55H358.07H359.5C359.668 253.55 359.835 253.567 360 253.6Z" fill="#263238"/>
<path d="M344 265.8C341.008 266.069 338.003 266.163 335 266.08C331.998 266.175 328.993 266.095 326 265.84C328.992 265.576 331.997 265.483 335 265.56C338.002 265.471 341.007 265.551 344 265.8Z" fill="#263238"/>
<path d="M668 369.55C668 369.7 518.46 369.81 334 369.81C149.54 369.81 0 369.7 0 369.55C0 369.4 149.51 369.29 334 369.29C518.49 369.29 668 369.41 668 369.55Z" fill="#263238"/>
<path d="M360.76 176.83C360.9 176.83 360.96 177.41 360.89 178.1C360.82 178.79 360.65 179.33 360.51 179.32C360.37 179.31 360.31 178.73 360.38 178.04C360.45 177.35 360.61 176.81 360.76 176.83Z" fill="white"/>
<path d="M362.09 167.09C362.221 167.909 362.184 168.746 361.98 169.55C361.933 170.381 361.719 171.194 361.35 171.94C361.248 170.289 361.5 168.635 362.09 167.09Z" fill="white"/>
<path d="M364.05 157.45C364.132 158.28 364.04 159.118 363.78 159.91C363.678 160.735 363.409 161.532 362.99 162.25C362.91 161.423 363.005 160.588 363.27 159.8C363.364 158.971 363.629 158.171 364.05 157.45Z" fill="white"/>
<path d="M366.72 148C366.588 149.655 366.1 151.261 365.29 152.71C365.28 151.877 365.44 151.05 365.76 150.28C365.915 149.461 366.242 148.683 366.72 148Z" fill="white"/>
<path d="M370.15 138.78C370.09 139.611 369.862 140.42 369.48 141.16C369.253 141.962 368.861 142.708 368.33 143.35C368.395 142.53 368.623 141.731 369 141C369.221 140.187 369.613 139.43 370.15 138.78Z" fill="white"/>
<path d="M374.41 129.93C373.977 131.527 373.214 133.016 372.17 134.3C372.304 133.48 372.607 132.697 373.06 132C373.68 130.79 374.28 129.86 374.41 129.93Z" fill="white"/>
<path d="M379.55 121.55C379.32 122.351 378.928 123.096 378.4 123.74C377.68 124.88 376.99 125.74 376.87 125.67C377.07 124.86 377.442 124.103 377.96 123.45C378.72 122.32 379.43 121.47 379.55 121.55Z" fill="white"/>
<path d="M385.61 113.81C385.296 114.581 384.83 115.282 384.24 115.87C383.37 116.87 382.58 117.68 382.46 117.59C382.34 117.5 382.96 116.59 383.84 115.54C384.72 114.49 385.5 113.72 385.61 113.81Z" fill="white"/>
<path d="M392.53 106.84C392.63 106.95 391.91 107.79 390.93 108.72C389.95 109.65 389.07 110.32 388.93 110.22C388.79 110.12 389.54 109.28 390.53 108.34C391.52 107.4 392.44 106.73 392.53 106.84Z" fill="white"/>
<path d="M400.27 100.78C400.35 100.9 399.53 101.65 398.44 102.45C397.822 103.005 397.097 103.427 396.31 103.69C396.22 103.58 397.04 102.83 398.14 102.03C398.754 101.468 399.48 101.042 400.27 100.78Z" fill="white"/>
<path d="M408.75 95.81C407.489 96.8882 406.013 97.6858 404.42 98.15C404.35 98.02 405.26 97.4 406.42 96.75C407.12 96.2733 407.915 95.9527 408.75 95.81Z" fill="white"/>
<path d="M417.85 92.11C417.189 92.6142 416.435 92.9814 415.63 93.19C414.88 93.553 414.063 93.7541 413.23 93.78C413.889 93.2722 414.644 92.9046 415.45 92.7C416.198 92.3323 417.017 92.131 417.85 92.11Z" fill="white"/>
<path d="M427.41 89.88C426.672 90.2561 425.866 90.4805 425.04 90.54C424.249 90.7918 423.415 90.877 422.59 90.79C424.094 90.0842 425.752 89.7712 427.41 89.88Z" fill="white"/>
<path d="M437.22 89.34C436.431 89.5997 435.597 89.695 434.77 89.62C433.943 89.7194 433.104 89.6409 432.31 89.39C433.098 89.1275 433.932 89.0288 434.76 89.1C435.588 89.0036 436.427 89.0854 437.22 89.34Z" fill="white"/>
<path d="M447 90.49C446.176 90.6134 445.335 90.5658 444.53 90.35C443.697 90.3037 442.882 90.0822 442.14 89.7C443.797 89.6208 445.453 89.8899 447 90.49Z" fill="white"/>
<path d="M456.39 93.3C454.742 93.0987 453.156 92.5463 451.74 91.68C452.572 91.7061 453.391 91.8964 454.15 92.24C454.963 92.4311 455.727 92.7923 456.39 93.3Z" fill="white"/>
<path d="M465.14 97.76C464.327 97.5809 463.559 97.2409 462.88 96.76C462.121 96.4191 461.44 95.9255 460.88 95.31C461.695 95.4829 462.464 95.8234 463.14 96.31C464.32 97 465.22 97.64 465.14 97.76Z" fill="white"/>
<path d="M472.84 103.84C472.086 103.5 471.406 103.014 470.84 102.41C469.84 101.53 469.08 100.71 469.17 100.6C469.26 100.49 470.17 101.12 471.17 102.02C472.17 102.92 472.94 103.74 472.84 103.84Z" fill="white"/>
<path d="M477.7 109.44C477.58 109.52 477.15 109.15 476.7 108.61C476.25 108.07 476.03 107.56 476.14 107.46C476.25 107.36 476.68 107.74 477.14 108.29C477.6 108.84 477.82 109.35 477.7 109.44Z" fill="white"/>
<path d="M523.94 169.69C523.102 169.583 522.295 169.304 521.57 168.87C520.31 168.29 519.34 167.71 519.41 167.58C520.249 167.696 521.057 167.975 521.79 168.4C522.586 168.681 523.317 169.12 523.94 169.69Z" fill="white"/>
<path d="M533.38 173C531.703 172.85 530.075 172.352 528.6 171.54C530.278 171.686 531.907 172.183 533.38 173Z" fill="white"/>
<path d="M543.25 174.55C542.419 174.723 541.561 174.723 540.73 174.55C539.885 174.545 539.051 174.364 538.28 174.02C539.108 173.854 539.962 173.854 540.79 174.02C541.637 174.029 542.474 174.209 543.25 174.55Z" fill="white"/>
<path d="M553.23 174.24C552.445 174.553 551.605 174.703 550.76 174.68C549.925 174.835 549.066 174.812 548.24 174.61C549.03 174.301 549.872 174.148 550.72 174.16C551.553 174.012 552.408 174.04 553.23 174.24Z" fill="white"/>
<path d="M563.05 172.4C562.323 172.833 561.518 173.119 560.68 173.24C559.869 173.493 559.015 173.578 558.17 173.49C558.911 173.081 559.728 172.826 560.57 172.74C561.364 172.456 562.209 172.341 563.05 172.4Z" fill="white"/>
<path d="M572.33 168.71C572.4 168.84 571.43 169.41 570.17 170C569.442 170.432 568.631 170.704 567.79 170.8C569.142 169.797 570.688 169.085 572.33 168.71Z" fill="white"/>
<path d="M580.62 163.14C580.71 163.25 579.93 164.07 578.82 164.91C578.195 165.486 577.446 165.911 576.63 166.15C576.55 166.03 577.41 165.32 578.51 164.5C579.126 163.923 579.84 163.463 580.62 163.14Z" fill="white"/>
<path d="M587.42 155.84C587.148 156.649 586.693 157.385 586.09 157.99C585.2 159.06 584.34 159.8 584.24 159.7C584.14 159.6 584.82 158.7 585.69 157.7C586.56 156.7 587.3 155.76 587.42 155.84Z" fill="white"/>
<path d="M592.1 147C592.068 147.854 591.831 148.687 591.41 149.43C591.133 150.237 590.675 150.969 590.07 151.57C590.22 150.74 590.51 149.942 590.93 149.21C591.195 148.414 591.59 147.667 592.1 147Z" fill="white"/>
<path d="M594 137.26C594.24 138.079 594.277 138.943 594.11 139.78C594.109 140.635 593.896 141.477 593.49 142.23C593.388 141.397 593.422 140.552 593.59 139.73C593.589 138.89 593.728 138.055 594 137.26Z" fill="white"/>
<path d="M592.51 127.4C592.991 128.105 593.299 128.914 593.41 129.76C593.68 130.568 593.752 131.429 593.62 132.27C593.247 131.52 593.004 130.712 592.9 129.88C592.633 129.081 592.501 128.243 592.51 127.4Z" fill="white"/>
<path d="M588.16 118.44C588.27 118.35 589.03 119.21 589.73 120.44C590.229 121.128 590.552 121.928 590.67 122.77C590.54 122.84 589.96 121.88 589.28 120.7C588.785 120.013 588.407 119.25 588.16 118.44Z" fill="white"/>
<path d="M581.22 111.3C582.031 111.572 582.762 112.039 583.35 112.66C584.41 113.57 585.1 114.47 585 114.57C584.9 114.67 584 113.94 583 113.05C582 112.16 581.14 111.42 581.22 111.3Z" fill="white"/>
<path d="M572.15 107.24C573.005 107.16 573.866 107.301 574.65 107.65C575.483 107.842 576.256 108.237 576.9 108.8C576.067 108.711 575.253 108.488 574.49 108.14C573.668 107.962 572.879 107.658 572.15 107.24Z" fill="white"/>
<path d="M562.24 107.41C562.968 106.956 563.803 106.704 564.66 106.68C565.496 106.489 566.367 106.517 567.19 106.76C565.547 107.133 563.873 107.35 562.19 107.41H562.24Z" fill="white"/>
<path d="M553.62 112.23C553.51 112.14 554.2 111.23 555.33 110.36C555.964 109.777 556.746 109.38 557.59 109.21C557.66 109.35 556.72 109.96 555.59 110.78C554.46 111.6 553.73 112.33 553.62 112.23Z" fill="white"/>
<path d="M549.66 121.21C549.47 120.369 549.522 119.492 549.81 118.68C549.927 117.824 550.292 117.021 550.86 116.37C550.771 117.198 550.586 118.014 550.31 118.8C550.199 119.628 549.98 120.438 549.66 121.21Z" fill="white"/>
<path d="M551.61 130.9C551.018 130.28 550.6 129.514 550.4 128.68C550.035 127.901 549.889 127.036 549.98 126.18C550.39 126.911 550.697 127.695 550.89 128.51C551.245 129.268 551.487 130.073 551.61 130.9Z" fill="white"/>
<path d="M558.15 138.34C557.33 138.085 556.59 137.624 556 137C554.94 136.08 554.29 135.14 554.4 135.05C554.51 134.96 555.32 135.71 556.34 136.61C557.36 137.51 558.23 138.22 558.15 138.34Z" fill="white"/>
<path d="M567.23 142.41C566.377 142.456 565.527 142.295 564.75 141.94C563.915 141.753 563.141 141.357 562.5 140.79C563.334 140.879 564.147 141.102 564.91 141.45C565.732 141.635 566.517 141.96 567.23 142.41Z" fill="white"/>
<path d="M577.15 143.35C575.505 143.774 573.775 143.736 572.15 143.24C572.972 143.067 573.816 143.027 574.65 143.12C575.49 143.051 576.336 143.129 577.15 143.35Z" fill="white"/>
<path d="M587 141.53C585.529 142.374 583.856 142.803 582.16 142.77C582.897 142.369 583.7 142.102 584.53 141.98C585.323 141.695 586.157 141.543 587 141.53Z" fill="white"/>
<path d="M596 137.38C595.405 137.983 594.694 138.459 593.91 138.78C593.206 139.249 592.413 139.569 591.58 139.72C592.876 138.643 594.381 137.846 596 137.38Z" fill="white"/>
<path d="M604 131.42C604.1 131.53 603.31 132.33 602.24 133.21C601.637 133.806 600.924 134.278 600.14 134.6C600.05 134.48 600.85 133.68 601.91 132.81C602.511 132.217 603.221 131.745 604 131.42Z" fill="white"/>
<path d="M610.85 124.11C610.96 124.2 610.32 125.11 609.42 126.18C608.52 127.25 607.7 128.01 607.6 127.91C607.5 127.81 608.13 126.91 609.02 125.84C609.91 124.77 610.73 124 610.85 124.11Z" fill="white"/>
<path d="M616.34 115.77C616.148 116.595 615.787 117.371 615.28 118.05C614.56 119.24 613.89 120.14 613.77 120.05C613.964 119.225 614.324 118.449 614.83 117.77C615.54 116.6 616.21 115.7 616.34 115.77Z" fill="white"/>
<path d="M620.4 106.63C620.339 107.476 620.111 108.302 619.73 109.06C619.508 109.879 619.105 110.638 618.55 111.28C618.636 110.442 618.87 109.626 619.24 108.87C619.471 108.053 619.866 107.291 620.4 106.63Z" fill="white"/>
<path d="M623.19 97C623.241 97.8434 623.115 98.6881 622.82 99.48C622.69 100.318 622.39 101.121 621.94 101.84C622.011 100.157 622.437 98.5072 623.19 97Z" fill="white"/>
<path d="M624.94 87.2C625.078 88.0358 625.037 88.8912 624.82 89.71C624.775 90.554 624.561 91.3804 624.19 92.14C624.052 91.3043 624.093 90.4488 624.31 89.63C624.357 88.7863 624.571 87.9603 624.94 87.2Z" fill="white"/>
<path d="M625.86 77.24C626.092 78.9141 625.966 80.6184 625.49 82.24C625.302 81.4127 625.278 80.5565 625.42 79.72C625.398 78.8722 625.548 78.0287 625.86 77.24Z" fill="white"/>
<path d="M626.18 67.25C626.425 68.0592 626.497 68.9112 626.39 69.75C626.465 70.5959 626.359 71.448 626.08 72.25C625.848 71.4348 625.777 70.5824 625.87 69.74C625.808 68.8977 625.913 68.0514 626.18 67.25Z" fill="white"/>
<path d="M626.11 57.25C626.378 58.0545 626.48 58.905 626.41 59.75C626.51 60.5902 626.432 61.4422 626.18 62.25C625.913 61.4453 625.811 60.595 625.88 59.75C625.792 58.9096 625.87 58.0601 626.11 57.25Z" fill="white"/>
<path d="M626 51.1C626.14 51.1 626.27 51.35 626.28 51.67C626.29 51.99 626.18 52.24 626.03 52.25C625.88 52.26 625.76 52 625.76 51.68C625.76 51.36 625.82 51.1 626 51.1Z" fill="white"/>
<path d="M647.872 21.4067L579.902 28.7906L584.879 74.6111L652.85 67.2272L647.872 21.4067Z" fill="#0070E7"/>
<path d="M584.85 74.66L579.85 28.82L647.85 21.44L652.85 67.29L584.85 74.66ZM579.93 28.84L584.93 74.61L652.85 67.23L647.85 21.46L579.93 28.84Z" fill="white"/>
<path d="M648.15 22C647.982 22.2442 647.791 22.4719 647.58 22.68L645.87 24.55L639.48 31.33L618.19 53.55L618.02 53.74L617.8 53.6L617.28 53.27L591 36.46L583 31.31L580.86 29.88C580.604 29.7222 580.359 29.545 580.13 29.35C580.41 29.4628 580.678 29.6035 580.93 29.77L583.13 31.1L591.13 36.1L617.54 52.76L618.06 53.09H617.67L639.17 31L645.7 24.36L647.49 22.58C647.692 22.3672 647.913 22.1731 648.15 22Z" fill="white"/>
<path d="M585.15 75.16C585.01 75.07 589.44 68.23 595.04 59.9C600.64 51.57 605.31 44.9 605.45 44.98C605.59 45.06 601.17 51.91 595.56 60.24C589.95 68.57 585.29 75.26 585.15 75.16Z" fill="white"/>
<path d="M628 42C628.13 41.88 633.86 47.57 640.8 54.7C647.74 61.83 653.27 67.7 653.15 67.83C653.03 67.96 647.3 62.27 640.35 55.13C633.4 47.99 627.86 42.07 628 42Z" fill="white"/>
<path d="M337.47 160.35C337.61 160.35 337.82 160.86 337.94 161.54C338.06 162.22 338.03 162.79 337.89 162.82C337.75 162.85 337.54 162.31 337.42 161.62C337.3 160.93 337.33 160.37 337.47 160.35Z" fill="white"/>
<path d="M335.87 150.59C336.246 151.338 336.468 152.154 336.52 152.99C336.736 153.798 336.784 154.642 336.66 155.47C336.276 154.725 336.055 153.907 336.01 153.07C335.794 152.262 335.746 151.418 335.87 150.59Z" fill="white"/>
<path d="M334.44 140.81C334.806 141.563 335.01 142.384 335.04 143.22C335.238 144.032 335.268 144.876 335.13 145.7C334.76 144.949 334.555 144.127 334.53 143.29C334.332 142.478 334.302 141.634 334.44 140.81Z" fill="white"/>
<path d="M333.32 131C333.655 131.767 333.832 132.593 333.84 133.43C334.016 134.247 334.016 135.093 333.84 135.91C333.506 135.143 333.332 134.316 333.33 133.48C333.154 132.663 333.151 131.818 333.32 131Z" fill="white"/>
<path d="M332.63 121.12C333.069 122.729 333.164 124.412 332.91 126.06C332.471 124.451 332.375 122.768 332.63 121.12Z" fill="white"/>
<path d="M332.53 111.23C332.877 112.879 332.877 114.581 332.53 116.23C332.271 115.434 332.186 114.592 332.28 113.76C332.182 112.909 332.267 112.046 332.53 111.23Z" fill="white"/>
<path d="M333.15 101.37C333.331 102.189 333.348 103.035 333.2 103.86C333.214 104.696 333.058 105.527 332.74 106.3C332.545 105.487 332.525 104.642 332.68 103.82C332.665 102.98 332.825 102.145 333.15 101.37Z" fill="white"/>
<path d="M334.63 91.6C334.752 92.4293 334.694 93.2751 334.46 94.08C334.399 94.9162 334.164 95.7303 333.77 96.47C333.72 94.8049 334.013 93.1473 334.63 91.6Z" fill="white"/>
<path d="M337.16 82.05C337.171 82.8859 337.014 83.7155 336.7 84.4901C336.538 85.3119 336.215 86.0937 335.75 86.79C335.727 85.9509 335.88 85.1162 336.2 84.34C336.353 83.5171 336.681 82.7363 337.16 82.05Z" fill="white"/>
<path d="M340.85 72.88C340.763 73.7141 340.505 74.5211 340.09 75.25C339.83 76.0455 339.411 76.7803 338.86 77.41C339.204 75.7774 339.886 74.2345 340.86 72.88H340.85Z" fill="white"/>
<path d="M345.67 64.26C345.476 65.0734 345.119 65.8389 344.62 66.51C343.92 67.67 343.25 68.51 343.12 68.51C343.317 67.6959 343.678 66.9304 344.18 66.26C344.88 65.07 345.55 64.18 345.67 64.26Z" fill="white"/>
<path d="M351.6 56.35C351.71 56.45 351.11 57.35 350.26 58.44C349.41 59.53 348.62 60.29 348.5 60.2C348.806 59.4201 349.265 58.7094 349.85 58.11C350.71 57.05 351.5 56.26 351.6 56.35Z" fill="white"/>
<path d="M358.63 49.4C358.72 49.52 357.98 50.35 356.98 51.27C355.98 52.19 355.08 52.84 354.98 52.74C354.88 52.64 355.62 51.81 356.63 50.88C357.64 49.95 358.54 49.29 358.63 49.4Z" fill="white"/>
<path d="M366.71 43.72C366.78 43.85 365.91 44.54 364.76 45.27C364.104 45.7885 363.348 46.1663 362.54 46.38C362.46 46.27 363.33 45.57 364.48 44.83C365.143 44.3162 365.901 43.9389 366.71 43.72Z" fill="white"/>
<path d="M375.71 39.67C375.061 40.2002 374.308 40.5885 373.5 40.81C372.757 41.1927 371.944 41.4174 371.11 41.47C371.76 40.9418 372.513 40.5537 373.32 40.33C374.062 39.946 374.876 39.7212 375.71 39.67Z" fill="white"/>
<path d="M382.93 37.89C382.93 38.03 382.43 38.25 381.76 38.38C381.09 38.51 380.51 38.5 380.48 38.38C380.45 38.26 380.98 38.02 381.66 37.89C382.34 37.76 382.91 37.75 382.93 37.89Z" fill="white"/>
<path d="M329.736 0.343188L311.663 47.0809L381.001 73.8914L399.073 27.1538L329.736 0.343188Z" fill="#0070E7"/>
<path d="M381 73.93L311.64 47.1L329.73 0.340027L399.09 27.16L381 73.93ZM311.7 47.07L381 73.86L399.06 27.17L329.76 0.380028L311.7 47.07Z" fill="white"/>
<path d="M399.08 27.81C398.8 27.9625 398.505 28.0865 398.2 28.18L395.61 29.1201L386.06 32.4801L354.38 43.3601L354.12 43.45L353.98 43.21L353.64 42.63L336.64 13.26L331.55 4.32005L330.2 1.87005C330.025 1.59189 329.877 1.29714 329.76 0.990051C329.967 1.24326 330.151 1.51432 330.31 1.80005L331.78 4.19005L337 13C341.44 20.5401 347.5 30.87 354.19 42.27L354.53 42.85L354.13 42.7L385.91 32L395.53 28.85L398.16 28.02C398.458 27.9171 398.767 27.8467 399.08 27.81Z" fill="white"/>
<path d="M311.67 47.73C311.58 47.57 319.27 43.18 328.85 37.93C338.43 32.68 346.26 28.55 346.35 28.71C346.44 28.87 338.75 33.26 329.17 38.52C319.59 43.78 311.76 47.89 311.67 47.73Z" fill="white"/>
<path d="M369.63 37C369.81 36.95 372.5 45.3 375.63 55.65C378.76 66 381.18 74.45 381 74.5C380.82 74.55 378.13 66.21 375 55.85C371.87 45.49 369.45 37.09 369.63 37Z" fill="white"/>
<path d="M308.35 171.29C308.49 171.29 308.56 171.87 308.51 172.56C308.46 173.25 308.29 173.8 308.15 173.79C308.01 173.78 307.93 173.21 307.99 172.52C308.05 171.83 308.21 171.28 308.35 171.29Z" fill="white"/>
<path d="M308.6 161.12C308.86 161.943 308.948 162.811 308.86 163.67C308.938 164.526 308.846 165.389 308.59 166.21C308.337 165.389 308.252 164.525 308.34 163.67C308.26 162.811 308.348 161.945 308.6 161.12Z" fill="white"/>
<path d="M307.91 151C308.405 152.641 308.565 154.366 308.38 156.07C308.043 155.277 307.876 154.422 307.89 153.56C307.73 152.714 307.737 151.844 307.91 151Z" fill="white"/>
<path d="M306.22 140.94C306.626 141.7 306.878 142.532 306.96 143.39C307.207 144.216 307.285 145.083 307.19 145.94C306.786 145.18 306.534 144.347 306.45 143.49C306.197 142.665 306.119 141.797 306.22 140.94Z" fill="white"/>
<path d="M303.45 131.15C304.294 132.643 304.822 134.294 305 136C304.513 135.292 304.173 134.492 304 133.65C303.649 132.863 303.462 132.012 303.45 131.15Z" fill="white"/>
<path d="M299.56 121.76C300.133 122.402 300.568 123.154 300.84 123.97C301.268 124.719 301.543 125.545 301.65 126.4C301.083 125.754 300.648 125.003 300.37 124.19C299.94 123.443 299.664 122.616 299.56 121.76Z" fill="white"/>
<path d="M294.51 112.93C294.63 112.85 295.35 113.75 296.11 114.93C296.618 115.629 296.985 116.421 297.19 117.26C297.06 117.33 296.38 116.41 295.66 115.2C295.13 114.527 294.739 113.756 294.51 112.93Z" fill="white"/>
<path d="M288.28 104.9C288.39 104.8 289.21 105.6 290.11 106.68C290.722 107.289 291.208 108.013 291.54 108.81C291.42 108.89 290.61 108.09 289.71 107.02C289.097 106.415 288.611 105.695 288.28 104.9Z" fill="white"/>
<path d="M281 97.82C281.09 97.71 282 98.39 283.06 99.33C284.12 100.27 284.87 101.13 284.77 101.23C283.99 100.868 283.29 100.354 282.71 99.72C281.65 98.78 280.88 97.93 281 97.82Z" fill="white"/>
<path d="M272.73 91.88C273.556 92.1192 274.325 92.5241 274.99 93.07C276.16 93.85 277.05 94.58 276.99 94.7C276.166 94.4508 275.398 94.0432 274.73 93.5C273.54 92.73 272.65 92 272.73 91.88Z" fill="white"/>
<path d="M263.67 87.26C264.525 87.3696 265.348 87.652 266.09 88.09C266.903 88.3718 267.651 88.8139 268.29 89.39C267.435 89.2804 266.612 88.998 265.87 88.56C265.059 88.2751 264.311 87.8334 263.67 87.26Z" fill="white"/>
<path d="M254 84.19C254.862 84.1598 255.722 84.2991 256.53 84.6C257.381 84.7425 258.193 85.0555 258.92 85.52C258.058 85.5462 257.199 85.407 256.39 85.11C255.541 84.9623 254.729 84.6498 254 84.19Z" fill="white"/>
<path d="M243.89 82.9C245.588 82.6145 247.33 82.7554 248.96 83.31C247.259 83.4474 245.547 83.3089 243.89 82.9Z" fill="white"/>
<path d="M233.75 83.6C235.378 83.0556 237.1 82.8513 238.81 83C238.023 83.3549 237.173 83.5454 236.31 83.56C235.467 83.7388 234.598 83.7524 233.75 83.6Z" fill="white"/>
<path d="M223.93 86.22C224.637 85.7302 225.437 85.39 226.28 85.22C227.069 84.8765 227.92 84.6995 228.78 84.7C228.07 85.1848 227.272 85.5246 226.43 85.7C225.638 86.0335 224.789 86.2101 223.93 86.22Z" fill="white"/>
<path d="M214.77 90.63C214.7 90.5 215.64 89.86 216.89 89.19C217.6 88.699 218.403 88.3586 219.25 88.19C217.934 89.2908 216.41 90.117 214.77 90.62V90.63Z" fill="white"/>
<path d="M206.65 96.73C206.55 96.63 207.35 95.81 208.43 94.9C209.039 94.2882 209.763 93.8023 210.56 93.47C210.64 93.59 209.84 94.41 208.77 95.3C208.169 95.9171 207.447 96.4038 206.65 96.73Z" fill="white"/>
<path d="M200 104.41C200.257 103.582 200.698 102.823 201.29 102.19C202.16 101.07 203.01 100.29 203.11 100.38C203.21 100.47 202.56 101.38 201.7 102.51C200.84 103.64 200.12 104.49 200 104.41Z" fill="white"/>
<path d="M196.29 111C196.16 110.94 196.29 110.39 196.6 109.76C196.91 109.13 197.25 108.68 197.38 108.76C197.51 108.84 197.38 109.38 197.07 110C196.76 110.62 196.42 111.07 196.29 111Z" fill="white"/>
<path d="M132.75 170C132.75 169.86 133.28 169.68 133.96 169.59C134.64 169.5 135.21 169.59 135.23 169.7C135.25 169.81 134.72 170.03 134.02 170.11C133.32 170.19 132.76 170.17 132.75 170Z" fill="white"/>
<path d="M122.85 168.9C123.691 168.891 124.528 169.016 125.33 169.27C126.167 169.357 126.985 169.58 127.75 169.93C126.054 170.091 124.348 169.743 122.85 168.93V168.9Z" fill="white"/>
<path d="M113.89 164.47C114.695 164.722 115.452 165.107 116.13 165.61C117.31 166.31 118.26 166.9 118.2 167.04C117.357 166.89 116.56 166.548 115.87 166.04C114.67 165.34 113.81 164.59 113.89 164.47Z" fill="white"/>
<path d="M106.45 157.79C106.56 157.7 107.38 158.46 108.35 159.44C109.32 160.42 110.07 161.25 109.98 161.36C109.89 161.47 108.98 160.8 107.98 159.81C106.98 158.82 106.34 157.89 106.45 157.79Z" fill="white"/>
<path d="M100.57 149.69C100.7 149.62 101.41 150.49 102.16 151.69C102.69 152.35 103.084 153.108 103.32 153.92C103.2 154.01 102.49 153.13 101.73 151.97C101.189 151.299 100.793 150.523 100.57 149.69Z" fill="white"/>
<path d="M96.25 140.66C96.8009 141.304 97.2159 142.052 97.47 142.86C97.8716 143.608 98.1261 144.426 98.22 145.27C97.6639 144.628 97.2453 143.88 96.99 143.07C96.5857 142.324 96.3342 141.505 96.25 140.66Z" fill="white"/>
<path d="M93.38 131.06C93.8312 131.779 94.1338 132.582 94.27 133.42C94.5657 134.215 94.695 135.063 94.65 135.91C94.1916 135.194 93.8884 134.39 93.76 133.55C93.4648 132.755 93.3355 131.907 93.38 131.06Z" fill="white"/>
<path d="M91.64 121.19C92.0062 121.955 92.2202 122.784 92.27 123.63C92.4798 124.453 92.5206 125.311 92.39 126.15C92.0149 125.388 91.8005 124.558 91.76 123.71C91.5442 122.888 91.5034 122.029 91.64 121.19Z" fill="white"/>
<path d="M90.68 111.22C91.1605 112.841 91.2968 114.544 91.08 116.22C90.7597 115.437 90.6031 114.596 90.62 113.75C90.4629 112.912 90.4833 112.05 90.68 111.22Z" fill="white"/>
<path d="M90.26 103.71C90.41 103.71 90.55 104.26 90.58 104.95C90.61 105.64 90.52 106.2 90.38 106.21C90.24 106.22 90.09 105.66 90.06 104.97C90.03 104.28 90.12 103.72 90.26 103.71Z" fill="white"/>
<path d="M127.918 43.0777L44.7705 46.9988L47.4137 103.047L130.561 99.1254L127.918 43.0777Z" fill="#0070E7"/>
<path d="M47.38 103.07L44.74 47L127.92 43.08L130.56 99.15L47.38 103.07ZM44.79 47L47.43 103L130.53 99.08L127.89 43.08L44.79 47Z" fill="white"/>
<path d="M128.21 43.74C127.99 44.0236 127.742 44.2849 127.47 44.52L125.25 46.66L117 54.43L89.46 79.9L89.23 80.11L88.98 79.93L88.38 79.49L57.65 57.11C53.79 54.25 50.65 51.92 48.39 50.26L45.9 48.36C45.5974 48.1552 45.316 47.9208 45.06 47.66C45.385 47.8282 45.696 48.0222 45.99 48.24L48.57 50L57.97 56.66L88.82 78.86L89.43 79.3H88.95L116.63 54L125.05 46.41L127.37 44.41C127.626 44.1579 127.907 43.9334 128.21 43.74Z" fill="white"/>
<path d="M47.7 103.71C47.54 103.58 53.43 95.6 60.86 85.89C68.29 76.18 74.45 68.41 74.61 68.53C74.77 68.65 68.89 76.64 61.46 86.35C54.03 96.06 47.87 103.83 47.7 103.71Z" fill="white"/>
<path d="M102.22 66.53C102.38 66.39 108.92 73.73 116.82 82.91C124.72 92.09 131.01 99.65 130.82 99.79C130.63 99.93 124.13 92.59 116.22 83.4C108.31 74.21 102.06 66.67 102.22 66.53Z" fill="white"/>
<path d="M193.57 242.16C193.65 241.6 193.518 241.03 193.2 240.562C192.882 240.094 192.401 239.761 191.85 239.63L189.62 239.78L181.62 237.01C181.278 236.919 180.919 236.905 180.571 236.97C180.222 237.034 179.892 237.176 179.605 237.383C179.318 237.591 179.081 237.86 178.91 238.171C178.74 238.481 178.641 238.826 178.62 239.18C178.62 241.47 177.62 247.71 175.81 245.75L175.67 245.62C173.04 242.69 170 241.27 168.83 241.44C168.579 241.489 168.348 241.609 168.163 241.785C167.979 241.962 167.848 242.187 167.787 242.435C167.726 242.683 167.738 242.943 167.82 243.185C167.901 243.427 168.051 243.64 168.25 243.8C168.385 243.942 168.549 244.055 168.73 244.13C168.81 244.13 168.91 244.23 168.99 244.27C170.096 245.074 171.118 245.989 172.04 247C172.873 247.878 173.55 248.893 174.04 250C174.57 251.24 174.99 252.32 175.32 253.25L175.44 260.58L172.26 294.85C172.26 294.85 151.16 272.69 151.65 272.48L152.88 307L165.66 317.57C168.027 319.537 170.908 320.784 173.963 321.161C177.017 321.538 180.115 321.03 182.89 319.698C185.664 318.366 187.997 316.265 189.612 313.645C191.227 311.025 192.056 307.997 192 304.92L191.27 260.61L191.79 254.8L193.57 242.16Z" fill="#FFBE9D"/>
<path d="M75.11 290.88L52 343.72L33.76 381.84L20.19 386.4C20.19 386.4 9.45001 389.52 9.45001 391.74C9.45001 393.96 12.28 393.46 12.28 393.46C12.8 396.78 17.4 394.9 20.62 393.46C23.84 392.02 31 391.62 31 391.62C30.6257 391.875 30.3162 392.214 30.096 392.61C29.8758 393.006 29.751 393.447 29.7315 393.9C29.7121 394.352 29.7986 394.803 29.9841 395.216C30.1696 395.63 30.449 395.994 30.8 396.28C31.94 397.08 33.92 396.11 35.26 394.68C36.6 393.25 40.06 392.59 43.91 391.21C47.76 389.83 48.39 384.67 48.39 384.67L94.6 306.8L75.11 290.88Z" fill="#FFBE9D"/>
<path d="M151.75 310.07L157.56 317.74L170.15 289.81C170.15 289.81 157.93 274.9 153.46 268.65C148.99 262.4 145.71 261.37 145.71 261.37C145.71 261.37 137.59 259 133.54 259L113.48 260.2L93.11 269.09C88.107 271.274 83.8448 274.862 80.84 279.42L61.66 310.23L88.82 321.84L97.93 374C99.67 381.81 101.2 389.18 108.41 392.78L158.78 344.37L152.88 335.07L151.75 310.07Z" fill="#0070E7"/>
<path d="M103.59 300.52C103.71 300.6 100.59 305.42 96.66 311.3C92.73 317.18 89.41 321.86 89.3 321.78C89.19 321.7 92.3 316.88 96.23 311C100.16 305.12 103.47 300.44 103.59 300.52Z" fill="#263238"/>
<path d="M145.82 350C145.396 350.303 144.948 350.571 144.48 350.8C143.61 351.28 142.33 351.96 140.74 352.8C137.55 354.45 133.13 356.66 128.18 358.99C123.23 361.32 118.71 363.33 115.41 364.73C113.76 365.43 112.41 365.99 111.49 366.36C111.015 366.572 110.523 366.746 110.02 366.88C110.461 366.603 110.927 366.365 111.41 366.17L115.26 364.4C118.52 362.91 123.02 360.85 127.96 358.52C132.9 356.19 137.35 354.03 140.57 352.52L144.39 350.68C144.846 350.413 145.325 350.185 145.82 350Z" fill="#263238"/>
<path d="M102 289.24C101.352 288.545 100.76 287.799 100.23 287.01C98.9056 285.172 97.4089 283.464 95.76 281.91C94.101 280.381 92.1335 279.225 89.99 278.52C88.34 278 87.24 278.02 87.24 277.92C87.4904 277.85 87.7519 277.83 88.01 277.86C88.712 277.886 89.4093 277.986 90.09 278.16C92.3274 278.79 94.3836 279.942 96.09 281.52C97.7696 283.097 99.2535 284.869 100.51 286.8C101.087 287.562 101.586 288.379 102 289.24Z" fill="#263238"/>
<path d="M143.42 314.61C143.445 314.796 143.445 314.984 143.42 315.17C143.42 315.53 143.42 316.06 143.42 316.75C143.303 318.692 143.032 320.621 142.61 322.52C141.265 328.835 138.46 334.748 134.419 339.784C130.378 344.82 125.214 348.839 119.34 351.52C117.574 352.325 115.748 352.994 113.88 353.52C113.22 353.72 112.69 353.83 112.34 353.91C112.165 353.966 111.983 353.999 111.8 354.01C111.8 354.01 112.52 353.76 113.8 353.33C115.632 352.72 117.422 351.991 119.16 351.15C124.929 348.407 130.002 344.394 133.999 339.412C137.996 334.429 140.814 328.606 142.24 322.38C142.692 320.499 143.026 318.592 143.24 316.67C143.33 315.37 143.38 314.61 143.42 314.61Z" fill="#263238"/>
<g opacity="0.3">
<path d="M92.34 342C92.25 341.5 98.8 307.64 98.8 307.64L88.92 322.47" fill="black"/>
</g>
<path d="M150.46 277.57C150.506 277.76 150.53 277.955 150.53 278.15C150.53 278.59 150.59 279.15 150.64 279.83C150.71 281.35 150.82 283.43 150.95 285.98C151.2 291.24 151.55 298.39 151.95 306.28C152.35 314.17 152.63 321.4 152.78 326.6C152.86 329.2 152.91 331.31 152.93 332.76V334.44C152.956 334.632 152.956 334.828 152.93 335.02C152.884 334.83 152.86 334.635 152.86 334.44C152.86 334 152.8 333.44 152.75 332.77C152.68 331.25 152.57 329.16 152.44 326.62C152.19 321.36 151.84 314.21 151.44 306.31C151.04 298.41 150.77 291.2 150.61 285.99C150.53 283.39 150.48 281.29 150.46 279.83V278.16C150.434 277.964 150.434 277.766 150.46 277.57Z" fill="#263238"/>
<g opacity="0.2">
<path d="M110.26 366.79C108.64 365.45 109.01 362.71 110.44 361.17C111.87 359.63 114 359 116 358.32C125.57 355.22 135.19 350.84 141.5 343C142.305 341.878 143.257 340.869 144.33 340C144.877 339.568 145.53 339.29 146.221 339.195C146.912 339.1 147.616 339.191 148.26 339.46C150.19 340.46 150.26 343.26 149.45 345.29C148.443 347.781 146.572 349.826 144.18 351.05" fill="black"/>
</g>
<g opacity="0.2">
<path d="M150.67 283.58L156.26 316.02L151.9 310.27L150.67 283.58Z" fill="black"/>
</g>
<path d="M203.85 368.79L194.4 401.21L234.67 413.21C235.58 409.29 217.04 395.38 217.04 395.38L224 374.82L203.85 368.79Z" fill="#0070E7"/>
<g opacity="0.6">
<path d="M205.11 389.9C204.688 389.9 204.28 390.056 203.967 390.339C203.653 390.621 203.454 391.01 203.41 391.43C203.398 391.852 203.548 392.263 203.828 392.579C204.109 392.895 204.499 393.092 204.92 393.13C205.368 393.125 205.798 392.955 206.128 392.652C206.459 392.349 206.666 391.936 206.71 391.49C206.679 391.047 206.477 390.633 206.147 390.337C205.817 390.04 205.384 389.883 204.94 389.9" fill="white"/>
</g>
<g opacity="0.6">
<path d="M194.4 401.21L195.48 397.98L233.69 410.66C233.69 410.66 235.25 411.97 234.69 413.17L194.4 401.21Z" fill="white"/>
</g>
<path d="M217.75 395.33C217.69 395.52 216.68 395.33 215.52 395.67C214.36 396.01 213.61 396.67 213.45 396.55C213.29 396.43 213.92 395.37 215.33 394.98C216.74 394.59 217.85 395.16 217.75 395.33Z" fill="#263238"/>
<path d="M221.46 398.33C221.46 398.54 220.46 398.62 219.58 399.25C218.7 399.88 218.21 400.71 218.02 400.64C217.83 400.57 218.02 399.42 219.18 398.64C220.34 397.86 221.51 398.14 221.46 398.33Z" fill="#263238"/>
<path d="M222.36 404.1C222.16 404.1 222.18 403.02 223.01 402.1C223.84 401.18 224.88 401.02 224.91 401.2C224.94 401.38 224.21 401.8 223.54 402.57C222.87 403.34 222.56 404.14 222.36 404.1Z" fill="#263238"/>
<path d="M218.81 390.48C218.67 390.63 217.81 390.09 216.72 389.84C215.63 389.59 214.61 389.68 214.56 389.48C214.51 389.28 215.56 388.83 216.88 389.14C218.2 389.45 219 390.35 218.81 390.48Z" fill="#263238"/>
<path d="M219.27 385.42C218.561 385.398 217.871 385.187 217.27 384.81C216.578 384.466 215.933 384.036 215.35 383.53C214.993 383.221 214.659 382.887 214.35 382.53C214.163 382.34 214.007 382.12 213.89 381.88C213.802 381.701 213.776 381.498 213.815 381.302C213.855 381.107 213.959 380.93 214.11 380.8C214.25 380.692 214.414 380.619 214.587 380.586C214.761 380.553 214.94 380.561 215.11 380.61C215.367 380.686 215.613 380.797 215.84 380.94C216.236 381.174 216.61 381.442 216.96 381.74C217.551 382.25 218.058 382.851 218.46 383.52C218.896 384.097 219.141 384.797 219.16 385.52C219.05 385.52 218.78 384.8 218.04 383.81C217.612 383.228 217.108 382.707 216.54 382.26C216.211 381.997 215.859 381.763 215.49 381.56C215.1 381.32 214.74 381.21 214.57 381.37C214.4 381.53 214.5 381.45 214.57 381.6C214.657 381.777 214.772 381.939 214.91 382.08C215.189 382.407 215.486 382.717 215.8 383.01C216.334 383.502 216.909 383.947 217.52 384.34C218.56 385 219.31 385.31 219.27 385.42Z" fill="#263238"/>
<path d="M218.93 385.62C218.718 384.933 218.736 384.196 218.98 383.52C219.161 382.76 219.476 382.039 219.91 381.39C220.162 381.001 220.457 380.643 220.79 380.32C220.977 380.084 221.221 379.901 221.5 379.789C221.779 379.677 222.082 379.639 222.38 379.68C222.556 379.74 222.712 379.847 222.83 379.99C222.948 380.133 223.025 380.306 223.05 380.49C223.086 380.755 223.086 381.025 223.05 381.29C222.986 381.761 222.851 382.22 222.65 382.65C222.309 383.369 221.802 383.996 221.17 384.48C220.07 385.29 219.17 385.28 219.17 385.21C219.17 385.14 219.93 384.92 220.83 384.09C221.351 383.619 221.761 383.039 222.03 382.39C222.192 382.014 222.296 381.617 222.34 381.21C222.41 380.76 222.34 380.37 222.18 380.37C222.02 380.37 221.54 380.53 221.27 380.82C220.972 381.111 220.698 381.426 220.45 381.76C220.028 382.343 219.691 382.982 219.45 383.66C219.06 384.82 219.05 385.62 218.93 385.62Z" fill="#263238"/>
<path d="M245.2 320.52C246.2 328 243.66 336.43 240.95 343.52L223.29 385L203.74 382C203.74 382 199.67 386.54 194.46 388.28C192.13 389.05 184.46 390.56 178.15 386.02C178.15 386.02 169.22 398.46 155.15 402.22C141.08 405.98 119.83 408.06 109.53 391.62L158.53 344.38C159.53 344.62 200.76 316.82 223.03 310.49C223.07 310.49 243.32 306.77 245.2 320.52Z" fill="#263238"/>
<path d="M202.29 381.84C202.29 381.84 202.37 381.78 202.55 381.68L203.35 381.26C204.06 380.88 205.1 380.35 206.42 379.62C208.032 378.747 209.594 377.785 211.1 376.74C213.095 375.372 214.877 373.717 216.39 371.83C218.199 369.523 219.38 366.788 219.82 363.89C220.319 360.56 220.177 357.166 219.4 353.89C218.737 350.233 216.834 346.917 214.01 344.5C210.803 342.15 206.98 340.787 203.01 340.58C200.996 340.416 198.971 340.433 196.96 340.63C195.004 340.837 193.063 341.171 191.15 341.63C187.541 342.561 184.013 343.781 180.6 345.28C174.07 348.14 168.4 351.22 163.42 353.35C159.523 355.122 155.451 356.479 151.27 357.4C150.53 357.57 149.86 357.68 149.27 357.76C148.68 357.84 148.21 357.93 147.81 357.96L146.91 358.05H146.6L146.91 357.98L147.8 357.85C148.19 357.79 148.68 357.72 149.25 357.6C149.82 357.48 150.48 357.38 151.25 357.2C155.379 356.2 159.399 354.794 163.25 353C168.19 350.84 173.84 347.73 180.39 344.83C183.823 343.31 187.375 342.072 191.01 341.13C192.943 340.671 194.904 340.337 196.88 340.13C198.925 339.933 200.983 339.916 203.03 340.08C207.12 340.287 211.057 341.696 214.35 344.13C215.865 345.35 217.114 346.868 218.02 348.59C218.879 350.236 219.508 351.993 219.89 353.81C220.659 357.145 220.788 360.596 220.27 363.98C219.793 366.938 218.563 369.724 216.7 372.07C215.151 373.974 213.324 375.632 211.28 376.99C209.754 378.018 208.171 378.959 206.54 379.81C205.2 380.51 204.14 381.02 203.42 381.36L202.59 381.74C202.495 381.786 202.394 381.819 202.29 381.84Z" fill="#455A64"/>
<path d="M214.55 327.35C213.337 329.671 211.967 331.906 210.45 334.04C209.08 336.269 207.567 338.407 205.92 340.44C207.138 338.122 208.507 335.887 210.02 333.75C211.39 331.521 212.903 329.383 214.55 327.35Z" fill="#455A64"/>
<path d="M200.45 378.54C199.284 378.909 198.099 379.216 196.9 379.46C194.71 380 191.7 380.83 188.44 381.97C185.18 383.11 182.31 384.34 180.26 385.28C178.21 386.22 176.95 386.85 176.91 386.78C177.16 386.564 177.435 386.379 177.73 386.23C178.28 385.9 179.09 385.46 180.1 384.95C185.396 382.282 191.016 380.315 196.82 379.1C197.93 378.87 198.82 378.71 199.47 378.63C199.792 378.56 200.121 378.53 200.45 378.54Z" fill="#455A64"/>
<path d="M222.94 382.28C222.85 382.28 222.62 381.4 221.79 380.18C220.733 378.574 219.161 377.376 217.333 376.781C215.505 376.187 213.529 376.233 211.73 376.91C210.34 377.41 209.61 378.02 209.55 377.91C209.49 377.8 209.69 377.71 210.03 377.44C210.51 377.075 211.034 376.772 211.59 376.54C213.462 375.73 215.565 375.635 217.502 376.273C219.44 376.911 221.075 378.237 222.1 380C222.415 380.516 222.66 381.07 222.83 381.65C223 382 223 382.28 222.94 382.28Z" fill="#455A64"/>
<path d="M138.36 366.79C138.502 367.082 138.59 367.397 138.62 367.72C138.77 368.589 138.843 369.469 138.84 370.35C138.843 373.293 138.048 376.182 136.54 378.71C135.004 381.244 132.636 383.167 129.84 384.15C129.001 384.436 128.126 384.604 127.24 384.65C126.91 384.713 126.57 384.713 126.24 384.65C127.413 384.493 128.568 384.225 129.69 383.85C132.349 382.809 134.591 380.922 136.07 378.48C137.525 376.027 138.343 373.25 138.45 370.4C138.57 368.15 138.27 366.8 138.36 366.79Z" fill="#455A64"/>
<path d="M116.31 389.22C116.2 389.31 115.68 388.86 115.19 388.22C114.7 387.58 114.44 386.89 114.57 386.82C114.7 386.75 115.14 387.25 115.62 387.91C116.1 388.57 116.42 389.13 116.31 389.22Z" fill="#455A64"/>
<path d="M120.42 393.57C120.33 393.68 119.77 393.29 119.17 392.71C118.57 392.13 118.17 391.58 118.27 391.49C118.37 391.4 118.94 391.77 119.53 392.34C120.12 392.91 120.52 393.46 120.42 393.57Z" fill="#455A64"/>
<path d="M125.28 397.08C125.21 397.2 124.58 396.94 123.88 396.48C123.18 396.02 122.68 395.56 122.76 395.48C122.84 395.4 123.48 395.64 124.16 396.08C124.84 396.52 125.35 397 125.28 397.08Z" fill="#455A64"/>
<path d="M130.78 399.44C130.78 399.58 130.07 399.44 129.28 399.18C128.49 398.92 127.9 398.56 127.96 398.42C128.02 398.28 128.69 398.42 129.45 398.69C130.21 398.96 130.82 399.3 130.78 399.44Z" fill="#455A64"/>
<path d="M136.69 400.37C136.69 400.51 136.01 400.57 135.17 400.49C134.33 400.41 133.68 400.24 133.7 400.1C133.72 399.96 134.41 399.9 135.22 399.98C136.03 400.06 136.69 400.23 136.69 400.37Z" fill="#455A64"/>
<path d="M142.67 400.05C142.67 400.19 142.02 400.35 141.19 400.41C140.817 400.441 140.443 400.441 140.07 400.41C139.82 400.41 139.67 400.35 139.66 400.28C139.65 400.21 139.79 400.14 140.03 400.07C140.391 399.985 140.759 399.931 141.13 399.91C142 399.83 142.65 399.9 142.67 400.05Z" fill="#455A64"/>
<path d="M148.56 399C148.56 399.14 147.97 399.39 147.15 399.57C146.33 399.75 145.66 399.77 145.64 399.63C145.62 399.49 146.24 399.23 147.05 399.06C147.86 398.89 148.53 398.84 148.56 399Z" fill="#455A64"/>
<path d="M154.3 397.23C154.3 397.37 153.75 397.69 152.96 397.96C152.17 398.23 151.49 398.32 151.45 398.19C151.41 398.06 152.01 397.73 152.79 397.46C153.57 397.19 154.25 397.1 154.3 397.23Z" fill="#455A64"/>
<path d="M159.81 394.89C159.88 395.02 159.31 395.41 158.56 395.75C157.81 396.09 157.14 396.27 157.08 396.14C157.02 396.01 157.59 395.62 158.34 395.28C159.09 394.94 159.75 394.76 159.81 394.89Z" fill="#455A64"/>
<path d="M165.07 392C165.14 392.12 164.62 392.56 163.9 393C163.18 393.44 162.54 393.65 162.48 393.53C162.42 393.41 162.93 392.96 163.64 392.53C164.35 392.1 165 391.89 165.07 392Z" fill="#455A64"/>
<path d="M170 388.63C170.09 388.75 169.61 389.23 168.93 389.72C168.25 390.21 167.64 390.5 167.56 390.38C167.48 390.26 167.96 389.77 168.63 389.29C169.3 388.81 169.93 388.52 170 388.63Z" fill="#455A64"/>
<path d="M174.64 384.81C174.74 384.92 174.3 385.45 173.64 385.99C172.98 386.53 172.42 386.89 172.33 386.78C172.24 386.67 172.67 386.14 173.33 385.6C173.99 385.06 174.54 384.71 174.64 384.81Z" fill="#455A64"/>
<path d="M179 380.69C179.1 380.8 178.69 381.35 178.09 381.91C177.49 382.47 176.91 382.85 176.82 382.75C176.73 382.65 177.12 382.11 177.73 381.53C178.34 380.95 178.91 380.59 179 380.69Z" fill="#455A64"/>
<path d="M183.74 377C183.82 377.12 183.35 377.61 182.68 378.09C182.01 378.57 181.4 378.87 181.31 378.76C181.22 378.65 181.7 378.16 182.37 377.67C183.04 377.18 183.66 376.89 183.74 377Z" fill="#455A64"/>
<path d="M189 374.11C189.06 374.24 188.5 374.64 187.77 375.01C187.04 375.38 186.38 375.57 186.31 375.44C186.24 375.31 186.79 374.91 187.54 374.54C188.29 374.17 188.94 374 189 374.11Z" fill="#455A64"/>
<path d="M194.72 372.33C194.72 372.47 194.12 372.75 193.33 372.94C192.54 373.13 191.85 373.19 191.81 373.06C191.77 372.93 192.39 372.64 193.2 372.44C194.01 372.24 194.7 372.19 194.72 372.33Z" fill="#455A64"/>
<path d="M200.7 372C200.7 372.15 200.01 372.2 199.19 372.18C198.37 372.16 197.71 372.09 197.7 371.95C197.69 371.81 198.36 371.65 199.2 371.66C200.04 371.67 200.71 371.88 200.7 372Z" fill="#455A64"/>
<path d="M206.48 373.54C206.41 373.67 205.77 373.48 205.01 373.21C204.25 372.94 203.62 372.67 203.65 372.53C203.68 372.39 204.38 372.43 205.18 372.72C205.98 373.01 206.54 373.41 206.48 373.54Z" fill="#455A64"/>
<path d="M205.21 377.89C205.12 377.77 205.57 377.28 206.1 376.68C206.63 376.08 207.1 375.58 207.19 375.68C207.28 375.78 207.07 376.41 206.49 377.05C205.91 377.69 205.3 378 205.21 377.89Z" fill="#455A64"/>
<path d="M199.92 380.64C199.92 380.5 200.45 380.14 201.2 379.83C201.95 379.52 202.62 379.37 202.69 379.5C202.76 379.63 202.18 379.99 201.4 380.31C200.62 380.63 200 380.78 199.92 380.64Z" fill="#455A64"/>
<path d="M194.2 382.48C194.2 382.34 194.75 382.02 195.54 381.75C196.33 381.48 197 381.38 197.05 381.52C197.1 381.66 196.49 381.98 195.71 382.24C194.93 382.5 194.25 382.61 194.2 382.48Z" fill="#455A64"/>
<path d="M188.6 384.61C188.54 384.48 189.12 384.13 189.9 383.82C190.68 383.51 191.34 383.38 191.39 383.51C191.44 383.64 190.86 384 190.09 384.31C189.32 384.62 188.65 384.75 188.6 384.61Z" fill="#455A64"/>
<path d="M183.07 387C183.01 386.87 183.58 386.49 184.34 386.17C185.1 385.85 185.77 385.68 185.82 385.81C185.87 385.94 185.31 386.32 184.55 386.64C183.79 386.96 183.12 387.08 183.07 387Z" fill="#455A64"/>
<path d="M171.89 215.47C171.89 215.47 178.43 213.47 187.12 203.82C195.81 194.17 199.31 181.82 200.46 181.82C201.61 181.82 206.46 179.1 217.46 199.08C228.46 219.06 225.12 224.15 223.23 224.25C221.34 224.35 208.23 221.73 200.23 223.25C192.23 224.77 182.23 229.71 182.23 229.71L171.89 215.47Z" fill="#455A64"/>
<path d="M158.6 227.8L161.19 231.95L162.35 233.8C163.117 235.028 164.325 235.914 165.726 236.277C167.127 236.64 168.614 236.451 169.88 235.75L183.76 229.75L174.05 211.42L160.37 220C159.741 220.395 159.196 220.911 158.767 221.517C158.337 222.123 158.032 222.808 157.867 223.533C157.703 224.257 157.683 225.007 157.809 225.739C157.934 226.472 158.203 227.172 158.6 227.8Z" fill="#263238"/>
<path d="M167.33 234.1L172.54 242.66L174.76 241.86L190.49 252.86L194 244.4C194 244.4 185 241.27 183.1 238.27C181.2 235.27 183.1 234.42 183.1 234.42L178.63 230L167.33 234.1Z" fill="#263238"/>
<path d="M216.75 199.52C222.64 210.35 225.49 220.18 223.11 221.52C220.73 222.86 214.03 215.09 208.11 204.26C202.19 193.43 199.37 183.6 201.75 182.26C204.13 180.92 210.85 188.68 216.75 199.52Z" fill="#263238"/>
<path d="M157.84 234.12L161.62 232.62L158.89 228.26L156.13 230.27L157.84 234.12Z" fill="#455A64"/>
<path d="M180.16 231.54L170.27 238.93L168.79 236.49L180.16 231.54Z" fill="#455A64"/>
<path d="M158.89 228.26L161.62 232.62L160.84 232.93L158.56 228.5L158.89 228.26Z" fill="#455A64"/>
<path d="M161.63 229.11C163.091 228.596 164.493 227.925 165.81 227.11C167.207 226.444 168.528 225.629 169.75 224.68C168.29 225.196 166.888 225.867 165.57 226.68C164.173 227.346 162.852 228.161 161.63 229.11Z" fill="#455A64"/>
<path d="M160.24 226.49C161.567 225.995 162.832 225.347 164.01 224.56C165.271 223.908 166.455 223.116 167.54 222.2C164.946 223.336 162.495 224.776 160.24 226.49Z" fill="#455A64"/>
<path d="M163.34 231.84C163.756 231.796 164.159 231.674 164.53 231.48L165.78 230.96C166.24 230.75 166.72 230.47 167.23 230.19C168.498 229.567 169.681 228.784 170.75 227.86C169.435 228.359 168.175 228.992 166.99 229.75C166.48 230.03 165.99 230.33 165.57 230.55C165.15 230.77 164.72 230.98 164.38 231.16C163.72 231.52 163.31 231.77 163.34 231.84Z" fill="#455A64"/>
<path d="M206.24 197.79C206.24 197.79 211.76 193.79 215.5 201.35C219.24 208.91 213.26 210.66 213.26 210.66C210.325 206.722 207.962 202.389 206.24 197.79Z" fill="#455A64"/>
<path d="M199.41 188.94C199.469 189.443 199.579 189.939 199.74 190.42C200 191.36 200.36 192.72 200.86 194.42C201.16 195.24 201.5 196.13 201.86 197.09L202.42 198.58C202.52 198.83 202.61 199.09 202.71 199.36C202.81 199.63 202.95 199.87 203.07 200.13L204.63 203.4C204.76 203.69 204.9 203.97 205.04 204.26C205.18 204.55 205.35 204.82 205.51 205.1L206.51 206.81L207.51 208.52C207.68 208.79 207.83 209.08 208.01 209.34C208.19 209.6 208.38 209.87 208.55 210.13L210.63 213.13C210.8 213.36 210.95 213.6 211.12 213.82L211.66 214.47L212.66 215.69L214.49 217.89C215.7 219.15 216.7 220.13 217.39 220.82C217.731 221.188 218.106 221.523 218.51 221.82C218.205 221.413 217.871 221.029 217.51 220.67L214.73 217.67L213 215.38L212 214.15L211.48 213.5C211.31 213.28 211.16 213.04 211 212.81L209 209.81L208.47 209.03C208.28 208.77 208.14 208.48 207.97 208.21L206.97 206.51C206.64 205.94 206.31 205.37 205.97 204.82C205.82 204.54 205.64 204.27 205.5 203.98C205.36 203.69 205.23 203.41 205.09 203.13L203.52 199.9C203.4 199.64 203.26 199.39 203.16 199.13C203.06 198.87 202.95 198.61 202.85 198.36C202.65 197.85 202.46 197.36 202.27 196.89L201.22 194.25C200.69 192.62 200.27 191.25 199.96 190.34C199.811 189.86 199.628 189.393 199.41 188.94Z" fill="#263238"/>
<path d="M184.54 234.44C184.964 234.561 185.324 234.844 185.542 235.227C185.761 235.61 185.821 236.063 185.71 236.49C185.28 238.19 184.58 240.86 184.02 242.49C183.864 243.026 183.61 243.528 183.27 243.97C183.104 244.21 182.867 244.393 182.592 244.492C182.318 244.591 182.019 244.601 181.738 244.522C181.456 244.442 181.207 244.277 181.025 244.049C180.842 243.821 180.736 243.542 180.72 243.25C180.655 242.666 180.706 242.074 180.87 241.51C181.22 239.92 181.87 237.51 182.43 235.6C182.491 235.384 182.594 235.183 182.734 235.008C182.873 234.832 183.046 234.686 183.242 234.578C183.439 234.47 183.654 234.403 183.877 234.379C184.1 234.355 184.325 234.376 184.54 234.44Z" fill="#FFBE9D"/>
<path d="M187.25 237.2C187.674 237.322 188.034 237.604 188.252 237.987C188.471 238.37 188.531 238.823 188.42 239.25C187.99 240.95 187.29 243.62 186.72 245.25C186.568 245.787 186.314 246.29 185.97 246.73C185.798 246.949 185.569 247.117 185.308 247.216C185.047 247.315 184.764 247.34 184.49 247.29C184.21 247.196 183.962 247.026 183.774 246.798C183.587 246.569 183.467 246.293 183.43 246C183.367 245.416 183.414 244.826 183.57 244.26C183.93 242.68 184.57 240.26 185.13 238.35C185.258 237.915 185.553 237.549 185.95 237.331C186.347 237.114 186.815 237.063 187.25 237.19V237.2Z" fill="#FFBE9D"/>
<path d="M189.86 238.86C190.223 238.972 190.53 239.219 190.716 239.55C190.902 239.881 190.954 240.272 190.86 240.64C190.49 242.11 189.86 244.42 189.39 245.83C189.257 246.297 189.037 246.735 188.74 247.12C188.596 247.327 188.39 247.483 188.153 247.567C187.915 247.651 187.658 247.659 187.415 247.59C187.173 247.521 186.958 247.377 186.802 247.18C186.645 246.983 186.553 246.742 186.54 246.49C186.48 245.984 186.521 245.471 186.66 244.98C186.97 243.61 187.53 241.55 188.01 239.86C188.121 239.486 188.376 239.17 188.719 238.983C189.062 238.796 189.465 238.751 189.84 238.86H189.86Z" fill="#FFBE9D"/>
<path d="M192.83 239.19C193.196 239.302 193.504 239.55 193.69 239.884C193.877 240.217 193.927 240.61 193.83 240.98C193.46 242.46 192.83 244.78 192.35 246.2C192.219 246.668 191.998 247.106 191.7 247.49C191.557 247.701 191.351 247.861 191.112 247.948C190.873 248.034 190.612 248.044 190.367 247.974C190.122 247.904 189.906 247.759 189.748 247.559C189.591 247.359 189.5 247.114 189.49 246.86C189.43 246.35 189.471 245.834 189.61 245.34C189.92 243.97 190.48 241.89 190.97 240.2C191.025 240.013 191.116 239.84 191.239 239.688C191.361 239.537 191.512 239.412 191.683 239.319C191.854 239.226 192.041 239.167 192.235 239.147C192.428 239.127 192.624 239.145 192.81 239.2L192.83 239.19Z" fill="#FFBE9D"/>
<path d="M183.6 244C183.672 242.901 183.918 241.821 184.33 240.8C184.582 239.725 185 238.696 185.57 237.75C185.498 238.85 185.248 239.93 184.83 240.95C184.579 242.024 184.164 243.053 183.6 244Z" fill="#EB996E"/>
<path d="M189.23 246.27C189.685 244.134 190.311 242.037 191.1 240C190.985 242.212 190.344 244.365 189.23 246.28V246.27Z" fill="#EB996E"/>
<path d="M186.44 245.91C186.897 243.767 187.522 241.664 188.31 239.62C188.197 241.836 187.556 243.992 186.44 245.91Z" fill="#EB996E"/>
<path d="M237.25 161.35C237.36 161.43 233.25 167 228.09 173.78C222.93 180.56 218.63 185.99 218.52 185.9C218.41 185.81 222.52 180.25 227.67 173.47C232.82 166.69 237.13 161.26 237.25 161.35Z" fill="#263238"/>
<path d="M264.08 177.22C264.14 177.35 255.52 181.48 244.82 186.44C234.12 191.4 225.41 195.32 225.35 195.19C225.29 195.06 233.91 190.93 244.6 185.97C255.29 181.01 264 177.09 264.08 177.22Z" fill="#263238"/>
<path d="M260.08 210.24C260.08 210.38 253.92 209.91 246.36 209.18C238.8 208.45 232.67 207.74 232.68 207.6C232.69 207.46 238.84 207.93 246.41 208.66C253.98 209.39 260.1 210.1 260.08 210.24Z" fill="#263238"/>
<path d="M102.42 228.76L109.21 267.36C109.802 270.59 111.622 273.465 114.289 275.381C116.955 277.298 120.26 278.108 123.51 277.64C125.178 277.425 126.786 276.878 128.238 276.03C129.691 275.183 130.958 274.052 131.966 272.705C132.973 271.359 133.699 269.823 134.102 268.19C134.505 266.558 134.575 264.861 134.31 263.2L133.21 256.56C133.21 256.56 142.71 253.98 141.72 244.44C141.24 239.84 139.48 230.44 137.78 221.98C136.817 217.388 134.118 213.345 130.247 210.693C126.375 208.042 121.63 206.988 117 207.75C114.643 208.131 112.388 208.984 110.368 210.256C108.349 211.529 106.606 213.195 105.245 215.157C103.884 217.118 102.933 219.333 102.447 221.671C101.962 224.008 101.953 226.419 102.42 228.76Z" fill="#FFBE9D"/>
<path d="M133.23 256.58C128.784 257.163 124.264 256.429 120.23 254.47C120.23 254.47 124 261 133.54 259L133.23 256.58Z" fill="#EB996E"/>
<path d="M135.71 228.42C135.753 228.776 135.654 229.135 135.435 229.419C135.217 229.703 134.895 229.89 134.54 229.94C134.368 229.975 134.19 229.975 134.018 229.94C133.846 229.905 133.683 229.837 133.537 229.738C133.392 229.639 133.268 229.512 133.172 229.365C133.076 229.218 133.011 229.053 132.98 228.88C132.934 228.522 133.032 228.161 133.251 227.875C133.47 227.588 133.793 227.4 134.15 227.35C134.323 227.315 134.501 227.316 134.674 227.351C134.847 227.386 135.01 227.456 135.156 227.556C135.301 227.656 135.425 227.783 135.52 227.932C135.616 228.08 135.68 228.246 135.71 228.42Z" fill="#263238"/>
<path d="M136 226.11C135.85 226.31 134.71 225.66 133.23 225.84C131.75 226.02 130.74 226.84 130.56 226.7C130.38 226.56 130.56 226.29 131.04 225.9C131.636 225.39 132.371 225.07 133.15 224.98C133.926 224.889 134.71 225.046 135.39 225.43C135.91 225.72 136.11 226 136 226.11Z" fill="#263238"/>
<path d="M121.74 230.1C121.783 230.457 121.685 230.817 121.466 231.103C121.248 231.389 120.926 231.578 120.57 231.63C120.397 231.665 120.218 231.664 120.044 231.629C119.871 231.594 119.706 231.524 119.56 231.425C119.414 231.325 119.289 231.197 119.193 231.049C119.097 230.9 119.031 230.734 119 230.56C118.957 230.204 119.056 229.845 119.275 229.561C119.493 229.277 119.815 229.09 120.17 229.04C120.343 229.005 120.521 229.005 120.694 229.04C120.866 229.074 121.031 229.143 121.177 229.242C121.323 229.34 121.448 229.467 121.545 229.614C121.641 229.762 121.708 229.927 121.74 230.1Z" fill="#263238"/>
<path d="M121.67 228C121.52 228.19 120.39 227.55 118.9 227.72C117.41 227.89 116.41 228.72 116.23 228.59C116.05 228.46 116.28 228.18 116.72 227.78C117.313 227.266 118.05 226.948 118.83 226.87C119.601 226.782 120.38 226.936 121.06 227.31C121.56 227.64 121.75 228 121.67 228Z" fill="#263238"/>
<path d="M128.33 239.16C129.09 238.834 129.885 238.599 130.7 238.46C131.07 238.38 131.42 238.26 131.46 238C131.443 237.609 131.307 237.232 131.07 236.92L129.62 234.2C127.62 230.33 126.07 227.12 126.23 227.04C126.39 226.96 128.17 230.04 130.23 233.92C130.72 234.87 131.23 235.78 131.63 236.66C131.925 237.079 132.056 237.591 132 238.1C131.961 238.24 131.89 238.368 131.793 238.476C131.696 238.583 131.575 238.667 131.44 238.72C131.238 238.8 131.026 238.854 130.81 238.88C129.998 239.076 129.165 239.17 128.33 239.16Z" fill="#263238"/>
<path d="M124.08 240.67C124.32 240.67 124.51 242.21 126.02 243.19C127.53 244.17 129.23 243.79 129.26 244.01C129.29 244.23 128.92 244.36 128.19 244.46C127.249 244.583 126.294 244.374 125.49 243.87C124.726 243.385 124.18 242.621 123.97 241.74C123.83 241.08 124 240.67 124.08 240.67Z" fill="#263238"/>
<path d="M121.39 223.14C121.29 223.55 119.78 223.53 118.06 223.93C116.34 224.33 114.99 224.93 114.72 224.64C114.59 224.48 114.79 224.07 115.32 223.64C116.03 223.086 116.854 222.697 117.732 222.5C118.61 222.303 119.522 222.303 120.4 222.5C121.07 222.66 121.43 222.94 121.39 223.14Z" fill="#263238"/>
<path d="M135.21 222.82C134.99 223.18 133.92 222.95 132.69 223.07C131.46 223.19 130.44 223.55 130.16 223.23C130.04 223.08 130.16 222.72 130.58 222.36C131.147 221.895 131.848 221.622 132.58 221.58C133.305 221.511 134.034 221.664 134.67 222.02C135.12 222.32 135.3 222.64 135.21 222.82Z" fill="#263238"/>
<path d="M137.83 205.68C137.187 205.192 136.391 204.951 135.585 205C134.779 205.05 134.018 205.387 133.44 205.95C133.83 205.299 133.96 204.525 133.802 203.783C133.644 203.04 133.211 202.386 132.59 201.95C131.954 201.528 131.231 201.253 130.476 201.144C129.72 201.035 128.95 201.095 128.22 201.32C126.762 201.772 125.382 202.447 124.13 203.32C124.184 203.023 124.149 202.717 124.029 202.439C123.91 202.162 123.712 201.926 123.46 201.76C122.94 201.441 122.349 201.255 121.74 201.22C119.231 201.057 116.728 201.62 114.53 202.84C112.176 204.147 109.943 205.663 107.86 207.37C105.531 209.246 103.477 211.441 101.76 213.89L101.68 213.96C100.27 215.22 99.08 219.02 99.29 220.88C100.08 227.75 102.36 231.72 103.64 238.22C103.682 238.662 103.852 239.083 104.13 239.43C104.92 240.25 106.34 239.55 107.13 238.69C108.831 236.477 109.726 233.75 109.67 230.96C109.76 228.2 109.36 225.45 109.43 222.69V222.49C109.449 221.786 109.516 221.085 109.63 220.39C109.75 219.94 110.92 216 114.71 215.39C118.71 214.71 126.66 218.61 130.59 217.99C134.52 217.37 134.73 214.6 134.73 214.6L137.04 219.3C137.571 217.39 137.697 215.391 137.41 213.43C138.409 212.516 139.107 211.32 139.41 210C139.57 209.204 139.507 208.38 139.228 207.618C138.949 206.855 138.465 206.185 137.83 205.68Z" fill="#263238"/>
<path d="M106.19 232.86C106.02 232.81 99.32 231.68 100.29 238.17C101.26 244.66 107.68 242.36 107.66 242.17C107.64 241.98 106.19 232.86 106.19 232.86Z" fill="#FFBE9D"/>
<path d="M105.28 240C105.28 240 105.18 240.1 105 240.21C104.743 240.367 104.435 240.421 104.14 240.36C103.678 240.157 103.279 239.836 102.982 239.428C102.685 239.021 102.501 238.542 102.45 238.04C102.354 237.484 102.382 236.914 102.53 236.37C102.561 236.155 102.645 235.951 102.774 235.777C102.903 235.602 103.073 235.462 103.27 235.37C103.396 235.318 103.536 235.31 103.667 235.349C103.798 235.387 103.912 235.468 103.99 235.58C104.1 235.75 104.08 235.89 104.12 235.89C104.16 235.89 104.24 235.76 104.12 235.5C104.053 235.347 103.941 235.218 103.8 235.13C103.596 235.025 103.361 235 103.14 235.06C102.889 235.159 102.667 235.319 102.492 235.525C102.318 235.731 102.197 235.976 102.14 236.24C101.947 236.844 101.906 237.486 102.02 238.11C102.079 238.694 102.309 239.249 102.681 239.704C103.052 240.159 103.549 240.495 104.11 240.67C104.291 240.691 104.474 240.672 104.646 240.615C104.819 240.558 104.977 240.464 105.11 240.34C105.29 240.16 105.3 240 105.28 240Z" fill="#EB996E"/>
<path d="M91.4 279.85C91.5799 279.774 91.7755 279.743 91.97 279.76C92.5397 279.809 93.0692 280.073 93.45 280.5C93.7569 280.827 93.9919 281.215 94.14 281.639C94.2881 282.063 94.346 282.513 94.31 282.96C94.1929 284.107 93.9377 285.235 93.55 286.32C93.3061 286.94 93.2003 287.605 93.24 288.27C93.2797 288.935 93.464 289.584 93.78 290.17C94.49 291.41 95.94 292.36 96.53 294.09C96.8202 294.972 96.8371 295.922 96.5783 296.814C96.3196 297.706 95.7973 298.5 95.08 299.09C94.3137 299.717 93.3684 300.084 92.38 300.14C91.3987 300.128 90.4247 299.969 89.49 299.67C88.6204 299.378 87.6894 299.319 86.79 299.5C85.96 299.8 85.2553 300.37 84.79 301.12C84.2949 301.884 83.7255 302.598 83.09 303.25C82.754 303.569 82.3562 303.817 81.9211 303.976C81.486 304.136 81.0228 304.206 80.56 304.18C79.7246 304.109 78.9203 303.829 78.2214 303.366C77.5224 302.903 76.9511 302.272 76.56 301.53C75.9351 300.258 75.5939 298.866 75.56 297.45C75.49 296.17 75.56 295.02 75.56 294.02C75.5502 293.166 75.4766 292.313 75.34 291.47C75.1957 290.754 74.9917 290.052 74.73 289.37C74.8461 289.523 74.9403 289.691 75.01 289.87C75.2472 290.366 75.4219 290.89 75.53 291.43C75.715 292.278 75.8221 293.142 75.85 294.01C75.85 295.01 75.85 296.17 75.98 297.43C76.027 298.784 76.3682 300.111 76.98 301.32C77.3431 301.984 77.8643 302.549 78.4974 302.964C79.1305 303.379 79.856 303.632 80.61 303.7C81.0087 303.721 81.4074 303.658 81.7809 303.517C82.1544 303.376 82.4946 303.159 82.78 302.88C83.3898 302.249 83.9358 301.559 84.41 300.82C84.9377 299.977 85.7337 299.336 86.67 299C87.6668 298.782 88.7042 298.841 89.67 299.17C90.5581 299.446 91.4803 299.597 92.41 299.62C93.2914 299.572 94.135 299.247 94.82 298.69C95.4645 298.164 95.9353 297.457 96.1708 296.659C96.4063 295.861 96.3956 295.011 96.14 294.22C95.65 292.69 94.24 291.72 93.46 290.37C93.07 289.715 92.8724 288.963 92.89 288.2C92.9272 287.521 93.0481 286.849 93.25 286.2C93.654 285.143 93.9326 284.042 94.08 282.92C94.127 282.506 94.0872 282.087 93.9632 281.689C93.8393 281.291 93.6338 280.924 93.36 280.61C93.0172 280.206 92.5425 279.937 92.02 279.85C91.6 279.82 91.4 279.88 91.4 279.85Z" fill="#FAFAFA"/>
<path d="M94.15 349.84C94.15 349.84 94.22 350.08 94.45 350.46C94.8137 351.001 95.3666 351.386 96 351.54C96.4897 351.678 97.0057 351.696 97.5038 351.592C98.0019 351.487 98.4672 351.264 98.86 350.94C99.877 350.025 100.551 348.79 100.77 347.44C101.09 345.95 101.03 344.25 101.32 342.44C101.459 341.482 101.771 340.557 102.24 339.71C102.744 338.777 103.557 338.048 104.54 337.65C105.569 337.285 106.673 337.185 107.75 337.36C108.84 337.47 109.91 337.72 110.99 337.86C112.079 338.037 113.193 337.983 114.26 337.7C115.343 337.387 116.341 336.833 117.18 336.08C118.017 335.326 118.638 334.363 118.98 333.29C119.286 332.245 119.265 331.132 118.92 330.1C118.631 329.112 118.069 328.225 117.3 327.541C116.531 326.857 115.585 326.402 114.57 326.23C112.57 326.01 110.77 326.98 108.88 327.02C107.963 327.047 107.055 326.841 106.24 326.42C105.508 326.046 104.814 325.601 104.17 325.09C103.128 324.191 101.945 323.468 100.67 322.95C100.185 322.765 99.6659 322.687 99.1481 322.722C98.6303 322.756 98.1261 322.902 97.67 323.15C97.0909 323.445 96.6369 323.939 96.39 324.54C96.3247 324.76 96.2713 324.984 96.23 325.21C96.1969 324.975 96.2174 324.736 96.29 324.51C96.5071 323.854 96.9643 323.303 97.57 322.97C98.0014 322.721 98.4768 322.558 98.97 322.49C99.5569 322.432 100.149 322.497 100.71 322.68C102.034 323.176 103.265 323.893 104.35 324.8C105.587 325.898 107.167 326.531 108.82 326.59C109.745 326.512 110.659 326.341 111.55 326.08C112.523 325.794 113.539 325.685 114.55 325.76C115.659 325.935 116.695 326.42 117.54 327.16C118.384 327.9 119.001 328.864 119.32 329.94C119.709 331.071 119.733 332.295 119.39 333.44C119.019 334.594 118.35 335.629 117.45 336.44C116.554 337.252 115.483 337.848 114.32 338.18C113.188 338.481 112.005 338.536 110.85 338.34C109.73 338.19 108.66 337.95 107.62 337.83C106.615 337.659 105.583 337.745 104.62 338.08C103.729 338.425 102.991 339.078 102.54 339.92C102.093 340.718 101.789 341.588 101.64 342.49C101.35 344.26 101.38 345.98 101.03 347.49C100.773 348.91 100.035 350.199 98.94 351.14C98.5103 351.48 98.0038 351.708 97.4649 351.806C96.9261 351.903 96.3715 351.867 95.85 351.7C95.5177 351.611 95.2061 351.458 94.9332 351.249C94.6604 351.039 94.4316 350.778 94.26 350.48C94.1758 350.278 94.1382 350.059 94.15 349.84Z" fill="#FAFAFA"/>
<path d="M128.12 289.25C128.3 288.906 128.532 288.592 128.81 288.32C129.623 287.511 130.675 286.985 131.81 286.82C132.703 286.688 133.616 286.794 134.455 287.128C135.295 287.461 136.031 288.011 136.59 288.72C137.302 289.601 137.725 290.68 137.8 291.81C137.795 293.012 138.055 294.2 138.56 295.29C138.906 295.812 139.422 296.197 140.02 296.38C140.671 296.569 141.343 296.673 142.02 296.69C142.72 296.69 143.44 296.69 144.19 296.79C144.98 296.832 145.741 297.103 146.38 297.57C146.709 297.839 146.969 298.181 147.14 298.57C147.306 298.965 147.375 299.393 147.34 299.82C147.243 300.657 146.894 301.445 146.34 302.08C145.785 302.732 145.105 303.266 144.34 303.65C143.59 304.03 142.8 304.34 142.03 304.7C141.257 305.024 140.538 305.466 139.9 306.01C139.276 306.576 138.84 307.319 138.65 308.14C138.24 309.82 138.65 311.64 138.53 313.54C138.475 314.516 138.216 315.47 137.77 316.34C137.539 316.803 137.204 317.205 136.791 317.516C136.378 317.827 135.898 318.037 135.39 318.13C134.868 318.177 134.342 318.112 133.847 317.939C133.352 317.767 132.9 317.491 132.52 317.13C131.753 316.47 131.107 315.681 130.61 314.8C130.145 313.954 129.631 313.136 129.07 312.35C128.546 311.593 127.803 311.013 126.94 310.69C126.074 310.436 125.146 310.496 124.32 310.86C123.47 311.22 122.653 311.655 121.88 312.16C121.099 312.672 120.268 313.105 119.4 313.45C118.519 313.77 117.587 313.926 116.65 313.91C114.84 313.86 113.092 313.245 111.65 312.15C110.25 311.123 109.275 309.618 108.91 307.92C108.707 307.12 108.71 306.281 108.918 305.482C109.126 304.683 109.533 303.95 110.1 303.35C110.689 302.833 111.397 302.469 112.16 302.29C112.868 302.121 113.586 301.997 114.31 301.92C115.63 301.859 116.906 301.426 117.99 300.67C118.896 299.852 119.584 298.821 119.99 297.67C120.42 296.6 120.7 295.54 121.07 294.57C121.381 293.653 121.837 292.793 122.42 292.02C122.941 291.402 123.524 290.839 124.16 290.34C125.008 289.59 126.046 289.089 127.16 288.89C127.356 288.859 127.557 288.871 127.749 288.925C127.94 288.978 128.118 289.072 128.27 289.2C127.934 289.017 127.549 288.947 127.17 289C126.096 289.234 125.105 289.752 124.3 290.5C123.682 290.998 123.118 291.562 122.62 292.18C122.073 292.941 121.645 293.78 121.35 294.67C121 295.67 120.73 296.67 120.35 297.79C119.954 298.983 119.267 300.059 118.35 300.92C117.218 301.737 115.874 302.21 114.48 302.28C113.11 302.49 111.58 302.64 110.48 303.64C109.977 304.194 109.622 304.865 109.447 305.592C109.272 306.319 109.284 307.078 109.48 307.8C109.837 309.382 110.753 310.781 112.06 311.74C113.428 312.764 115.081 313.337 116.79 313.38C117.663 313.398 118.531 313.252 119.35 312.95C120.189 312.61 120.993 312.188 121.75 311.69C122.463 311.199 123.216 310.768 124 310.4C124.946 309.983 126.011 309.919 127 310.22C127.962 310.572 128.793 311.211 129.38 312.05C129.959 312.853 130.487 313.691 130.96 314.56C131.433 315.383 132.037 316.123 132.75 316.75C133.077 317.056 133.465 317.289 133.89 317.432C134.314 317.575 134.764 317.626 135.21 317.58C135.64 317.504 136.046 317.326 136.394 317.062C136.742 316.797 137.021 316.454 137.21 316.06C137.618 315.257 137.856 314.379 137.91 313.48C138.01 311.69 137.61 309.82 138.06 307.99C138.276 307.077 138.764 306.25 139.46 305.62C140.135 305.039 140.897 304.57 141.72 304.23C142.51 303.87 143.29 303.57 144.02 303.23C144.728 302.876 145.357 302.383 145.87 301.78C146.4 301.231 146.749 300.533 146.87 299.78C146.894 299.439 146.839 299.097 146.71 298.78C146.561 298.462 146.342 298.182 146.07 297.96C145.485 297.539 144.79 297.299 144.07 297.27C143.36 297.19 142.64 297.19 141.93 297.15C141.221 297.125 140.518 297.007 139.84 296.8C139.167 296.581 138.589 296.14 138.2 295.55C137.669 294.411 137.402 293.167 137.42 291.91C137.375 290.82 136.99 289.771 136.32 288.91C135.794 288.23 135.102 287.697 134.31 287.362C133.519 287.028 132.654 286.903 131.8 287C130.713 287.149 129.697 287.627 128.89 288.37C128.616 288.648 128.359 288.942 128.12 289.25Z" fill="#FAFAFA"/>
<path d="M111.29 272.37C110.731 272.93 109.997 273.283 109.21 273.37C108.372 273.537 107.508 273.537 106.67 273.37C105.599 273.198 104.628 272.639 103.94 271.8C103.338 270.911 102.992 269.873 102.94 268.8C102.862 267.953 102.919 267.099 103.11 266.27C103.226 265.5 103.604 264.794 104.18 264.27C103.86 264.945 103.624 265.657 103.48 266.39C103.343 267.186 103.32 267.997 103.41 268.8C103.488 269.767 103.808 270.699 104.34 271.51C104.948 272.254 105.803 272.755 106.75 272.92C107.532 273.086 108.337 273.116 109.13 273.01C109.871 272.877 110.596 272.662 111.29 272.37Z" fill="#FAFAFA"/>
<path d="M154.34 269.82C154.34 269.82 154.34 269.92 154.27 270.09C154.177 270.348 154.045 270.591 153.88 270.81C153.264 271.632 152.385 272.218 151.39 272.47C150.696 272.632 149.974 272.632 149.28 272.47C148.496 272.249 147.769 271.86 147.15 271.33C146.534 270.777 145.822 270.34 145.05 270.04C144.652 269.931 144.229 269.954 143.845 270.105C143.461 270.257 143.137 270.529 142.92 270.88C142.449 271.661 142.038 272.477 141.69 273.32C141.292 274.135 140.68 274.826 139.92 275.32C139.392 275.678 138.797 275.924 138.171 276.046C137.545 276.167 136.901 276.16 136.277 276.026C135.654 275.891 135.064 275.631 134.544 275.263C134.024 274.894 133.583 274.424 133.25 273.88C133.024 273.591 132.882 273.245 132.84 272.88C132.84 272.88 133.01 273.23 133.41 273.78C133.985 274.549 134.77 275.135 135.67 275.47C136.727 275.826 137.879 275.78 138.904 275.341C139.93 274.902 140.757 274.1 141.23 273.09C141.588 272.223 142.009 271.384 142.49 270.58C142.78 270.137 143.194 269.789 143.68 269.58C144.16 269.396 144.687 269.375 145.18 269.52C146.018 269.841 146.788 270.315 147.45 270.92C148.007 271.421 148.665 271.796 149.38 272.02C150.015 272.165 150.675 272.165 151.31 272.02C152.245 271.818 153.09 271.32 153.72 270.6C154.16 270.17 154.3 269.8 154.34 269.82Z" fill="#FAFAFA"/>
<path d="M161.47 309.08C161.071 308.887 160.698 308.645 160.36 308.36C159.388 307.64 158.475 306.845 157.63 305.98C157.036 305.367 156.503 304.697 156.04 303.98C155.505 303.146 155.164 302.203 155.04 301.22C154.876 300.123 155.054 299.002 155.55 298.01C155.823 297.485 156.209 297.028 156.68 296.67C157.147 296.322 157.638 296.008 158.15 295.73C158.635 295.456 159.082 295.12 159.48 294.73C159.841 294.36 160.106 293.907 160.25 293.41C160.479 292.426 160.513 291.407 160.35 290.41C160.188 289.459 160.117 288.495 160.14 287.53C160.138 286.645 160.471 285.791 161.07 285.14C162 284.308 163.193 283.83 164.44 283.79C164.668 283.762 164.9 283.789 165.116 283.869C165.332 283.949 165.525 284.08 165.68 284.25C165.301 284.054 164.876 283.964 164.45 283.99C163.283 284.103 162.186 284.599 161.33 285.4C160.816 286 160.544 286.77 160.57 287.56C160.575 288.495 160.659 289.429 160.82 290.35C161.017 291.421 160.99 292.52 160.74 293.58C160.578 294.16 160.272 294.69 159.85 295.12C159.421 295.535 158.937 295.889 158.41 296.17C157.408 296.618 156.567 297.361 156 298.3C155.549 299.203 155.379 300.22 155.51 301.22C155.79 302.943 156.626 304.527 157.89 305.73C160 307.93 161.53 309 161.47 309.08Z" fill="#FAFAFA"/>
<path d="M140.56 328.92C140.712 328.894 140.868 328.894 141.02 328.92C141.468 328.919 141.915 328.946 142.36 329C144.014 329.151 145.623 329.62 147.1 330.38C148.212 330.945 149.189 331.745 149.962 332.724C150.735 333.702 151.287 334.837 151.58 336.05C151.926 337.52 151.704 339.066 150.96 340.38C150.561 341.082 150.021 341.694 149.374 342.178C148.727 342.661 147.987 343.006 147.2 343.19C146.391 343.334 145.559 343.289 144.77 343.06C144.095 342.836 143.365 342.836 142.69 343.06C142.051 343.329 141.493 343.76 141.07 344.31C140.665 344.841 140.307 345.407 140 346C139.453 347.241 138.543 348.287 137.39 349C136.334 349.546 135.115 349.691 133.96 349.41C133.01 349.176 132.167 348.626 131.57 347.85C131.12 347.281 130.806 346.618 130.65 345.91C130.552 345.467 130.529 345.011 130.58 344.56C130.59 344.402 130.623 344.247 130.68 344.1C130.664 344.691 130.721 345.283 130.85 345.86C131.029 346.526 131.354 347.144 131.8 347.67C132.367 348.343 133.14 348.811 134 349C135.068 349.236 136.184 349.083 137.15 348.57C138.209 347.884 139.041 346.899 139.54 345.74C140.132 344.348 141.193 343.208 142.54 342.52C143.313 342.265 144.147 342.265 144.92 342.52C145.636 342.737 146.393 342.782 147.13 342.65C147.845 342.479 148.517 342.164 149.105 341.724C149.693 341.284 150.185 340.728 150.55 340.09C151.241 338.878 151.451 337.45 151.14 336.09C150.869 334.936 150.355 333.853 149.633 332.913C148.91 331.973 147.996 331.199 146.95 330.64C145.524 329.872 143.974 329.364 142.37 329.14C141.2 329 140.55 329 140.56 328.92Z" fill="#FAFAFA"/>
<path d="M121.83 362C121.637 361.266 121.323 360.57 120.9 359.94C120.407 359.294 119.765 358.776 119.03 358.43C118.151 357.984 117.138 357.878 116.186 358.133C115.234 358.387 114.409 358.985 113.87 359.81C113.41 360.46 113.111 361.211 113 362C112.946 362.757 113.021 363.518 113.22 364.25C113.22 364.25 113.05 364.08 112.89 363.7C112.677 363.146 112.588 362.552 112.63 361.96C112.69 361.076 112.976 360.222 113.46 359.48C114.037 358.528 114.96 357.836 116.035 357.549C117.111 357.262 118.256 357.402 119.23 357.94C120.037 358.331 120.727 358.928 121.23 359.67C121.561 360.159 121.78 360.716 121.87 361.3C121.89 361.72 121.86 362 121.83 362Z" fill="#FAFAFA"/>
<path d="M125 376.5C125 376.5 124.91 376.03 124.55 375.27C124.049 374.204 123.203 373.338 122.15 372.81C121.374 372.45 120.519 372.295 119.667 372.36C118.814 372.425 117.992 372.707 117.28 373.18C116.468 373.799 115.788 374.574 115.28 375.46C114.953 375.937 114.571 376.374 114.14 376.76C113.651 377.175 113.031 377.405 112.39 377.41C111.792 377.332 111.217 377.131 110.7 376.82C110.184 376.508 109.738 376.093 109.39 375.6C108.801 374.759 108.086 374.013 107.27 373.39C106.492 372.925 105.572 372.758 104.68 372.92C103.89 373.053 103.141 373.364 102.49 373.83C101.555 374.552 100.774 375.453 100.19 376.48C99.9878 376.873 99.7571 377.251 99.5 377.61C99.61 377.181 99.7818 376.77 100.01 376.39C100.546 375.286 101.317 374.313 102.27 373.54C102.958 373.023 103.761 372.68 104.61 372.54C105.609 372.336 106.649 372.507 107.53 373.02C108.396 373.66 109.156 374.433 109.78 375.31C110.084 375.744 110.473 376.111 110.923 376.39C111.374 376.668 111.876 376.852 112.4 376.93C113.47 376.93 114.25 376.06 114.86 375.2C115.42 374.272 116.157 373.463 117.03 372.82C117.674 372.384 118.408 372.099 119.178 371.985C119.947 371.872 120.732 371.933 121.475 372.165C122.218 372.396 122.898 372.792 123.467 373.323C124.036 373.853 124.478 374.505 124.76 375.23C124.885 375.552 124.969 375.888 125.01 376.23C125.06 376.38 125.06 376.5 125 376.5Z" fill="#FAFAFA"/>
<path d="M132.71 340.22C131.813 339.666 130.844 339.239 129.83 338.95C128.731 338.681 127.591 338.62 126.47 338.77C125.098 338.932 123.79 339.441 122.67 340.25C121.568 341.074 120.733 342.204 120.27 343.5C119.891 344.563 119.768 345.7 119.91 346.82C120.097 347.852 120.456 348.846 120.97 349.76C120.97 349.76 120.72 349.56 120.41 349.09C119.976 348.415 119.68 347.66 119.54 346.87C119.327 345.557 119.477 344.211 119.974 342.977C120.471 341.743 121.296 340.668 122.36 339.87C123.535 339.017 124.915 338.489 126.36 338.34C127.542 338.198 128.74 338.3 129.88 338.64C130.646 338.847 131.37 339.185 132.02 339.64C132.52 340 132.73 340.2 132.71 340.22Z" fill="#FAFAFA"/>
</svg>
