<svg width="66" height="21" viewBox="0 0 66 21" fill="none" xmlns="http://www.w3.org/2000/svg">
<path d="M28.4148 17H25.1186V6.81818H28.5192C29.5168 6.81818 30.3736 7.02202 31.0895 7.42969C31.8054 7.83404 32.3539 8.41572 32.7351 9.17472C33.1196 9.9304 33.3118 10.8369 33.3118 11.8942C33.3118 12.9548 33.1179 13.8662 32.7301 14.6286C32.3456 15.3909 31.7888 15.9775 31.0597 16.3885C30.3305 16.7962 29.4489 17 28.4148 17ZM26.6548 15.6577H28.3303C29.1058 15.6577 29.7505 15.5118 30.2642 15.2202C30.7779 14.9252 31.1624 14.4993 31.4176 13.9425C31.6728 13.3823 31.8004 12.6996 31.8004 11.8942C31.8004 11.0954 31.6728 10.4176 31.4176 9.8608C31.1657 9.30398 30.7895 8.88139 30.2891 8.59304C29.7886 8.30469 29.1671 8.16051 28.4247 8.16051H26.6548V15.6577ZM38.3194 17.1541C37.6035 17.1541 36.9788 16.9901 36.4451 16.6619C35.9115 16.3338 35.4972 15.8748 35.2022 15.2848C34.9073 14.6948 34.7598 14.0054 34.7598 13.2166C34.7598 12.4245 34.9073 11.7318 35.2022 11.1385C35.4972 10.5452 35.9115 10.0845 36.4451 9.75639C36.9788 9.42827 37.6035 9.2642 38.3194 9.2642C39.0353 9.2642 39.6601 9.42827 40.1937 9.75639C40.7273 10.0845 41.1416 10.5452 41.4366 11.1385C41.7316 11.7318 41.8791 12.4245 41.8791 13.2166C41.8791 14.0054 41.7316 14.6948 41.4366 15.2848C41.1416 15.8748 40.7273 16.3338 40.1937 16.6619C39.6601 16.9901 39.0353 17.1541 38.3194 17.1541ZM38.3244 15.9062C38.7884 15.9062 39.1729 15.7836 39.4778 15.5384C39.7827 15.2931 40.0081 14.9666 40.1539 14.5589C40.3031 14.1513 40.3777 13.7022 40.3777 13.2116C40.3777 12.7244 40.3031 12.277 40.1539 11.8693C40.0081 11.4583 39.7827 11.1286 39.4778 10.88C39.1729 10.6314 38.7884 10.5071 38.3244 10.5071C37.8571 10.5071 37.4693 10.6314 37.161 10.88C36.8561 11.1286 36.6291 11.4583 36.4799 11.8693C36.3341 12.277 36.2612 12.7244 36.2612 13.2116C36.2612 13.7022 36.3341 14.1513 36.4799 14.5589C36.6291 14.9666 36.8561 15.2931 37.161 15.5384C37.4693 15.7836 37.8571 15.9062 38.3244 15.9062ZM46.755 17.1541C46.0159 17.1541 45.3795 16.9867 44.8459 16.652C44.3156 16.3139 43.9079 15.8482 43.6229 15.255C43.3378 14.6617 43.1953 13.9822 43.1953 13.2166C43.1953 12.4411 43.3411 11.7566 43.6328 11.1634C43.9245 10.5668 44.3355 10.1011 44.8658 9.76633C45.3961 9.43158 46.0208 9.2642 46.7401 9.2642C47.3201 9.2642 47.8371 9.37192 48.2912 9.58736C48.7453 9.79948 49.1115 10.0978 49.3899 10.4822C49.6716 10.8667 49.839 11.3158 49.892 11.8295H48.4453C48.3658 11.4716 48.1835 11.1634 47.8984 10.9048C47.6167 10.6463 47.2389 10.517 46.7649 10.517C46.3506 10.517 45.9877 10.6264 45.6761 10.8452C45.3679 11.0606 45.1276 11.3688 44.9553 11.7699C44.7829 12.1676 44.6967 12.6383 44.6967 13.1818C44.6967 13.7386 44.7813 14.2192 44.9503 14.6236C45.1193 15.0279 45.358 15.3411 45.6662 15.5632C45.9777 15.7853 46.344 15.8963 46.7649 15.8963C47.0466 15.8963 47.3018 15.8449 47.5305 15.7422C47.7625 15.6361 47.9564 15.4853 48.1122 15.2898C48.2713 15.0942 48.3823 14.8589 48.4453 14.5838H49.892C49.839 15.0777 49.6783 15.5185 49.4098 15.9062C49.1413 16.294 48.7817 16.599 48.331 16.821C47.8835 17.0431 47.3582 17.1541 46.755 17.1541ZM57.204 11.228L55.8567 11.4666C55.8004 11.2943 55.7109 11.1302 55.5882 10.9744C55.4689 10.8187 55.3065 10.6911 55.101 10.5916C54.8955 10.4922 54.6387 10.4425 54.3304 10.4425C53.9095 10.4425 53.5582 10.5369 53.2765 10.7259C52.9947 10.9115 52.8539 11.1518 52.8539 11.4467C52.8539 11.7019 52.9483 11.9074 53.1373 12.0632C53.3262 12.219 53.6311 12.3466 54.052 12.446L55.2651 12.7244C55.9677 12.8868 56.4914 13.1371 56.8361 13.4751C57.1808 13.8132 57.3532 14.2524 57.3532 14.7926C57.3532 15.25 57.2206 15.6577 56.9554 16.0156C56.6936 16.3703 56.3274 16.6487 55.8567 16.8509C55.3894 17.053 54.8475 17.1541 54.231 17.1541C53.3759 17.1541 52.6782 16.9718 52.138 16.6072C51.5977 16.2393 51.2663 15.7173 51.1436 15.0412L52.5804 14.8224C52.6699 15.197 52.8539 15.4804 53.1323 15.6726C53.4107 15.8615 53.7736 15.956 54.2211 15.956C54.7083 15.956 55.0977 15.8549 55.3894 15.6527C55.681 15.4472 55.8269 15.197 55.8269 14.902C55.8269 14.6634 55.7374 14.4628 55.5584 14.3004C55.3828 14.138 55.1126 14.0154 54.748 13.9325L53.4554 13.6491C52.7428 13.4867 52.2158 13.2282 51.8745 12.8736C51.5364 12.5189 51.3674 12.0698 51.3674 11.5263C51.3674 11.0755 51.4933 10.6811 51.7452 10.343C51.9971 10.005 52.3451 9.74148 52.7892 9.55256C53.2334 9.36032 53.7421 9.2642 54.3155 9.2642C55.1408 9.2642 55.7904 9.44318 56.2644 9.80114C56.7383 10.1558 57.0516 10.6314 57.204 11.228Z" fill="#E0ECFF"/>
<path d="M11.1319 1.48411L15.8962 6.0924M4.56482 10.0041H12.348M4.56482 15.5858H12.348M4.56482 12.7949H12.348M1.94658 1.48411C1.69777 1.49012 1.46124 1.58997 1.28749 1.76234C1.11374 1.93471 1.01652 2.16595 1.0166 2.40669V18.598C1.01652 18.8387 1.11374 19.07 1.28749 19.2423C1.46124 19.4147 1.69777 19.5145 1.94658 19.5206H14.9663C15.2192 19.5206 15.4618 19.4234 15.6407 19.2503C15.8196 19.0773 15.9201 18.8427 15.9201 18.598V6.0924H12.1048C11.856 6.08638 11.6195 5.98653 11.4457 5.81416C11.272 5.64179 11.1747 5.41055 11.1748 5.16982V1.47949L1.94658 1.48411Z" stroke="#E0ECFF" stroke-width="1.5" stroke-linecap="round" stroke-linejoin="round"/>
</svg>
