<svg width="199" height="70" viewBox="0 0 199 70" fill="none" xmlns="http://www.w3.org/2000/svg">
<rect width="199" height="70" rx="12" fill="#0070E7"/>
<path d="M50.1797 32.6094C50.0495 32.1875 49.8698 31.8099 49.6406 31.4766C49.4167 31.138 49.1458 30.849 48.8281 30.6094C48.5156 30.3698 48.1563 30.1901 47.75 30.0703C47.3438 29.9453 46.901 29.8828 46.4219 29.8828C45.5625 29.8828 44.7969 30.099 44.125 30.5313C43.4531 30.9635 42.9245 31.599 42.5391 32.4375C42.1589 33.2708 41.9688 34.2865 41.9688 35.4844C41.9688 36.6927 42.1589 37.7161 42.5391 38.5547C42.9193 39.3932 43.4479 40.0312 44.125 40.4687C44.8021 40.901 45.5885 41.1172 46.4844 41.1172C47.2969 41.1172 48 40.9609 48.5938 40.6484C49.1927 40.3359 49.6536 39.8932 49.9766 39.3203C50.2995 38.7422 50.4609 38.0651 50.4609 37.2891L51.1172 37.3906H46.7734V35.125H53.2656V37.0469C53.2656 38.4167 52.974 39.6016 52.3906 40.6016C51.8073 41.6016 51.0052 42.3724 49.9844 42.9141C48.9635 43.4505 47.7917 43.7187 46.4688 43.7187C44.9948 43.7187 43.7005 43.388 42.5859 42.7266C41.4766 42.0599 40.6094 41.1146 39.9844 39.8906C39.3646 38.6615 39.0547 37.2031 39.0547 35.5156C39.0547 34.224 39.237 33.0703 39.6016 32.0547C39.9714 31.0391 40.487 30.1771 41.1484 29.4687C41.8099 28.7552 42.5859 28.2135 43.4766 27.8437C44.3672 27.4687 45.3359 27.2812 46.3828 27.2812C47.2682 27.2812 48.0938 27.4115 48.8594 27.6719C49.625 27.9271 50.3047 28.2917 50.8984 28.7656C51.4974 29.2396 51.9896 29.8021 52.375 30.4531C52.7604 31.1042 53.013 31.8229 53.1328 32.6094H50.1797ZM61.2559 43.7344C60.0527 43.7344 59.0137 43.4844 58.1387 42.9844C57.2689 42.4792 56.5996 41.7656 56.1309 40.8437C55.6621 39.9167 55.4277 38.8255 55.4277 37.5703C55.4277 36.3359 55.6621 35.2526 56.1309 34.3203C56.6048 33.3828 57.2663 32.6536 58.1152 32.1328C58.9642 31.6068 59.9616 31.3438 61.1074 31.3438C61.847 31.3438 62.5449 31.4635 63.2012 31.7031C63.8626 31.9375 64.446 32.3021 64.9512 32.7969C65.4616 33.2917 65.8626 33.9219 66.1543 34.6875C66.446 35.4479 66.5918 36.3542 66.5918 37.4062V38.2734H56.7559V36.3672H63.8809C63.8757 35.8255 63.7585 35.3437 63.5293 34.9219C63.3001 34.4948 62.9798 34.1589 62.5684 33.9141C62.1621 33.6693 61.6882 33.5469 61.1465 33.5469C60.5684 33.5469 60.0605 33.6875 59.623 33.9687C59.1855 34.2448 58.8444 34.6094 58.5996 35.0625C58.36 35.5104 58.2376 36.0026 58.2324 36.5391V38.2031C58.2324 38.901 58.36 39.5 58.6152 40C58.8704 40.4948 59.2272 40.875 59.6855 41.1406C60.1439 41.401 60.6803 41.5312 61.2949 41.5312C61.7064 41.5312 62.0788 41.474 62.4121 41.3594C62.7454 41.2396 63.0345 41.0651 63.2793 40.8359C63.5241 40.6068 63.709 40.3229 63.834 39.9844L66.4746 40.2812C66.3079 40.9792 65.9902 41.5885 65.5215 42.1094C65.0579 42.625 64.4642 43.026 63.7402 43.3125C63.0163 43.5937 62.1882 43.7344 61.2559 43.7344ZM74.9766 31.5V33.6875H68.0781V31.5H74.9766ZM69.7813 28.625H72.6094V39.8906C72.6094 40.2708 72.6667 40.5625 72.7813 40.7656C72.901 40.9635 73.0573 41.099 73.25 41.1719C73.4427 41.2448 73.6563 41.2812 73.8906 41.2812C74.0677 41.2812 74.2292 41.2682 74.375 41.2422C74.526 41.2161 74.6406 41.1927 74.7188 41.1719L75.1953 43.3828C75.0443 43.4349 74.8281 43.4922 74.5469 43.5547C74.2708 43.6172 73.9323 43.6536 73.5313 43.6641C72.8229 43.6849 72.1849 43.5781 71.6172 43.3437C71.0495 43.1042 70.599 42.7344 70.2656 42.2344C69.9375 41.7344 69.776 41.1094 69.7813 40.3594V28.625ZM91.6191 31.8984C91.5462 31.2161 91.2389 30.6849 90.6973 30.3047C90.1608 29.9245 89.4629 29.7344 88.6035 29.7344C87.9993 29.7344 87.4811 29.8255 87.0488 30.0078C86.6165 30.1901 86.2858 30.4375 86.0566 30.75C85.8275 31.0625 85.7103 31.4193 85.7051 31.8203C85.7051 32.1536 85.7806 32.4427 85.9316 32.6875C86.0879 32.9323 86.2988 33.1406 86.5645 33.3125C86.8301 33.4792 87.1243 33.6198 87.4473 33.7344C87.7702 33.849 88.0957 33.9453 88.4238 34.0234L89.9238 34.3984C90.528 34.5391 91.1087 34.7292 91.666 34.9687C92.2285 35.2083 92.7311 35.5104 93.1738 35.875C93.6217 36.2396 93.9759 36.6797 94.2363 37.1953C94.4967 37.7109 94.627 38.3151 94.627 39.0078C94.627 39.9453 94.3874 40.7708 93.9082 41.4844C93.429 42.1927 92.7363 42.7474 91.8301 43.1484C90.929 43.5443 89.8379 43.7422 88.5566 43.7422C87.3118 43.7422 86.2311 43.5495 85.3145 43.1641C84.403 42.7786 83.6895 42.2161 83.1738 41.4766C82.6634 40.737 82.3874 39.8359 82.3457 38.7734H85.1973C85.2389 39.3307 85.4108 39.7943 85.7129 40.1641C86.015 40.5339 86.4082 40.8099 86.8926 40.9922C87.3822 41.1745 87.929 41.2656 88.5332 41.2656C89.1634 41.2656 89.7155 41.1719 90.1895 40.9844C90.6686 40.7917 91.0436 40.526 91.3145 40.1875C91.5853 39.8437 91.7233 39.4427 91.7285 38.9844C91.7233 38.5677 91.6009 38.224 91.3613 37.9531C91.1217 37.6771 90.7858 37.4479 90.3535 37.2656C89.9264 37.0781 89.4264 36.9115 88.8535 36.7656L87.0332 36.2969C85.7155 35.9583 84.6738 35.4453 83.9082 34.7578C83.1478 34.0651 82.7676 33.1458 82.7676 32C82.7676 31.0573 83.0228 30.2318 83.5332 29.5234C84.0488 28.8151 84.7493 28.2656 85.6348 27.875C86.5202 27.4792 87.5228 27.2812 88.6426 27.2812C89.778 27.2812 90.7728 27.4792 91.627 27.875C92.4863 28.2656 93.1608 28.8099 93.6504 29.5078C94.14 30.2005 94.3926 30.9974 94.4082 31.8984H91.6191ZM103.078 31.5V33.6875H96.1797V31.5H103.078ZM97.8828 28.625H100.711V39.8906C100.711 40.2708 100.768 40.5625 100.883 40.7656C101.003 40.9635 101.159 41.099 101.352 41.1719C101.544 41.2448 101.758 41.2812 101.992 41.2812C102.169 41.2812 102.331 41.2682 102.477 41.2422C102.628 41.2161 102.742 41.1927 102.82 41.1719L103.297 43.3828C103.146 43.4349 102.93 43.4922 102.648 43.5547C102.372 43.6172 102.034 43.6536 101.633 43.6641C100.924 43.6849 100.286 43.5781 99.7188 43.3437C99.151 43.1042 98.7005 42.7344 98.3672 42.2344C98.0391 41.7344 97.8776 41.1094 97.8828 40.3594V28.625ZM108.896 43.7422C108.136 43.7422 107.451 43.6068 106.842 43.3359C106.238 43.0599 105.758 42.6536 105.404 42.1172C105.055 41.5807 104.881 40.9193 104.881 40.1328C104.881 39.4557 105.006 38.8958 105.256 38.4531C105.506 38.0104 105.847 37.6562 106.279 37.3906C106.712 37.125 107.199 36.9245 107.74 36.7891C108.287 36.6484 108.852 36.5469 109.436 36.4844C110.139 36.4115 110.709 36.3464 111.146 36.2891C111.584 36.2266 111.902 36.1328 112.1 36.0078C112.303 35.8776 112.404 35.6771 112.404 35.4062V35.3594C112.404 34.7708 112.23 34.3151 111.881 33.9922C111.532 33.6693 111.029 33.5078 110.373 33.5078C109.68 33.5078 109.131 33.6589 108.725 33.9609C108.324 34.263 108.053 34.6198 107.912 35.0312L105.271 34.6562C105.48 33.9271 105.824 33.3177 106.303 32.8281C106.782 32.3333 107.368 31.9635 108.061 31.7187C108.753 31.4688 109.519 31.3438 110.357 31.3438C110.936 31.3438 111.511 31.4115 112.084 31.5469C112.657 31.6823 113.18 31.9062 113.654 32.2187C114.128 32.526 114.508 32.9453 114.795 33.4766C115.087 34.0078 115.232 34.6719 115.232 35.4687V43.5H112.514V41.8516H112.42C112.248 42.1849 112.006 42.4974 111.693 42.7891C111.386 43.0755 110.998 43.3073 110.529 43.4844C110.066 43.6563 109.521 43.7422 108.896 43.7422ZM109.631 41.6641C110.199 41.6641 110.691 41.5521 111.107 41.3281C111.524 41.099 111.844 40.7969 112.068 40.4219C112.298 40.0469 112.412 39.638 112.412 39.1953V37.7812C112.324 37.8542 112.173 37.9219 111.959 37.9844C111.751 38.0469 111.516 38.1016 111.256 38.1484C110.995 38.1953 110.738 38.237 110.482 38.2734C110.227 38.3099 110.006 38.3411 109.818 38.3672C109.396 38.4245 109.019 38.5182 108.686 38.6484C108.352 38.7786 108.089 38.9609 107.896 39.1953C107.704 39.4245 107.607 39.7214 107.607 40.0859C107.607 40.6068 107.798 41 108.178 41.2656C108.558 41.5312 109.042 41.6641 109.631 41.6641ZM118.076 43.5V31.5H120.818V33.5H120.943C121.162 32.8073 121.537 32.2734 122.068 31.8984C122.605 31.5182 123.217 31.3281 123.904 31.3281C124.061 31.3281 124.235 31.3359 124.428 31.3516C124.626 31.362 124.79 31.3802 124.92 31.4062V34.0078C124.8 33.9661 124.61 33.9297 124.35 33.8984C124.094 33.862 123.847 33.8437 123.607 33.8437C123.092 33.8437 122.628 33.9557 122.217 34.1797C121.811 34.3984 121.49 34.7031 121.256 35.0937C121.021 35.4844 120.904 35.9349 120.904 36.4453V43.5H118.076ZM133.436 31.5V33.6875H126.537V31.5H133.436ZM128.24 28.625H131.068V39.8906C131.068 40.2708 131.126 40.5625 131.24 40.7656C131.36 40.9635 131.516 41.099 131.709 41.1719C131.902 41.2448 132.115 41.2812 132.35 41.2812C132.527 41.2812 132.688 41.2682 132.834 41.2422C132.985 41.2161 133.1 41.1927 133.178 41.1719L133.654 43.3828C133.503 43.4349 133.287 43.4922 133.006 43.5547C132.73 43.6172 132.391 43.6536 131.99 43.6641C131.282 43.6849 130.644 43.5781 130.076 43.3437C129.508 43.1042 129.058 42.7344 128.725 42.2344C128.396 41.7344 128.235 41.1094 128.24 40.3594V28.625ZM140.984 43.7344C139.781 43.7344 138.742 43.4844 137.867 42.9844C136.997 42.4792 136.328 41.7656 135.859 40.8437C135.391 39.9167 135.156 38.8255 135.156 37.5703C135.156 36.3359 135.391 35.2526 135.859 34.3203C136.333 33.3828 136.995 32.6536 137.844 32.1328C138.693 31.6068 139.69 31.3438 140.836 31.3438C141.576 31.3438 142.273 31.4635 142.93 31.7031C143.591 31.9375 144.174 32.3021 144.68 32.7969C145.19 33.2917 145.591 33.9219 145.883 34.6875C146.174 35.4479 146.32 36.3542 146.32 37.4062V38.2734H136.484V36.3672H143.609C143.604 35.8255 143.487 35.3437 143.258 34.9219C143.029 34.4948 142.708 34.1589 142.297 33.9141C141.891 33.6693 141.417 33.5469 140.875 33.5469C140.297 33.5469 139.789 33.6875 139.352 33.9687C138.914 34.2448 138.573 34.6094 138.328 35.0625C138.089 35.5104 137.966 36.0026 137.961 36.5391V38.2031C137.961 38.901 138.089 39.5 138.344 40C138.599 40.4948 138.956 40.875 139.414 41.1406C139.872 41.401 140.409 41.5312 141.023 41.5312C141.435 41.5312 141.807 41.474 142.141 41.3594C142.474 41.2396 142.763 41.0651 143.008 40.8359C143.253 40.6068 143.438 40.3229 143.563 39.9844L146.203 40.2812C146.036 40.9792 145.719 41.5885 145.25 42.1094C144.786 42.625 144.193 43.026 143.469 43.3125C142.745 43.5937 141.917 43.7344 140.984 43.7344ZM153.166 43.7109C152.223 43.7109 151.38 43.4688 150.635 42.9844C149.89 42.5 149.301 41.7969 148.869 40.875C148.437 39.9531 148.221 38.8333 148.221 37.5156C148.221 36.1823 148.439 35.0573 148.877 34.1406C149.32 33.2187 149.916 32.5234 150.666 32.0547C151.416 31.5807 152.252 31.3438 153.174 31.3438C153.877 31.3438 154.455 31.4635 154.908 31.7031C155.361 31.9375 155.721 32.2214 155.986 32.5547C156.252 32.8828 156.458 33.1927 156.604 33.4844H156.721V27.5H159.557V43.5H156.775V41.6094H156.604C156.458 41.901 156.247 42.2109 155.971 42.5391C155.695 42.862 155.33 43.138 154.877 43.3672C154.424 43.5964 153.854 43.7109 153.166 43.7109ZM153.955 41.3906C154.554 41.3906 155.064 41.2292 155.486 40.9062C155.908 40.5781 156.229 40.1224 156.447 39.5391C156.666 38.9557 156.775 38.276 156.775 37.5C156.775 36.724 156.666 36.0495 156.447 35.4766C156.234 34.9036 155.916 34.4583 155.494 34.1406C155.077 33.8229 154.564 33.6641 153.955 33.6641C153.325 33.6641 152.799 33.8281 152.377 34.1562C151.955 34.4844 151.637 34.9375 151.424 35.5156C151.21 36.0937 151.104 36.7552 151.104 37.5C151.104 38.25 151.21 38.9193 151.424 39.5078C151.643 40.0911 151.963 40.5521 152.385 40.8906C152.812 41.224 153.335 41.3906 153.955 41.3906Z" fill="white"/>
</svg>
