<svg width="79" height="22" viewBox="0 0 79 22" fill="none" xmlns="http://www.w3.org/2000/svg">
<path d="M38.0092 10.0348C37.9131 9.73319 37.7839 9.46307 37.6214 9.22443C37.4624 8.98248 37.2718 8.77699 37.0497 8.60795C36.8277 8.43561 36.5741 8.30469 36.2891 8.2152C36.0073 8.12571 35.6974 8.08097 35.3594 8.08097C34.786 8.08097 34.2689 8.22846 33.8082 8.52344C33.3475 8.81842 32.983 9.25095 32.7145 9.82102C32.4493 10.3878 32.3168 11.0821 32.3168 11.9041C32.3168 12.7294 32.451 13.4271 32.7195 13.9972C32.9879 14.5672 33.3558 14.9998 33.8232 15.2947C34.2905 15.5897 34.8224 15.7372 35.419 15.7372C35.9725 15.7372 36.4548 15.6245 36.8658 15.3991C37.2801 15.1738 37.5999 14.8556 37.8253 14.4446C38.054 14.0303 38.1683 13.5431 38.1683 12.983L38.5661 13.0575H35.6527V11.7898H39.6548V12.9482C39.6548 13.8033 39.4725 14.5457 39.108 15.1754C38.7467 15.8018 38.2462 16.2857 37.6065 16.6271C36.9702 16.9685 36.241 17.1392 35.419 17.1392C34.4976 17.1392 33.6889 16.9271 32.9929 16.5028C32.3002 16.0786 31.7599 15.477 31.3722 14.6982C30.9844 13.916 30.7905 12.9879 30.7905 11.9141C30.7905 11.102 30.9032 10.3729 31.1286 9.72656C31.3539 9.08026 31.6705 8.53172 32.0781 8.08097C32.4891 7.62689 32.9714 7.28054 33.5249 7.0419C34.0817 6.79995 34.6899 6.67898 35.3494 6.67898C35.8996 6.67898 36.4117 6.76018 36.8857 6.92258C37.3629 7.08499 37.7872 7.31534 38.1584 7.61364C38.5329 7.91193 38.8428 8.26657 39.0881 8.67756C39.3333 9.08523 39.4991 9.53764 39.5852 10.0348H38.0092ZM41.9641 17V9.36364H43.4506V17H41.9641ZM42.7148 8.18537C42.4563 8.18537 42.2343 8.09919 42.0487 7.92685C41.8664 7.75118 41.7752 7.54238 41.7752 7.30043C41.7752 7.05516 41.8664 6.84635 42.0487 6.67401C42.2343 6.49834 42.4563 6.41051 42.7148 6.41051C42.9734 6.41051 43.1938 6.49834 43.3761 6.67401C43.5617 6.84635 43.6545 7.05516 43.6545 7.30043C43.6545 7.54238 43.5617 7.75118 43.3761 7.92685C43.1938 8.09919 42.9734 8.18537 42.7148 8.18537ZM49.0151 9.36364V10.5568H44.8439V9.36364H49.0151ZM45.9625 7.53409H47.449V14.7578C47.449 15.0462 47.4921 15.2633 47.5783 15.4091C47.6645 15.5516 47.7755 15.6494 47.9114 15.7024C48.0506 15.7521 48.2014 15.777 48.3638 15.777C48.4831 15.777 48.5875 15.7687 48.677 15.7521C48.7665 15.7356 48.8361 15.7223 48.8858 15.7124L49.1543 16.9403C49.0681 16.9735 48.9455 17.0066 48.7864 17.0398C48.6273 17.0762 48.4284 17.0961 48.1898 17.0994C47.7987 17.1061 47.4341 17.0365 47.0961 16.8906C46.758 16.7448 46.4846 16.5194 46.2757 16.2145C46.0669 15.9096 45.9625 15.5268 45.9625 15.0661V7.53409ZM50.9428 17V6.81818H52.479V11.2429H57.555V6.81818H59.0962V17H57.555V12.5604H52.479V17H50.9428ZM66.0515 13.8331V9.36364H67.543V17H66.0813V15.6776H66.0018C65.8261 16.0852 65.5444 16.425 65.1566 16.6967C64.7721 16.9652 64.2932 17.0994 63.7198 17.0994C63.2293 17.0994 62.7951 16.9917 62.4173 16.7763C62.0427 16.5575 61.7478 16.2344 61.5323 15.8068C61.3202 15.3793 61.2141 14.8506 61.2141 14.2209V9.36364H62.7006V14.0419C62.7006 14.5623 62.8448 14.9766 63.1332 15.2848C63.4215 15.593 63.796 15.7472 64.2567 15.7472C64.5352 15.7472 64.8119 15.6776 65.087 15.5384C65.3654 15.3991 65.5958 15.1887 65.7781 14.907C65.9637 14.6252 66.0548 14.2673 66.0515 13.8331ZM69.6596 17V6.81818H71.1461V10.6016H71.2356C71.3218 10.4425 71.4461 10.2585 71.6085 10.0497C71.7709 9.84091 71.9963 9.65862 72.2846 9.50284C72.573 9.34375 72.9541 9.2642 73.4281 9.2642C74.0446 9.2642 74.5948 9.41998 75.0787 9.73153C75.5626 10.0431 75.9421 10.4922 76.2172 11.0788C76.4956 11.6655 76.6348 12.3714 76.6348 13.1967C76.6348 14.022 76.4972 14.7296 76.2221 15.3196C75.947 15.9062 75.5692 16.3587 75.0886 16.6768C74.608 16.9917 74.0595 17.1491 73.443 17.1491C72.979 17.1491 72.5995 17.0713 72.3045 16.9155C72.0128 16.7597 71.7842 16.5774 71.6184 16.3686C71.4527 16.1598 71.3251 15.9742 71.2356 15.8118H71.1113V17H69.6596ZM71.1163 13.1818C71.1163 13.7187 71.1942 14.1894 71.35 14.5938C71.5057 14.9981 71.7311 15.3146 72.0261 15.5433C72.3211 15.7687 72.6824 15.8814 73.1099 15.8814C73.554 15.8814 73.9252 15.7637 74.2235 15.5284C74.5218 15.2898 74.7472 14.9666 74.8997 14.5589C75.0555 14.1513 75.1333 13.6922 75.1333 13.1818C75.1333 12.678 75.0571 12.2256 74.9047 11.8246C74.7555 11.4235 74.5301 11.107 74.2285 10.875C73.9302 10.643 73.5574 10.527 73.1099 10.527C72.679 10.527 72.3145 10.638 72.0162 10.8601C71.7212 11.0821 71.4975 11.392 71.345 11.7898C71.1925 12.1875 71.1163 12.6515 71.1163 13.1818Z" fill="#E0ECFF"/>
<path fill-rule="evenodd" clip-rule="evenodd" d="M10.9618 0.695131C8.35907 0.695465 5.84131 1.5788 3.85896 3.18712C1.87661 4.79545 0.558981 7.02384 0.14178 9.47368C-0.27542 11.9235 0.235022 14.435 1.5818 16.5588C2.92857 18.6827 5.02382 20.2803 7.49274 21.066C8.04091 21.1631 8.27584 20.842 8.27584 20.5657V18.7885C5.22961 19.4157 4.58747 17.3846 4.58747 17.3846C4.37326 16.7445 3.92241 16.2005 3.31886 15.8538C2.32433 15.2116 3.39717 15.2191 3.39717 15.2191C3.74455 15.2659 4.07613 15.3878 4.36657 15.5754C4.65701 15.7631 4.89863 16.0115 5.07299 16.3019C5.37631 16.8206 5.88328 17.2033 6.48242 17.3657C7.08156 17.5282 7.72383 17.4571 8.26801 17.1681C8.31222 16.6382 8.55718 16.1419 8.95713 15.7717C6.52954 15.5029 3.96883 14.6068 3.96883 10.6043C3.95107 9.56475 4.35507 8.55885 5.09648 7.79656C4.7609 6.89615 4.80013 5.90731 5.20611 5.03365C5.20611 5.03365 6.12233 4.74989 8.22102 6.10148C10.0155 5.63473 11.9082 5.63473 13.7027 6.10148C15.7935 4.74989 16.7097 5.03365 16.7097 5.03365C17.1157 5.90731 17.155 6.89615 16.8194 7.79656C17.5608 8.55885 17.9648 9.56475 17.947 10.6043C17.947 14.6217 15.3863 15.5029 12.9431 15.7642C13.2048 16.0172 13.4066 16.3207 13.5349 16.6543C13.6633 16.9879 13.7151 17.3439 13.687 17.6982V20.5657C13.687 20.9092 13.8828 21.1706 14.4701 21.066C16.9423 20.2793 19.0397 18.6786 20.3862 16.5509C21.7328 14.4231 22.2404 11.9075 21.8181 9.4552C21.3958 7.00287 20.0711 4.77422 18.0816 3.16889C16.0921 1.56355 13.568 0.686545 10.9618 0.695131V0.695131Z" fill="#E0ECFF"/>
</svg>
