<svg width="136" height="61" viewBox="0 0 136 61" fill="none" xmlns="http://www.w3.org/2000/svg">
<path d="M4.65523 21.5422V31.3636H0V0.372925H4.65523V11.4212L10.3425 0.372925H15.3057L8.93575 13.0146L16.4044 31.3636H10.9331L6.03338 18.7825L4.65523 21.5422Z" fill="white"/>
<path d="M26.9659 31.7111C25.9988 31.7191 25.0397 31.5343 24.1443 31.1673C23.2489 30.8004 22.4351 30.2586 21.75 29.5735C21.065 28.8884 20.5223 28.0736 20.1536 27.1763C19.7848 26.279 19.5974 25.3172 19.602 24.3466V0.398499H24.1588V24.2988C24.1523 24.6518 24.2189 25.0024 24.3545 25.3282C24.49 25.6541 24.6916 25.9481 24.9463 26.1917C25.1946 26.4443 25.4916 26.6436 25.8192 26.7773C26.1468 26.9109 26.498 26.9763 26.8516 26.9692C27.2016 26.9714 27.5486 26.9037 27.8724 26.7703C28.1962 26.6368 28.4904 26.4402 28.7379 26.1918C28.9854 25.9434 29.1814 25.6482 29.3144 25.3232C29.4473 24.9983 29.5147 24.6501 29.5126 24.2988V0.398499H34.3647V24.3466C34.3853 25.3231 34.2032 26.2932 33.8298 27.1951C33.4564 28.0971 32.8999 28.9112 32.1959 29.5855C31.5118 30.2752 30.6959 30.819 29.7972 31.1842C28.8984 31.5495 27.9354 31.7287 26.9659 31.7111Z" fill="white"/>
<path d="M45.8282 0.398499C48.4236 0.398499 50.3289 1.11551 51.544 2.54952C52.6025 3.80296 53.1317 5.54928 53.1317 7.78847V12.2849C53.1477 13.3374 52.9344 14.3807 52.5065 15.3418C52.0787 16.3029 51.4467 17.1586 50.6549 17.8489L54.1034 31.3669H49.0703L46.2473 19.7036H43.1449V31.3669H38.4897V0.398499H45.8282ZM48.6131 7.86176C48.6131 6.06871 47.726 5.17112 45.952 5.169H43.1449V15.0796H45.952C46.3033 15.0857 46.652 15.0187 46.9761 14.8826C47.3002 14.7466 47.5927 14.5446 47.8351 14.2893C48.0869 14.0401 48.2858 13.7421 48.4195 13.4134C48.5532 13.0848 48.6191 12.7323 48.6131 12.3773V7.86176Z" fill="white"/>
<path d="M71.9083 23.655C71.9947 25.6375 71.4043 27.5902 70.2348 29.1903C69.4381 30.2569 68.313 31.0298 67.034 31.3891C66.1988 31.6337 65.3317 31.7508 64.4618 31.7365C62.6391 31.7365 61.1287 31.2829 59.9305 30.3758C58.8919 29.589 58.0737 28.5461 57.5552 27.3484C56.9421 25.964 56.5921 24.4769 56.5232 22.9635L60.9688 22.6448C61.1657 24.4485 61.642 25.7561 62.3978 26.5677C62.6294 26.8516 62.9233 27.0779 63.2566 27.2289C63.5899 27.3798 63.9535 27.4513 64.319 27.4376C65.3351 27.4058 66.148 26.9033 66.7577 25.9303C67.1052 25.3049 67.2671 24.5928 67.2245 23.8781C67.2245 22.5906 66.6413 21.316 65.4748 20.054C64.5582 19.1787 63.1821 17.8669 61.3467 16.1184C59.8034 14.6186 58.7121 13.2748 58.0728 12.0873C57.381 10.742 57.0257 9.24803 57.0376 7.73423C57.0376 4.91505 57.9818 2.7789 59.8701 1.32576C61.1226 0.423947 62.6352 -0.0406355 64.1761 0.00327932C65.673 -0.0399957 67.1512 0.345794 68.4375 1.11544C69.3748 1.71615 70.1407 2.55064 70.6603 3.53734C71.2462 4.64767 71.5934 5.86898 71.6797 7.12238L67.234 7.93499C67.1007 6.66031 66.7418 5.6788 66.148 4.97135C65.919 4.71085 65.6338 4.50625 65.3141 4.37316C64.9944 4.24006 64.6486 4.18199 64.3031 4.20336C63.9051 4.19154 63.5118 4.29186 63.1677 4.49293C62.8237 4.69401 62.5427 4.98781 62.3565 5.34101C61.9745 6.03635 61.7879 6.82281 61.8167 7.61632C61.8167 9.03121 62.4232 10.4727 63.6362 11.9407C64.2638 12.6623 64.9569 13.3237 65.7066 13.9164C66.7884 14.8257 67.5029 15.463 67.8501 15.8285C68.8822 16.8367 69.7721 17.9818 70.4952 19.2319C70.7629 19.7021 71.0015 20.1885 71.2097 20.6882C71.6196 21.6265 71.8563 22.6318 71.9083 23.655Z" fill="#0070E7"/>
<path d="M80.5711 24.2478L79.4406 31.3637H74.5917L79.8375 0.398499H86.2424L91.4121 31.3637H86.5187L85.42 24.2478H80.5711ZM83.0162 7.49211L81.2919 19.7004H84.7404L83.0162 7.49211Z" fill="#0070E7"/>
<path d="M99.9824 18.2409V31.3637H95.3271V0.398499H99.9824V13.5468H105.597V0.398499H110.252V31.3637H105.597V18.2409H99.9824Z" fill="#0070E7"/>
<path d="M120.118 24.2478L118.988 31.3637H114.142L119.397 0.398499H125.799L130.972 31.3637H126.066L124.976 24.2478H120.118ZM122.573 7.49211L120.852 19.7004H124.287L122.573 7.49211Z" fill="#0070E7"/>
<path d="M69.86 57.858L65.5 40.363C65.4539 40.1767 65.4614 39.9811 65.5217 39.799C65.582 39.6168 65.6926 39.4556 65.8407 39.334C65.9887 39.2125 66.1681 39.1357 66.358 39.1125C66.5478 39.0893 66.7403 39.1207 66.9131 39.203L87.6013 49.0818C87.7816 49.1686 87.9837 49.1995 88.1817 49.1706C88.3796 49.1416 88.5645 49.0541 88.7127 48.9193L101.151 37.5714C101.336 37.4025 101.577 37.3093 101.827 37.3101H102.332C102.465 37.3101 102.596 37.2839 102.719 37.233C102.841 37.182 102.952 37.1074 103.046 37.0133C103.14 36.9192 103.214 36.8075 103.265 36.6845C103.316 36.5616 103.342 36.4298 103.342 36.2967V35.9526C103.342 35.8196 103.316 35.688 103.265 35.5653C103.214 35.4425 103.14 35.331 103.046 35.2371C102.952 35.1433 102.841 35.0689 102.718 35.0184C102.596 34.9678 102.465 34.942 102.332 34.9424H63.0105C62.8555 34.942 62.7025 34.9775 62.5633 35.046C62.4241 35.1145 62.3026 35.2143 62.208 35.3375C62.1134 35.4608 62.0484 35.6042 62.018 35.7567C61.9875 35.9093 61.9925 36.0668 62.0324 36.2171L68.0182 60.2321C68.0722 60.4514 68.1978 60.6462 68.3751 60.7855C68.5524 60.9247 68.7711 61.0003 68.9962 61.0001H105.873C106.005 61.0001 106.136 60.9738 106.259 60.9229C106.381 60.8719 106.492 60.7972 106.586 60.7031C106.679 60.6089 106.753 60.4972 106.804 60.3743C106.854 60.2513 106.88 60.1196 106.879 59.9867V59.6457C106.88 59.5128 106.854 59.3811 106.804 59.2582C106.753 59.1352 106.679 59.0235 106.586 58.9294C106.492 58.8352 106.381 58.7605 106.259 58.7096C106.136 58.6586 106.005 58.6324 105.873 58.6324H70.838C70.612 58.6322 70.3927 58.5557 70.2153 58.4152C70.0379 58.2748 69.9127 58.0785 69.86 57.858ZM87.1853 46.2679L72.4829 39.2413C72.2821 39.1396 72.1209 38.9734 72.0252 38.7692C71.9295 38.565 71.9047 38.3344 71.9547 38.1144C72.0048 37.8943 72.1269 37.6975 72.3014 37.5551C72.476 37.4128 72.693 37.3333 72.9179 37.3292H95.3208C95.5245 37.3284 95.7236 37.3896 95.8919 37.5048C96.0602 37.62 96.1897 37.7837 96.2633 37.9743C96.337 38.1648 96.3512 38.3734 96.3043 38.5723C96.2573 38.7712 96.1514 38.9511 96.0004 39.0883L88.2999 46.099C88.1521 46.2356 87.967 46.3246 87.7683 46.3547C87.5697 46.3848 87.3666 46.3546 87.1853 46.2679Z" fill="white"/>
<path d="M121.039 34.9488H106.879C106.229 34.9488 105.701 35.4781 105.701 36.1311V36.1342C105.701 36.7872 106.229 37.3165 106.879 37.3165H121.039C121.689 37.3165 122.217 36.7872 122.217 36.1342V36.1311C122.217 35.4781 121.689 34.9488 121.039 34.9488Z" fill="white"/>
<path d="M126.939 34.9488H125.755C125.104 34.9488 124.576 35.4781 124.576 36.1311V36.1342C124.576 36.7872 125.104 37.3165 125.755 37.3165H126.939C127.59 37.3165 128.117 36.7872 128.117 36.1342V36.1311C128.117 35.4781 127.59 34.9488 126.939 34.9488Z" fill="white"/>
<path d="M115.139 39.6841H103.339C102.688 39.6841 102.161 40.2134 102.161 40.8663V40.8695C102.161 41.5225 102.688 42.0518 103.339 42.0518H115.139C115.789 42.0518 116.317 41.5225 116.317 40.8695V40.8663C116.317 40.2134 115.789 39.6841 115.139 39.6841Z" fill="white"/>
<path d="M123.398 44.4196H106.879C106.229 44.4196 105.701 44.9489 105.701 45.6019V45.6051C105.701 46.258 106.229 46.7873 106.879 46.7873H123.398C124.049 46.7873 124.576 46.258 124.576 45.6051V45.6019C124.576 44.9489 124.049 44.4196 123.398 44.4196Z" fill="white"/>
<path d="M110.421 49.155H105.699C105.048 49.155 104.521 49.6843 104.521 50.3373V50.3405C104.521 50.9934 105.048 51.5227 105.699 51.5227H110.421C111.071 51.5227 111.599 50.9934 111.599 50.3405V50.3373C111.599 49.6843 111.071 49.155 110.421 49.155Z" fill="white"/>
<path d="M129.295 49.155H115.136C114.485 49.155 113.958 49.6843 113.958 50.3373V50.3405C113.958 50.9934 114.485 51.5227 115.136 51.5227H129.295C129.946 51.5227 130.474 50.9934 130.474 50.3405V50.3373C130.474 49.6843 129.946 49.155 129.295 49.155Z" fill="white"/>
<path d="M112.78 58.626H110.417C109.767 58.626 109.239 59.1553 109.239 59.8082V59.8114C109.239 60.4644 109.767 60.9937 110.417 60.9937H112.78C113.43 60.9937 113.958 60.4644 113.958 59.8114V59.8082C113.958 59.1553 113.43 58.626 112.78 58.626Z" fill="white"/>
<path d="M134.014 58.626H117.495C116.844 58.626 116.317 59.1553 116.317 59.8082V59.8114C116.317 60.4644 116.844 60.9937 117.495 60.9937H134.014C134.664 60.9937 135.192 60.4644 135.192 59.8114V59.8082C135.192 59.1553 134.664 58.626 134.014 58.626Z" fill="white"/>
<path d="M119.857 53.8905H103.339C102.688 53.8905 102.161 54.4198 102.161 55.0728V55.076C102.161 55.7289 102.688 56.2582 103.339 56.2582H119.857C120.508 56.2582 121.036 55.7289 121.036 55.076V55.0728C121.036 54.4198 120.508 53.8905 119.857 53.8905Z" fill="white"/>
</svg>
