<svg width="86" height="23" viewBox="0 0 86 23" fill="none" xmlns="http://www.w3.org/2000/svg">
<path d="M36.6719 10.4929C36.6188 10.0223 36.4001 9.65767 36.0156 9.39915C35.6312 9.13731 35.1473 9.00639 34.5639 9.00639C34.1463 9.00639 33.785 9.07268 33.4801 9.20526C33.1752 9.33452 32.9382 9.51349 32.7692 9.74219C32.6035 9.96757 32.5206 10.2244 32.5206 10.5128C32.5206 10.7547 32.5769 10.9635 32.6896 11.1392C32.8056 11.3149 32.9564 11.4624 33.142 11.5817C33.331 11.6977 33.5331 11.7955 33.7486 11.875C33.964 11.9512 34.1712 12.0142 34.37 12.0639L35.3643 12.3224C35.6892 12.402 36.0223 12.5097 36.3636 12.6456C36.705 12.7815 37.0215 12.9605 37.3132 13.1825C37.6049 13.4046 37.8402 13.6797 38.0192 14.0078C38.2015 14.3359 38.2926 14.7287 38.2926 15.1861C38.2926 15.7628 38.1435 16.2749 37.8452 16.7223C37.5502 17.1697 37.121 17.5227 36.5575 17.7812C35.9974 18.0398 35.3196 18.169 34.5241 18.169C33.7618 18.169 33.1023 18.0481 32.5455 17.8061C31.9886 17.5642 31.5528 17.2211 31.2379 16.777C30.9231 16.3295 30.7491 15.7992 30.7159 15.1861H32.2571C32.2869 15.554 32.4063 15.8606 32.6151 16.1058C32.8272 16.3478 33.0973 16.5284 33.4254 16.6477C33.7569 16.7637 34.1198 16.8217 34.5142 16.8217C34.9484 16.8217 35.3345 16.7538 35.6726 16.6179C36.014 16.4787 36.2824 16.2865 36.478 16.0412C36.6735 15.7926 36.7713 15.5026 36.7713 15.1712C36.7713 14.8696 36.6851 14.6226 36.5128 14.4304C36.3438 14.2382 36.1134 14.0791 35.8217 13.9531C35.5334 13.8272 35.2069 13.7161 34.8423 13.62L33.6392 13.2919C32.8239 13.0698 32.1776 12.7434 31.7003 12.3125C31.2263 11.8816 30.9893 11.3116 30.9893 10.6023C30.9893 10.0156 31.1484 9.50355 31.4666 9.06605C31.7848 8.62855 32.2157 8.28883 32.7592 8.04688C33.3028 7.80161 33.916 7.67898 34.5987 7.67898C35.2881 7.67898 35.8963 7.79995 36.4233 8.0419C36.9536 8.28385 37.3712 8.61695 37.6761 9.04119C37.9811 9.46212 38.1402 9.94602 38.1534 10.4929H36.6719ZM40.0091 18V10.3636H41.4956V18H40.0091ZM40.7598 9.18537C40.5012 9.18537 40.2792 9.09919 40.0936 8.92685C39.9113 8.75118 39.8201 8.54238 39.8201 8.30043C39.8201 8.05516 39.9113 7.84635 40.0936 7.67401C40.2792 7.49834 40.5012 7.41051 40.7598 7.41051C41.0183 7.41051 41.2387 7.49834 41.421 7.67401C41.6066 7.84635 41.6994 8.05516 41.6994 8.30043C41.6994 8.54238 41.6066 8.75118 41.421 8.92685C41.2387 9.09919 41.0183 9.18537 40.7598 9.18537ZM46.6971 21.0227C46.0906 21.0227 45.5685 20.9432 45.131 20.7841C44.6969 20.625 44.3422 20.4145 44.0671 20.1527C43.792 19.8909 43.5865 19.6042 43.4506 19.2926L44.7283 18.7656C44.8178 18.9115 44.9371 19.0656 45.0863 19.228C45.2388 19.3937 45.4442 19.5346 45.7028 19.6506C45.9646 19.7666 46.301 19.8246 46.712 19.8246C47.2754 19.8246 47.7411 19.687 48.109 19.4119C48.4769 19.1402 48.6609 18.706 48.6609 18.1094V16.608H48.5664C48.4769 16.7704 48.3477 16.951 48.1786 17.1499C48.0129 17.3487 47.7842 17.5211 47.4925 17.6669C47.2009 17.8127 46.8214 17.8857 46.354 17.8857C45.7508 17.8857 45.2073 17.7448 44.7234 17.4631C44.2428 17.178 43.8616 16.7588 43.5799 16.2053C43.3015 15.6484 43.1623 14.964 43.1623 14.152C43.1623 13.34 43.2998 12.6439 43.5749 12.0639C43.8533 11.4839 44.2345 11.0398 44.7184 10.7315C45.2023 10.42 45.7508 10.2642 46.364 10.2642C46.8379 10.2642 47.2208 10.3438 47.5124 10.5028C47.8041 10.6586 48.0311 10.8409 48.1935 11.0497C48.3593 11.2585 48.4869 11.4425 48.5763 11.6016H48.6857V10.3636H50.1424V18.169C50.1424 18.8253 49.9899 19.3639 49.685 19.7848C49.3801 20.2057 48.9674 20.5173 48.4471 20.7195C47.93 20.9216 47.3467 21.0227 46.6971 21.0227ZM46.6822 16.6527C47.1097 16.6527 47.471 16.5533 47.766 16.3544C48.0643 16.1522 48.2897 15.8639 48.4421 15.4893C48.5979 15.1115 48.6758 14.6591 48.6758 14.1321C48.6758 13.6184 48.5996 13.166 48.4471 12.7749C48.2946 12.3838 48.0709 12.0788 47.7759 11.8601C47.4809 11.638 47.1164 11.527 46.6822 11.527C46.2347 11.527 45.8619 11.643 45.5636 11.875C45.2653 12.1037 45.0399 12.4152 44.8874 12.8097C44.7383 13.2041 44.6637 13.6449 44.6637 14.1321C44.6637 14.6326 44.7399 15.0717 44.8924 15.4496C45.0449 15.8274 45.2702 16.1224 45.5685 16.3345C45.8701 16.5466 46.2414 16.6527 46.6822 16.6527ZM53.6225 13.4659V18H52.136V10.3636H53.5629V11.6065H53.6573C53.833 11.2022 54.1081 10.8774 54.4826 10.6321C54.8604 10.3868 55.3361 10.2642 55.9094 10.2642C56.4298 10.2642 56.8855 10.3736 57.2766 10.5923C57.6677 10.8078 57.971 11.1293 58.1864 11.5568C58.4019 11.9844 58.5096 12.513 58.5096 13.1428V18H57.0231V13.3217C57.0231 12.7682 56.8789 12.3357 56.5906 12.0241C56.3022 11.7093 55.9061 11.5518 55.4023 11.5518C55.0576 11.5518 54.7511 11.6264 54.4826 11.7756C54.2174 11.9247 54.007 12.1435 53.8512 12.4318C53.6987 12.7169 53.6225 13.0616 53.6225 13.4659ZM65.8638 7.81818V18H64.3276V7.81818H65.8638ZM69.4682 13.4659V18H67.9817V10.3636H69.4086V11.6065H69.503C69.6787 11.2022 69.9538 10.8774 70.3283 10.6321C70.7061 10.3868 71.1818 10.2642 71.7551 10.2642C72.2755 10.2642 72.7312 10.3736 73.1223 10.5923C73.5134 10.8078 73.8167 11.1293 74.0321 11.5568C74.2476 11.9844 74.3553 12.513 74.3553 13.1428V18H72.8688V13.3217C72.8688 12.7682 72.7246 12.3357 72.4363 12.0241C72.1479 11.7093 71.7518 11.5518 71.248 11.5518C70.9033 11.5518 70.5968 11.6264 70.3283 11.7756C70.0632 11.9247 69.8527 12.1435 69.6969 12.4318C69.5444 12.7169 69.4682 13.0616 69.4682 13.4659Z" fill="#E0ECFF"/>
<path d="M14.5318 12.4001L10.0843 16.8476C9.966 16.9655 9.82561 17.059 9.67116 17.1226C9.51672 17.1861 9.35125 17.2187 9.18422 17.2183C8.84734 17.2168 8.52436 17.0838 8.28413 16.8476C8.16566 16.7296 8.07167 16.5893 8.00753 16.4348C7.9434 16.2804 7.91038 16.1148 7.91038 15.9475C7.91038 15.7803 7.9434 15.6147 8.00753 15.4602C8.07167 15.3058 8.16566 15.1655 8.28413 15.0475L10.5608 12.7707H1.7717C1.43468 12.7707 1.11147 12.6369 0.873161 12.3986C0.634856 12.1603 0.500977 11.837 0.500977 11.5C0.500977 11.163 0.634856 10.8398 0.873161 10.6015C1.11147 10.3632 1.43468 10.2293 1.7717 10.2293H10.5608L8.28413 7.9526C8.04541 7.71389 7.9113 7.39011 7.9113 7.05251C7.9113 6.71491 8.04541 6.39114 8.28413 6.15242C8.52285 5.9137 8.84662 5.77959 9.18422 5.77959C9.52182 5.77959 9.84559 5.9137 10.0843 6.15242L14.5318 10.5999C14.6503 10.718 14.7443 10.8583 14.8084 11.0127C14.8726 11.1672 14.9056 11.3328 14.9056 11.5C14.9056 11.6673 14.8726 11.8329 14.8084 11.9873C14.7443 12.1418 14.6503 12.2821 14.5318 12.4001ZM19.5618 0.910706H13.6317C13.2947 0.910706 12.9715 1.04458 12.7332 1.28289C12.4949 1.5212 12.361 1.84441 12.361 2.18142C12.361 2.51844 12.4949 2.84165 12.7332 3.07996C12.9715 3.31826 13.2947 3.45214 13.6317 3.45214H19.1382V19.5479H13.6317C13.2947 19.5479 12.9715 19.6818 12.7332 19.9201C12.4949 20.1584 12.361 20.4816 12.361 20.8186C12.361 21.1556 12.4949 21.4789 12.7332 21.7172C12.9715 21.9555 13.2947 22.0893 13.6317 22.0893H19.5618C20.1226 22.0866 20.6597 21.8625 21.0562 21.466C21.4528 21.0694 21.6768 20.5323 21.6796 19.9715V3.02857C21.6768 2.46774 21.4528 1.93066 21.0562 1.53409C20.6597 1.13751 20.1226 0.913489 19.5618 0.910706Z" fill="#E0ECFF"/>
</svg>
