<svg width="137" height="52" viewBox="0 0 137 52" fill="none" xmlns="http://www.w3.org/2000/svg">
<rect width="137" height="52" rx="12" fill="#0070E7"/>
<path d="M18.9893 21.4297V19H31.7549V21.4297H26.8096V35H23.9346V21.4297H18.9893ZM35.9111 35.2422C35.1507 35.2422 34.4658 35.1068 33.8564 34.8359C33.2523 34.5599 32.7731 34.1536 32.4189 33.6172C32.07 33.0807 31.8955 32.4193 31.8955 31.6328C31.8955 30.9557 32.0205 30.3958 32.2705 29.9531C32.5205 29.5104 32.8617 29.1562 33.2939 28.8906C33.7262 28.625 34.2132 28.4245 34.7549 28.2891C35.3018 28.1484 35.8669 28.0469 36.4502 27.9844C37.1533 27.9115 37.7236 27.8464 38.1611 27.7891C38.5986 27.7266 38.9163 27.6328 39.1143 27.5078C39.3174 27.3776 39.4189 27.1771 39.4189 26.9062V26.8594C39.4189 26.2708 39.2445 25.8151 38.8955 25.4922C38.5465 25.1693 38.0439 25.0078 37.3877 25.0078C36.695 25.0078 36.1455 25.1589 35.7393 25.4609C35.3382 25.763 35.0674 26.1198 34.9268 26.5312L32.2861 26.1562C32.4945 25.4271 32.8382 24.8177 33.3174 24.3281C33.7965 23.8333 34.3825 23.4635 35.0752 23.2187C35.7679 22.9688 36.5335 22.8438 37.3721 22.8438C37.9502 22.8438 38.5257 22.9115 39.0986 23.0469C39.6715 23.1823 40.195 23.4062 40.6689 23.7187C41.1429 24.026 41.5231 24.4453 41.8096 24.9766C42.1012 25.5078 42.2471 26.1719 42.2471 26.9687V35H39.5283V33.3516H39.4346C39.2627 33.6849 39.0205 33.9974 38.708 34.2891C38.4007 34.5755 38.0127 34.8073 37.5439 34.9844C37.0804 35.1563 36.5361 35.2422 35.9111 35.2422ZM36.6455 33.1641C37.2132 33.1641 37.7054 33.0521 38.1221 32.8281C38.5387 32.599 38.859 32.2969 39.083 31.9219C39.3122 31.5469 39.4268 31.138 39.4268 30.6953V29.2812C39.3382 29.3542 39.1872 29.4219 38.9736 29.4844C38.7653 29.5469 38.5309 29.6016 38.2705 29.6484C38.0101 29.6953 37.7523 29.737 37.4971 29.7734C37.2419 29.8099 37.0205 29.8411 36.833 29.8672C36.4111 29.9245 36.0335 30.0182 35.7002 30.1484C35.3669 30.2786 35.1038 30.4609 34.9111 30.6953C34.7184 30.9245 34.6221 31.2214 34.6221 31.5859C34.6221 32.1068 34.8122 32.5 35.1924 32.7656C35.5726 33.0312 36.057 33.1641 36.6455 33.1641ZM47.9189 19V35H45.0908V19H47.9189ZM53.4053 31.2344L53.3975 27.8203H53.8506L58.1631 23H61.4678L56.1631 28.9062H55.5771L53.4053 31.2344ZM50.8271 35V19H53.6553V35H50.8271ZM58.3584 35L54.4521 29.5391L56.3584 27.5469L61.7412 35H58.3584ZM74.8018 23V25.1875H67.9033V23H74.8018ZM69.6064 20.125H72.4346V31.3906C72.4346 31.7708 72.4919 32.0625 72.6064 32.2656C72.7262 32.4635 72.8825 32.599 73.0752 32.6719C73.2679 32.7448 73.4814 32.7812 73.7158 32.7812C73.8929 32.7812 74.0544 32.7682 74.2002 32.7422C74.3512 32.7161 74.4658 32.6927 74.5439 32.6719L75.0205 34.8828C74.8695 34.9349 74.6533 34.9922 74.3721 35.0547C74.096 35.1172 73.7575 35.1536 73.3564 35.1641C72.6481 35.1849 72.0101 35.0781 71.4424 34.8437C70.8747 34.6042 70.4242 34.2344 70.0908 33.7344C69.7627 33.2344 69.6012 32.6094 69.6064 31.8594V20.125ZM82.2725 35.2344C81.1006 35.2344 80.085 34.9766 79.2256 34.4609C78.3662 33.9453 77.6995 33.224 77.2256 32.2969C76.7568 31.3698 76.5225 30.2865 76.5225 29.0469C76.5225 27.8073 76.7568 26.7214 77.2256 25.7891C77.6995 24.8568 78.3662 24.1328 79.2256 23.6172C80.085 23.1016 81.1006 22.8438 82.2725 22.8438C83.4443 22.8438 84.46 23.1016 85.3193 23.6172C86.1787 24.1328 86.8428 24.8568 87.3115 25.7891C87.7855 26.7214 88.0225 27.8073 88.0225 29.0469C88.0225 30.2865 87.7855 31.3698 87.3115 32.2969C86.8428 33.224 86.1787 33.9453 85.3193 34.4609C84.46 34.9766 83.4443 35.2344 82.2725 35.2344ZM82.2881 32.9687C82.9235 32.9687 83.4548 32.7943 83.8818 32.4453C84.3089 32.0911 84.6266 31.6172 84.835 31.0234C85.0485 30.4297 85.1553 29.7682 85.1553 29.0391C85.1553 28.3047 85.0485 27.6406 84.835 27.0469C84.6266 26.4479 84.3089 25.9714 83.8818 25.6172C83.4548 25.263 82.9235 25.0859 82.2881 25.0859C81.637 25.0859 81.0954 25.263 80.6631 25.6172C80.236 25.9714 79.9157 26.4479 79.7021 27.0469C79.4938 27.6406 79.3896 28.3047 79.3896 29.0391C79.3896 29.7682 79.4938 30.4297 79.7021 31.0234C79.9157 31.6172 80.236 32.0911 80.6631 32.4453C81.0954 32.7943 81.637 32.9687 82.2881 32.9687ZM103.528 29.9531V23H106.356V35H103.614V32.8672H103.489C103.218 33.5391 102.773 34.0885 102.153 34.5156C101.539 34.9427 100.781 35.1563 99.8799 35.1563C99.0934 35.1563 98.3981 34.9818 97.7939 34.6328C97.195 34.2786 96.7262 33.7656 96.3877 33.0938C96.0492 32.4167 95.8799 31.599 95.8799 30.6406V23H98.708V30.2031C98.708 30.9635 98.9163 31.5677 99.333 32.0156C99.7497 32.4635 100.297 32.6875 100.974 32.6875C101.39 32.6875 101.794 32.5859 102.185 32.3828C102.575 32.1797 102.896 31.8776 103.146 31.4766C103.401 31.0703 103.528 30.5625 103.528 29.9531ZM118.749 26.1719L116.171 26.4531C116.098 26.1927 115.97 25.9479 115.788 25.7188C115.611 25.4896 115.371 25.3047 115.069 25.1641C114.767 25.0234 114.397 24.9531 113.96 24.9531C113.371 24.9531 112.877 25.0807 112.476 25.3359C112.08 25.5911 111.884 25.9219 111.89 26.3281C111.884 26.6771 112.012 26.9609 112.272 27.1797C112.538 27.3984 112.976 27.5781 113.585 27.7188L115.632 28.1562C116.767 28.401 117.611 28.7891 118.163 29.3203C118.72 29.8516 119.002 30.5469 119.007 31.4062C119.002 32.1615 118.78 32.8281 118.343 33.4062C117.91 33.9792 117.309 34.4271 116.538 34.75C115.767 35.0729 114.882 35.2344 113.882 35.2344C112.413 35.2344 111.231 34.9271 110.335 34.3125C109.439 33.6927 108.905 32.8307 108.733 31.7266L111.491 31.4609C111.616 32.0026 111.882 32.4115 112.288 32.6875C112.694 32.9635 113.223 33.1016 113.874 33.1016C114.546 33.1016 115.085 32.9635 115.491 32.6875C115.903 32.4115 116.108 32.0703 116.108 31.6641C116.108 31.3203 115.976 31.0365 115.71 30.8125C115.45 30.5885 115.043 30.4167 114.491 30.2969L112.444 29.8672C111.293 29.6276 110.442 29.224 109.89 28.6562C109.338 28.0833 109.064 27.3594 109.069 26.4844C109.064 25.7448 109.265 25.1042 109.671 24.5625C110.082 24.0156 110.653 23.5937 111.382 23.2969C112.116 22.9948 112.963 22.8438 113.921 22.8438C115.327 22.8438 116.434 23.1432 117.241 23.7422C118.054 24.3411 118.556 25.151 118.749 26.1719Z" fill="white"/>
</svg>
